<svg viewBox="0 0 472 473" xmlns="http://www.w3.org/2000/svg"><g fill="none" fill-rule="evenodd" stroke="#fff" stroke-linejoin="round" stroke-width="2" transform="translate(1.186758 1.275907)"><path d="m143.587274 36.6913156 4.622528-2.4846088 12.134136 22.7659501-31.43319 16.8144454-20.050215-37.4424763 26.868444-14.3298367zm-20.97472 3.4668959 3.235769 6.0670679 8.956148-4.7958727-3.235769-6.0670679zm7.338263 13.7520207 3.409114 6.3559759 13.289768-7.1071367-3.409114-6.355976z"/><path d="m201.484437 45.0118659-9.938435 2.7157351-3.293551-12.249699-14.156492 3.8135855 3.293551 12.2496991-9.938435 2.7157352-11.094067-40.967154 34.091143-9.24505585zm-32.646604-24.9616509 2.657954 9.7650902 14.156492-3.8135855-2.657954-9.7650903z"/><path d="m235.864488 26.6373173-1.040068-8.4361135-.635598-17.73895101 10.285125-.34668959 1.560103 42.4694755-11.729665.4044712-16.583319-25.7128117 1.097851 8.4361135.635597 17.738951-10.285124.3466896-1.560104-42.46947552 11.729665-.40447119z"/><path d="m288.503525 49.8077386-10.11178-1.9645744 2.369046-12.4230438-14.4454-2.7735168-2.369045 12.4230439-10.11178-1.9645744 8.031642-41.71831472 34.66896 6.70266552zm-18.374548-36.8068788-1.906793 9.9384351 14.4454 2.7735168 1.906793-9.9384351z"/><path d="m327.506105 48.3631986 2.773517-8.0316423 7.2227-16.2366294 9.4184 4.2180568-17.33448 38.7714531-10.689595-4.7958727-3.58246-30.3931213-2.715735 8.0894239-7.2227 16.2366294-9.4184-4.2180567 17.334479-38.7714532 10.689596 4.7958728z"/><path d="m379.567326 62.6352537-28.659673 7.3382631 15.369905 11.2096302-5.77816 7.9160791-25.943938-18.8368013 5.77816-7.9160791 28.659673-7.3382632-14.4454-10.516251 5.77816-7.9160791 24.961651 18.2012037z"/><path d="m388.870163 119.319003-6.933792-7.627172 9.418401-8.493895-9.822872-10.8629403-9.4184 8.4938953-6.933792-7.6271713 31.490971-28.4863285 23.690456 26.1750645zm7.396045-40.4471199-7.511608 6.8182287 9.822872 10.8629407 7.511608-6.8182288z"/><path d="m417.703181 174.50043-4.102493-9.476182 11.614101-5.084781-5.835941-13.463113-11.614102 5.084781-4.102493-9.476182 38.944798-16.930009 14.09871 32.357696zm19.934652-35.940155-9.302837 4.044712 5.835941 13.463113 9.302838-4.044712z"/><path d="m446.305073 195.879622 4.160275 23.979363c-.462253.231127-1.09785.462253-1.964574.577816-4.044712.69338-7.916079.404472-11.55632-.982287-3.640241-1.328977-6.702666-3.524677-9.187274-6.529321-2.484609-3.004643-4.044712-6.587102-4.738091-10.631814-.69338-4.044712-.404472-7.916079.924505-11.614101 1.328977-3.698023 3.466896-6.760447 6.413758-9.245056 3.004643-2.484609 6.471539-4.102494 10.574032-4.795873 4.044712-.693379 7.916079-.404471 11.55632.982287 3.640241 1.328977 6.702666 3.524678 9.187275 6.529321 2.484608 3.004643 4.044711 6.587102 4.738091 10.631814.924505 5.315907.173344 10.169562-2.253483 14.560963-2.426827 4.449183-6.009286 7.56939-10.805159 9.476183l-1.849011-10.689596c2.022356-1.155632 3.524678-2.773517 4.449183-4.853655.982287-2.080137 1.213414-4.33362.808943-6.818228-.577816-3.351333-2.195701-5.951505-4.795873-7.742735-2.657954-1.791229-5.720379-2.426827-9.187274-1.791229-3.524678.635597-6.182632 2.195701-8.089424 4.795873-1.849012 2.600171-2.542391 5.547033-1.964575 8.898366.288908 1.502321.751161 2.88908 1.44454 4.102493.693379 1.213414 1.560103 2.253483 2.542391 3.120207 1.040068.808942 2.1957 1.44454 3.524677 1.906793l-2.137919-12.423044z"/><path d="m458.208083 260.595013.866724-18.894583-6.298195-.288908-.808942 17.507825-9.822872-.462253.808942-17.507825-6.644884-.288908-.866724 18.894583-9.822871-.462253 1.386758-29.237489 42.411694 1.964574-1.386759 29.23749z"/><path d="m433.650903 296.361823 8.378332 1.44454 17.218916 4.506965-2.600172 9.996216-41.082717-10.805159 2.946862-11.325193 29.410834-8.493895-8.436114-1.386759-17.218916-4.506964 2.600172-9.996217 41.082717 10.805159-2.946862 11.325193z"/><path d="m441.162511 347.267412c-2.542391 4.738091-6.182631 8.089424-10.805159 10.053998-4.68031 1.964575-9.418401 2.195701-14.329837.751161l5.200344-9.533964c2.311264.34669 4.449183 0 6.529321-1.040069 2.022356-1.040069 3.64024-2.657953 4.853654-4.853654 1.617885-3.004643 1.964574-6.009286.982287-9.071711s-3.004643-5.431471-6.067068-7.107137c-3.120206-1.675666-6.240412-2.137919-9.302837-1.213413-3.062425.866724-5.431471 2.773516-7.049355 5.778159-.808943 1.44454-1.271195 2.946862-1.44454 4.449184-.173345 1.502321 0 3.004643.462253 4.391401.462252 1.44454 1.155632 2.715735 2.1957 3.813586l-5.200344 9.533964c-3.871367-3.293552-6.240412-7.453827-7.164918-12.423044-.866724-4.969218-.057782-9.822872 2.484609-14.560963 1.44454-2.715735 3.351333-4.969218 5.662597-6.876011 2.311264-1.906792 4.795872-3.235769 7.396044-4.044712 2.657954-.808942 5.431471-1.040068 8.378332-.75116 2.946862.288908 5.77816 1.155632 8.493895 2.600172 5.489252 2.946861 9.071711 7.338263 10.747378 13.116423 1.617885 5.835941.982287 11.440756-2.022356 16.98779z"/><path d="m375.695959 365.006363 6.818228-7.742734 10.169562 8.898366 31.490972 7.973861-7.627172 8.725021-18.027859-4.738091 7.107137 17.218916-7.569389 8.66724-12.134136-30.104213z"/><path d="m333.746518 429.086156-4.506965 2.657954-13.058642-22.245916 30.739811-18.08564 21.552537 36.633534-26.232846 15.427687zm12.885296-17.73895-3.64024-6.240413-12.943079 7.627171 3.640241 6.240413zm7.916079 13.405331-3.466896-5.893724-8.725021 5.142563 3.466896 5.893723z"/><path d="m275.618229 423.134652 9.822872-3.120207 3.813585 12.076355 13.983147-4.391402-3.813585-12.076354 9.822872-3.120207 12.769733 40.504902-33.686672 10.631814zm33.628891 23.632674-3.062425-9.649527-13.983147 4.391401 3.062424 9.649527z"/><path d="m241.931556 442.895959 1.386759 8.436113 1.386758 17.738951-10.285125.808943-3.235769-42.353913 11.671883-.866724 17.623388 25.019433-1.44454-8.436114-1.386759-17.738951 10.285125-.808942 3.23577 42.353912-11.671883.866724z"/><path d="m188.425795 421.863457 10.227343 1.560103-1.906792 12.538607 14.503181 2.195701 1.906793-12.538607 10.227343 1.560103-6.298194 42.007222-34.900086-5.258125zm19.876871 35.997936 1.502321-9.996217-14.503181-2.195701-1.502322 9.996217z"/><path d="m149.538779 424.925881-2.484609 8.147206-6.587102 16.525537-9.591746-3.813585 15.716595-39.464833 10.862941 4.33362 4.853654 30.219777 2.426828-8.204987 6.587102-16.525538 9.591745 3.813586-15.716595 39.464832-10.86294-4.33362z"/><path d="m96.899742 412.733964 28.370765-8.493895-15.774376-10.574033 5.43147-8.147205 26.637317 17.796732-5.43147 8.147206-28.370765 8.493895 14.907652 9.938435-5.43147 8.147205-25.6550301-17.161135z"/><path d="m85.3434222 356.512468 7.2226999 7.338263-9.0717111 8.898366 10.2851247 10.45847 9.0717113-8.898367 7.2227 7.338263-30.3353399 29.815306-24.7305246-25.192778zm-5.7781599 40.736027 7.2226999-7.107136-10.2851247-10.516252-7.2226999 7.107137z"/><path d="m54.2569218 302.544454 4.5069647 9.302837-11.3829751 5.547034 6.4137576 13.231986 11.382975-5.547033 4.5069648 9.302837-38.1936372 18.547894-15.427687-31.77988zm-18.4323302 36.749097 9.1294927-4.449183-6.4137576-13.231986-9.1294927 4.449183z"/><path d="m24.7883061 282.320894-5.1425623-23.806019c.4622528-.231126 1.0978504-.462252 1.9645743-.693379 4.044712-.866724 7.9160791-.693379 11.6141015.462253 3.6980224 1.213414 6.8182287 3.235769 9.4184007 6.182631 2.600172 2.88908 4.3336199 6.413758 5.2003439 10.400688.866724 4.044712.6933792 7.916079-.4622528 11.614101-1.155632 3.698023-3.1779879 6.876011-6.0670679 9.476183s-6.2981943 4.33362-10.3429063 5.200344c-4.0447119.866724-7.9160791.693379-11.6141014-.462253-3.6980224-1.213414-6.8182287-3.23577-9.41840072-6.182631-2.60017197-2.88908-4.33361995-6.413758-5.20034394-10.400688-1.15563198-5.258126-.57781599-10.169562 1.67566638-14.676526 2.25348238-4.506965 5.72037838-7.800516 10.40068788-9.880654l2.311264 10.631814c-1.9645744 1.271196-3.4091144 2.946862-4.2758384 5.027-.866724 2.137919-1.0400688 4.391401-.5200344 6.818228.6933792 3.293551 2.4268272 5.835942 5.1425624 7.511608 2.7157351 1.675667 5.7781599 2.137919 9.2450559 1.386759 3.4668959-.751161 6.1248495-2.426828 7.8582975-5.084781 1.7912295-2.657954 2.3112639-5.662597 1.5601031-8.956148-.3466895-1.502322-.8667239-2.831298-1.6178847-4.044712s-1.6178848-2.195701-2.7157352-3.004643c-1.0400688-.808943-2.2534824-1.386759-3.5824592-1.733448l2.6579536 12.365262z"/><path d="m10.4584695 217.836629-.288908 18.952365 6.2981943.115563.288908-17.507824 9.8228719.173344-.288908 17.507825 6.6448839.115563.288908-18.952364 9.8228719.173344-.4622528 29.23749-42.4694755-.69338.46225279-29.237489z"/><path d="m33.3399828 181.434222-8.4361135-1.097851-17.39226139-3.813585 2.19570077-10.053998 41.48718832 9.071711-2.4846088 11.440756-29.0063628 9.649527 8.4938951 1.040069 17.3922614 3.813586-2.1957008 10.053998-41.48718832-9.071711 2.48460877-11.440757z"/><path d="m23.7482373 130.875322c2.3690456-4.853654 5.8359415-8.32055 10.4006879-10.458469 4.5647463-2.137919 9.3606191-2.600172 14.3298366-1.328977l-4.7958727 9.76509c-2.311264-.231126-4.4491832.231127-6.4715391 1.328977-1.9645744 1.097851-3.5246776 2.831299-4.622528 5.084781-1.5023216 3.062425-1.6756664 6.067068-.577816 9.071711s3.2357696 5.315907 6.3559759 6.818229c3.177988 1.560103 6.2981944 1.849011 9.3606191.866724 3.0046432-.982287 5.3159072-3.004643 6.7604472-6.067068.7511607-1.502322 1.1556319-3.004643 1.2134135-4.506965.1155632-1.502321-.1155632-3.004643-.6355976-4.391401-.5200343-1.386759-1.2711951-2.657954-2.3112639-3.755804l4.7958727-9.765091c3.9869304 3.120207 6.5293207 7.164919 7.6271711 12.076355s.4622528 9.822871-1.9067928 14.618744c-1.3289767 2.773517-3.1202063 5.142563-5.3736887 7.107137s-4.6225279 3.409114-7.2226999 4.33362c-2.600172.924505-5.3736887 1.271195-8.3205503 1.09785s-5.8359415-.924505-8.5516767-2.253482c-5.6048151-2.715735-9.3606191-6.933792-11.2674119-12.65417-1.9645743-5.662597-1.5601031-11.325194 1.2134136-16.987791z"/><path d="m88.4636285 110.478418-6.4715391 8.031642-10.5162511-8.493895-31.7798796-6.702665 7.2804815-9.0139299 18.2012038 3.9869303-7.8005159-16.9300086 7.2226999-8.9561479 13.3475495 29.5841791z"/></g></svg>