<?xml version="1.0" encoding="UTF-8"?>
<svg width="196px" height="100px" viewBox="0 0 196 100" version="1.1" xmlns="http://www.w3.org/2000/svg" xmlns:xlink="http://www.w3.org/1999/xlink">
    <title>Mouth_2</title>
    <defs>
        <linearGradient x1="19.1175737%" y1="30.7386981%" x2="54.1668746%" y2="52.1091645%" id="linearGradient-1">
            <stop stop-color="#E62727" offset="0%"></stop>
            <stop stop-color="#F17070" offset="100%"></stop>
        </linearGradient>
        <linearGradient x1="-81.8530943%" y1="-64.5690181%" x2="177.216679%" y2="-64.5690181%" id="linearGradient-2">
            <stop stop-color="#FFFFFF" offset="0%"></stop>
            <stop stop-color="#FFFFFF" offset="12.24%"></stop>
            <stop stop-color="#FFFFFF" stop-opacity="0" offset="99.2269449%"></stop>
        </linearGradient>
        <linearGradient x1="6.75795383%" y1="49.0009006%" x2="91.4730818%" y2="48.4633232%" id="linearGradient-3">
            <stop stop-color="#E43232" offset="0%"></stop>
            <stop stop-color="#DE6F6F" offset="100%"></stop>
        </linearGradient>
        <linearGradient x1="6.75795383%" y1="49.880042%" x2="91.4730818%" y2="49.8154972%" id="linearGradient-4">
            <stop stop-color="#D33030" offset="0%"></stop>
            <stop stop-color="#DE6F6F" offset="100%"></stop>
        </linearGradient>
    </defs>
    <g id="English" stroke="none" stroke-width="1" fill="none" fill-rule="evenodd">
        <g id="01-bananza-v3-copy-3" transform="translate(-660.000000, -451.000000)" fill-rule="nonzero">
            <g id="Illustartion" transform="translate(467.000000, -34.000000)">
                <g id="Mouth_2" transform="translate(193.993614, 485.901924)">
                    <path d="M194.777944,30.9775691 C194.777944,30.9775691 155.25,28.52 128.1,17.1 C128.1,17.1 105.26,6.45 97.9,3.1 C90.54,-0.25 88.26,-1.98 72.02,3.86 C55.78,9.7 39.6245143,8.43874927 22.3645143,2.34874927 C22.3645143,2.34874927 -0.0500000001,-1.98 3.51,13.25 C7.07,28.48 14.67,30.81 14.67,30.81 C14.67,30.81 -15.544578,48.4961719 13.125422,72.3461719 C41.795422,96.1961719 94.09,110.99 134.44,80.8 C174.79,50.61 166.357944,37.3275691 194.777944,30.9775691 Z" id="Path" fill="url(#linearGradient-1)"></path>
                    <path d="M107.240071,56.4382713 C107.312102,58.022953 107.096009,61.4804401 104.791018,64.5057414 C104.070708,65.4421442 103.134305,66.6666709 101.549623,67.1708878 C99.10057,67.9632286 97.8760433,66.1624541 96.4354236,66.8827639 C93.8423082,68.1793216 95.9312067,75.1663269 92.8338745,77.0391325 C91.6093478,77.8314733 90.2407591,77.8314733 90.2407591,77.8314733 C84.6943734,78.1916282 86.495148,69.6919722 83.0376608,73.0053975 C79.5801736,76.3188227 77.0590892,80.5686507 73.0253541,78.3356902 C70.2161458,76.7510086 71.8728584,74.3739861 71.2966105,73.7977383 C70.7923936,73.2935214 69.423805,73.9418002 68.5594332,74.4460171 C64.3816361,76.6789776 63.1571094,79.200062 62.0766447,78.8399071 C60.4199321,78.3356902 61.7164898,72.4291496 59.9877462,71.7088398 C59.1954053,71.3486848 57.8268167,72.0689947 55.3057323,75.094296 C47.81451,88.6361208 40.2512568,60.4720064 40.2512568,60.4720064 C42.1240623,66.234485 45.2213946,69.4038483 46.9501382,70.9164989 C49.3991916,73.0053975 50.8398113,73.1494594 51.4160592,73.2214904 C55.5218252,73.3655524 58.3310335,68.1072906 58.5471265,67.7471357 L58.5471265,67.7471357 C60.2758701,64.8658964 61.7164898,62.9930908 62.6528925,63.2812147 C62.7969545,63.3532457 63.0850784,63.4252767 63.4452334,64.5777724 C64.741791,68.8276004 63.3011714,75.6705438 66.6145966,72.1410257 C69.9280218,68.6115075 71.8728584,63.0651218 73.8897259,70.2682201 C74.3939428,72.0689947 75.0422216,72.8613355 75.6905005,73.0053975 C76.7709652,73.2214904 77.707368,70.1241581 81.1648552,65.2980823 C82.029227,64.1455865 82.6054749,63.3532457 83.3257847,63.4252767 C84.2621875,63.4973077 84.5503114,65.0819893 85.7748381,67.4590117 C86.423117,68.7555694 88.5840465,72.9333665 90.1687281,72.7172735 C90.384821,72.6452425 90.8890379,72.5011806 92.1135646,68.8996314 C93.5541843,64.6498034 93.4101223,63.4252767 94.4905871,62.9210598 C95.6430828,62.3448119 97.2277644,62.5609049 99.3886939,63.7854316 C100.973376,64.6498034 101.261499,64.3616795 101.621654,64.3616795 C103.134305,64.2176175 105.007111,62.7769978 107.240071,56.4382713 Z" id="Path" fill="url(#linearGradient-2)" opacity="0.199355015" transform="translate(73.751257, 67.697879) rotate(9.000000) translate(-73.751257, -67.697879) "></path>
                    <path d="M12.2415744,74.6854098 C40.9115744,98.5454098 94.09,110.99 134.44,80.8 C174.79,50.61 164.125893,37.4615437 192.545893,31.1115437 C192.545893,31.1115437 193.100524,30.6515725 193.411918,30.6115437 C174.59141,38.0134675 159.46,53 159.46,53 C159.46,53 140.594641,85.9553913 78.6946413,89.9153913 C27.0446413,93.2253913 4.84157439,53.7354098 3.32157439,43.3654098 C-0.148425611,53.3954098 0.351574389,64.8054098 12.2415744,74.6854098 Z" id="Path" fill="url(#linearGradient-3)"></path>
                    <path d="M52.24,46.4 C52.24,46.4 66.09,47.5 73.09,48.6 C80.09,49.7 109.57,54.08 133.57,49.97 C150.63,47.05 170.557944,39.3775691 194.777944,30.9775691 L192.545893,31.1115437 C169.545893,38.2715437 153.68,43.1 133.57,45.58 C102.43,49.42 59.65,41.47 59.65,41.47 C59.65,41.47 44.56,47.64 35.65,38.31 L31.26,32.42 C31.26,32.42 30.85,35.57 33.04,37.35 C33.04,37.35 21.71,27.93 12.33,29.48 C13.0355466,30.0431256 13.8251703,30.4919288 14.67,30.81 L14.46,30.99 C18.38,32.26 25.31,35.25 37.57,41.99 C41.8947033,44.9240455 47.0143227,46.4630722 52.24,46.4 Z" id="Path" fill="url(#linearGradient-4)"></path>
                    <path d="M74.3,5.74 C78.69,4.07 83.42,2.74 88.03,3.59 C88.81,3.74 89.7,4.07 89.92,4.83 C89.9596334,4.94330065 89.9596334,5.06669935 89.92,5.18 C89.8312178,5.29519839 89.7030143,5.37354499 89.56,5.4 C88.12129,5.74726517 86.656277,5.97471011 85.18,6.08 C82.51374,6.41210667 79.8957705,7.05652992 77.38,8 C74.84,9 72.38,10.17 69.9,11.14 C67.4035808,12.2040426 64.7135724,12.7386392 62,12.71 C61.2458255,12.7783862 60.5038639,12.4853114 60,11.92 C59.31,10.92 60.32,10.06 61.22,9.92 C62.71,9.63 64.22,9.4 65.64,8.92 C68.62,8.06 71.44,6.83 74.3,5.74 Z" id="Path" fill="#FFFDFD"></path>
                </g>
            </g>
        </g>
    </g>
</svg>