<?xml version="1.0" encoding="UTF-8"?>
<svg width="286px" height="208px" viewBox="0 0 286 208" version="1.1" xmlns="http://www.w3.org/2000/svg" xmlns:xlink="http://www.w3.org/1999/xlink">
    <title>Group 12</title>
    <defs>
        <path d="M125.582319,12.3271234 C124.32035,15.8353367 122.022436,20.1157981 125.33746,24.3080026 C126.811098,26.2822662 128.128702,28.4091602 129.27405,30.662502 C130.81855,33.6191094 130.912727,34.7223211 128.897343,35.8255328 C127.93674,35.2297985 128.200435,34.9208992 127.013807,34.8326423 C125.393966,34.8326423 116.070461,32.0966772 120.459101,39.4661314 C121.242886,40.4312327 121.651799,41.7325495 121.589223,43.0626016 C119.272473,46.5928791 121.758741,44.0775564 120.233077,44.0775564 C119.065284,44.0775564 117.407772,43.2170512 116.051626,43.2170512 C114.69548,43.2170512 113.037968,42.444803 111.474633,42.5109957 C110.231499,44.4526483 107.707561,47.1665491 109.591097,50.4320558 C110.005475,51.1601755 113.037968,52.4399011 112.661261,53.1680208 C112.020859,54.3815537 102.904543,53.6975624 105.88053,56.7865552 C107.764067,58.7282078 110.758889,60.2285757 110.080816,63.8471101 L109.21439,63.5602751 C92.2625634,57.7353173 108.649329,74.2393644 100.098074,68.6129847 C97.3669466,66.8037175 92.3190695,64.4207802 92.7146121,69.6279395 C93.5810387,80.5276712 95.0690324,78.4536331 85.4818329,72.783125 C80.7729923,70.0250957 84.4647233,81.0572128 81.1496996,83.815242 C76.7233894,87.4337764 22.4013101,70.0587944 26.5827605,62.5348906 C35.4353808,46.5162566 -10.8019932,12.0773288 2.38276052,0.934890573 C9.31417388,-4.868003 110.664712,18.4168521 117.087571,14.0260695 C118.603783,13.6434938 120.08117,13.0740064 121.495046,12.3271234 C122.820897,11.8041463 124.256468,11.8041463 125.582319,12.3271234 Z" id="path-1"></path>
        <path d="M7.71047273,91.4527658 C11.7556123,92.2471881 15.8943895,90.0404597 19.4338866,91.6513714 C21.4751839,92.5781973 24.0221237,91.0555547 26.0446935,91.0555547 C29.7901931,91.0555547 24.2655812,99.4852571 28.9287282,97.6757399 C32.466856,95.7499509 35.8300545,93.406175 38.9666673,90.6804109 C41.401242,88.4736825 38.1426573,88.6943554 40.9892371,90.6804109 C42.150342,91.4969004 38.4422973,97.609538 38.4422973,99.3087189 C38.4422973,101.0079 42.8807144,97.1019905 43.3676293,96.7047794 C45.1134245,95.2666013 46.9997303,94.0811602 48.9858788,93.174014 C51.6826385,92.865072 50.8586286,92.4237263 50.8586286,95.3807424 C50.8586286,96.2413664 49.3978838,100.875496 50.0158912,101.581649 C50.6338986,102.287802 54.3606708,98.1391528 54.7539483,97.5874707 C56.3270581,95.3807424 58.4994479,92.5119955 60.5407452,94.9835312 C61.9397163,97.3313949 62.9207707,99.9887202 63.4247799,102.79535 C67.975562,99.8162664 71.7959716,95.3586751 75.4665613,93.174014 C77.3393111,92.0485825 76.8336686,95.0497331 76.8336686,96.594443 C76.8336686,98.1391528 77.976046,100.059007 77.4142211,100.43415 C79.6053384,98.6908349 79.2869709,99.8162664 80.7477158,97.3888652 C81.8151832,95.6896843 85.8603228,88.8267591 87.8641651,90.1728634 C90.1676474,91.695506 89.5121849,98.3598257 91.1789323,100.632756 C92.6396771,103.633906 96.7971817,94.1670417 97.7148292,92.9754084 C99.8310365,90.0183924 102.677616,85.16359 106.554208,85.16359 C109.082421,85.16359 108.707871,86.5317616 110.449528,87.3703183 C119.813277,91.9161788 102.846164,74.6374956 103.801266,74.2623518 C99.774854,63.2287099 83.8047029,11.5315466 73.8978564,6.87534971 C54.3463483,-2.28257306 22.6748146,-2.66108108 3.49785639,7.97534971 C-6.0718952,13.3376997 7.54192525,79.8453746 7.71047273,91.4527658 Z" id="path-3"></path>
        <path d="M3.7266131,16.8577896 C3.36841068,21.2538213 0.860993792,26.2872776 0.860993792,30.5074681 C0.860993792,33.1011268 6.10206068,30.77123 8.57177205,30.77123 C10.5513117,30.77123 7.64798688,42.7064561 9.66523205,42.4866545 C13.1341396,42.0910116 15.52844,42.9482378 15.8489369,47.1024878 C16.9989551,61.8511742 20.4113044,58.5321703 27.782733,60.1367219 C29.6680089,60.5543449 29.4040703,69.7420512 32.8541251,68.2693805 C40.1501427,65.2141385 38.5099527,78.2703527 39.9804678,77.061444 C57.4004168,63.2359242 49.2560251,90.4034002 59.3233981,84.2049955 C65.1866061,80.6002495 72.4072126,79.5012416 77.610574,74.5557059 C83.2664015,69.170567 103.858086,29.5411785 100.54,24.2 C94.2808842,14.1330874 88.1860724,0 77.44,0 C71.7841724,0 8.43980274,8.32948804 0.22,9.6263174 C4.57498723,12.7474999 3.7266131,16.8577896 3.7266131,16.8577896 Z" id="path-5"></path>
    </defs>
    <g id="English" stroke="none" stroke-width="1" fill="none" fill-rule="evenodd">
        <g id="02-bananza-v3" transform="translate(-575.000000, -382.000000)">
            <g id="Illustration---burger" transform="translate(575.000000, -100.000000)">
                <g id="Group-12" transform="translate(0.000000, 482.000000)">
                    <g id="Group" transform="translate(0.000000, 14.000000)">
                        <path d="M281.092136,87.839639 L261.506509,74.5227745 C249.598301,48.872313 219.563359,28.3519439 181.59569,20.186547 L156.830995,3.34274396 C149.31537,-1.11424799 140.439024,-1.11424799 132.923399,3.34274396 L108.17694,20.1224208 C70.172799,28.2236916 40.11962,48.5730576 28.0837595,74.2235191 L4.99679074,89.9344267 C-1.6411687,94.4018821 -1.65940485,101.690888 4.90560998,106.158344 L26.7889927,121.121113 C38.1318794,149.037365 70.7198836,171.203639 112.006532,178.962903 L129.166752,190.633863 C136.676006,195.122046 145.565093,195.122046 153.074347,190.633863 L168.082701,180.480556 C216.736755,174.06794 255.233272,147.989971 264.734308,115.050504 L281.019192,104.149057 C287.638915,99.5961005 287.657151,92.3284698 281.092136,87.839639 Z" id="Path" fill-opacity="0.184413243" fill="#BAA287"></path>
                        <path d="M249.04,106.84 C249.04,138.28 201.04,163.72 142.16,163.72 C83.28,163.72 35.28,138.28 35.28,106.84 C35.28,75.4 83.28,50.04 142.16,50.04 C201.04,50.04 249.04,75.48 249.04,106.84 Z" id="Path" fill="#DC4E14"></path>
                        <path d="M29.92,87.72 C30.0700842,99.3483007 33.0346091,110.767212 38.56,121 C46.56,132.68 237.28,133.96 244.96,122.6 C250.381066,111.768371 253.590176,99.9653767 254.4,87.88 L29.92,87.72 Z" id="Path" fill="#E59B1A" fill-rule="nonzero"></path>
                        <ellipse id="Oval" fill="#EE7E00" cx="142.16" cy="87.72" rx="112.24" ry="59.68"></ellipse>
                        <g id="Group-10" transform="translate(5.000000, 28.000000)">
                            <path d="M2.02310437,29.0802453 C17.1440937,26.8740301 29.4322427,27.0946516 14.405056,27.9109512 C10.2964993,28.1315727 -1.57891791,46.9947126 2.66096248,48.4066903 C7.63250365,50.0613517 15.6432511,48.6273118 18.457331,45.8033564 C33.4657572,30.7349066 16.5812778,51.2527079 12.8291712,59.6583878 C10.709231,64.3576261 7.2010114,65.7475417 7.44489832,66.6300278 C8.2891223,68.836243 30.6329168,57.805167 33.5220388,53.3927366 C39.8068173,44.1707571 34.6289102,47.9875094 24.7796306,58.7538395 C21.59034,62.2396595 15.5869695,67.5787003 16.2435882,69.4319211 C16.693841,70.6674016 34.1411364,68.8583051 39.3190434,65.350423 C52.4514163,56.5255622 44.3843872,62.6588404 30.0325797,70.7997745 C21.6278611,75.5651993 16.6187988,79.448138 17.9883177,80.4409348 C20.4084264,82.1838448 38.9063117,79.7790703 34.8727972,74.0649729 C33.8784889,72.6309331 37.9120035,103.650319 40.0882253,100.539555 C44.0171846,94.3698691 47.4465529,87.7813313 50.3314761,80.8601157 C54.0835827,81.6102289 46.7294538,98.9290181 48.849394,97.2302324 C67.8725742,81.7867261 52.9579507,105.437353 57.7794076,102.481025 C78.0220224,90.192406 106.688116,73.5575435 125.655015,61.6660436 C130.026219,58.9303368 138.112009,53.7898554 139.181359,49.2671142 C140.006823,45.7812942 141.638989,42.4719714 142.183044,38.4125355 C142.501973,36.0518852 143.177353,25.6606117 143.44,26.0356683 C125.955184,3.24546539 111.359489,7.21665273 85.6012776,13.3058067 C63.745257,18.4683502 48.7743519,17.0343103 27.2935419,14.8942816 C14.6677034,13.6367389 0.147051096,14.7177844 2.02310437,29.0802453 Z" id="Path" fill="#469136"></path>
                            <path d="M2.14656734,28.928732 C5.90112335,13.8399667 16.8268813,19.5450619 10.8195917,27.0123487 C8.22894807,30.2283483 -2.62171878,40.9556894 0.588426601,46.0219902 C2.4657046,49.0177158 4.21157315,49.2159624 7.02749015,46.3964559 C22.0457142,31.3517454 12.9784614,50.3173321 9.18635986,58.7317968 C1.67724784,75.4065345 12.4528236,61.5292759 16.4889713,55.6039068 C22.7966254,46.3964559 31.0378758,47.1894421 21.1821663,57.9167832 C15.8506968,63.709988 10.1062261,74.877877 23.0594443,66.0889466 C36.0126625,57.3000162 40.7058575,61.8156321 26.3634536,69.9437406 C7.14012683,80.8032461 19.9994812,85.1646703 31.2631492,73.203795 C32.4270615,71.9702609 38.959989,115.055845 41.6257238,95.4294361 C42.3578622,89.9886697 35.9938897,79.1952463 42.8835,80.5829722 C46.638056,81.3098762 47.3701944,107.390311 49.9232925,93.4249432 C54.2410319,69.8996858 54.0533041,106.905709 57.901724,102.346038 C71.6058535,86.2219852 103.144124,72.587028 122.142177,60.7362897 C126.516235,57.9828654 134.607303,52.8504825 135.677352,48.3348666 C136.503354,44.8545383 138.136586,41.5504291 138.680997,37.4973885 C139.000134,35.1404573 139.675954,24.7655544 139.92,25.1620475 C122.442542,2.34166679 107.837319,6.3506526 82.0435192,12.4302135 C60.1920032,17.5846238 45.2113247,16.1528432 23.6977188,14.0161859 C11.0636379,12.7826518 0.26928934,14.5888982 2.14656734,28.928732 Z" id="Path" fill="#53A841"></path>
                            <path d="M12.8054022,18.1633503 C29.7747573,15.5725662 39.6423999,20.1445382 50.8930076,21.2548742 C55.0605915,21.6685288 59.7327708,20.5799641 63.7321563,20.8194483 C66.6102187,20.9936187 70.5161606,19.83974 64.9095454,21.3201881 C49.4352877,25.369649 35.4374386,21.8426992 20.7854844,24.8035953 C14.7116513,26.0227878 8.69388441,34.8837049 11.1047289,30.0069348 C12.5250714,27.1113526 15.6460872,19.7091123 12.8054022,18.1633503 Z" id="Path" fill="#5EBC4A"></path>
                            <path d="M16.72,39.6723135 C23.5809289,35.6085602 30.9854833,35.1087403 35.9156043,33.8483249 C45.7196092,31.327494 55.7110712,28.6328127 65.3651105,25.4165802 C76.4625693,21.7222591 55.9922569,29.4151395 53.611552,30.4147794 C44.0137499,34.3698761 38.7649518,35.9997236 29.335861,40.5850281 C27.4612903,41.4542801 18.7820278,46.9740305 17.4323369,47.3 C16.3075944,44.9964821 18.6695536,41.1717732 16.72,39.6723135 Z" id="Path" fill="#5EBC4A"></path>
                            <path d="M26.1128233,48.8198988 C33.375798,44.9400586 40.5631168,43.7650213 45.4807559,42.1687442 C47.6558656,41.4814582 49.6985772,40.1955683 51.9304288,39.3752592 C54.1622804,38.5549502 56.1293361,37.7346411 52.7248167,39.796499 C46.9560477,43.2994405 41.2440207,47.1792807 35.5887356,50.5270285 L24.7888435,56.9343075 C23.7674877,57.5994229 28.4203309,50.8152452 26.1128233,48.8198988 Z" id="Path" fill="#5EBC4A"></path>
                            <path d="M41.36,80.1855302 C44.5055319,77.478087 48.0068085,75.7831835 51.2085106,72.8996463 L73.6765957,53.4412737 L80.96,47.3 L76.5412766,51.7023467 L48.4561702,80.1855302 C42.7829787,85.9526044 47.5387234,78.9748848 41.36,80.1855302 Z" id="Path" fill="#5EBC4A"></path>
                            <path d="M53.8687996,84.5398283 C56.4280534,82.7955161 61.1756546,80.6151258 63.2898208,78.4347356 C67.6423159,74.1862497 72.2885619,70.3718865 77.1802634,67.0312946 C84.8580248,61.4058878 68.3341471,76.4069726 66.0530731,79.24148 C63.9320316,82.2997452 62.0687459,85.5930709 60.4894779,89.07504 C58.449493,93.2613892 58.097132,93.2395853 56.9658676,88.857001 C56.6505972,87.1562966 52.7931712,84.4526127 53.8687996,84.5398283 Z" id="Path" fill="#5EBC4A"></path>
                            <path d="M32.5695922,72.8883293 C37.6367111,67.6680419 45.5622047,66.1956531 49.8683277,60.5514963 C52.6895807,56.7812887 57.997991,55.6212249 61.4317529,53.8588202 C64.8655148,52.0964154 58.8146695,56.714362 58.2207215,57.2497761 C51.5182719,63.0405094 45.2571956,69.535639 39.5113595,76.6585368 C37.8223198,78.6663396 37.209811,80.8972317 35.9105497,76.1677406 C35.4836496,74.8068964 32.3654226,72.8437114 32.5695922,72.8883293 Z" id="Path" fill="#5EBC4A"></path>
                            <path d="M276.221733,24.1257265 C262.216665,24.1257265 251.035048,25.7270488 264.797038,24.5863808 C268.536709,24.2792779 281.120703,39.6344232 277.39973,41.4112329 C273.005616,43.6048251 265.563671,43.2099785 262.740219,41.0383222 C247.669344,29.4780914 264.965323,45.6668018 269.191152,52.6862968 C271.547144,56.6128268 274.950245,57.40252 274.800658,58.236085 C274.258406,60.4296772 252.848789,53.2127589 249.819655,49.7688192 C243.256532,42.3325416 248.323787,45.0964678 258.29001,53.4540541 C261.524826,56.1741084 267.489601,60.1883821 267.059539,61.9213199 C266.760365,63.0839238 250.679779,63.6323218 245.631223,61.1535626 C232.878945,54.879889 240.769651,59.376753 254.606434,64.8387975 C262.702822,68.0414421 267.695283,70.893112 266.461192,71.9460362 C264.423071,73.8105896 247.332774,73.9422051 250.436701,68.370481 C251.203333,66.966582 250.436701,95.1103698 248.099406,92.4999951 C243.929961,87.5102592 240.173458,82.0677002 236.880393,76.2454769 C233.570784,77.3642089 241.816759,91.9077252 239.722543,90.6354417 C221.024187,79.2945701 236.730806,98.4665658 232.056217,96.4265251 C212.497737,87.8495796 184.82417,76.6841954 166.424988,68.348545 C162.19916,66.4401198 154.345851,62.8645646 152.962172,58.9599705 C151.542486,55.9596286 150.293212,52.8525939 149.222501,49.6591396 C148.698947,47.5971629 147.146984,38.4279475 146.96,38.8008582 C160.796783,16.2726664 174.48398,18.0494761 198.548764,20.2869401 C218.94867,22.1734294 232.467581,19.0585285 251.876474,14.4958567 C263.30117,11.9951616 276.670494,11.0738529 276.221733,24.1257265 Z" id="Path" fill="#469136"></path>
                            <path d="M276.502578,24.1166414 C271.730414,11.1151238 262.242227,17.5502183 268.399256,23.459999 C271.056696,25.999016 281.948461,34.2070447 279.478163,39.131862 C278.018443,42.0210881 276.46515,42.4369616 273.63928,40.2481539 C258.536782,28.7350256 268.567685,44.4944408 272.797133,51.4986254 C281.199886,65.4413303 270.064835,54.4097396 265.854101,49.6381389 C259.266642,42.1961928 251.837037,43.9034627 261.811797,52.2647081 C267.201536,56.7736519 273.452136,65.9885322 260.782506,59.7723184 C248.112877,53.5561046 244.27643,58.1744888 258.125065,63.6246199 C276.652293,70.9352376 265.311384,76.4072567 253.933046,67.1486003 C252.772755,66.1855249 250.751603,105.38707 246.447298,88.2049301 C245.268292,83.4552175 250.040457,73.0802691 243.939572,75.0720841 C240.627128,76.188376 242.292707,99.4991777 238.680833,87.3731832 C232.598663,66.9734957 236.154393,99.8931631 232.224375,96.3035185 C218.469312,83.6959863 188.357888,75.4879575 169.942946,67.2361526 C165.713498,65.3318899 157.853462,61.7422453 156.468599,57.8680557 C155.055254,54.8697346 153.805144,51.7700563 152.725725,48.5875112 C152.220437,46.530032 150.667144,37.3589278 150.48,37.6434728 C164.328635,15.1425299 178.027555,16.9154641 202.112951,19.169936 C222.511616,21.0523106 236.060821,17.9223156 255.486339,13.3695957 C266.902106,10.8086907 276.951723,11.0932357 276.502578,24.1166414 Z" id="Path" fill="#53A841"></path>
                            <path d="M265.987548,15.6291019 C250.121573,15.3723241 241.455442,20.6148714 231.191435,22.9686682 C227.431725,23.8245943 222.995268,23.4394275 219.348349,24.1241684 C216.697754,24.637724 212.99444,24.1241684 218.295631,24.7019185 C232.920901,26.4137707 245.478332,21.5991864 259.257668,22.4337144 C264.897232,22.7760848 271.326336,29.8374751 268.656942,25.8360206 C267.077864,23.4608257 263.50614,17.3195559 265.987548,15.6291019 Z" id="Path" fill="#5EBC4A"></path>
                            <path d="M264.629677,36.0382421 C257.963394,33.2849349 251.128106,33.7366494 246.508654,33.1988941 C237.269749,32.1664039 227.86184,31.0478728 218.698048,29.3055456 C208.182221,27.3911366 227.617722,31.7146894 229.965005,32.3169754 C239.147575,34.6615885 244.123814,35.4789766 253.193715,38.3828553 C254.921315,38.9421209 263.465424,42.6848979 264.723568,42.9 C265.512255,40.7059583 262.97719,37.6299979 264.629677,36.0382421 Z" id="Path" fill="#5EBC4A"></path>
                            <path d="M256.618518,45.1979144 C249.62989,42.5617177 242.962362,42.4026369 238.31587,41.6072327 C236.257058,41.2436194 234.273799,40.3118602 232.158323,39.8573435 C230.042846,39.4028269 228.172916,38.8801327 231.478348,40.334586 C237.144803,42.8117019 242.641263,45.652431 248.137724,48.0159177 L258.582888,52.5610843 C259.583962,52.9474235 254.710811,47.3114168 256.618518,45.1979144 Z" id="Path" fill="#5EBC4A"></path>
                            <path d="M245.52,74.6156693 C242.360325,72.5593635 238.973607,71.4096012 235.738251,69.2869629 L213.223201,54.5611603 L205.92,49.94 L210.42301,53.3892871 L238.992527,75.5001019 C244.744271,79.9664865 239.711495,74.2840071 245.52,74.6156693 Z" id="Path" fill="#5EBC4A"></path>
                            <path d="M234.772623,80.3986736 C231.561953,79.2352077 228.437018,77.7769425 225.427724,76.0378332 C220.971295,72.7714181 216.292967,69.9275608 211.438693,67.5341944 C203.755109,63.4568087 220.53817,74.8386021 222.879115,77.1280433 C225.145366,79.5930528 227.18849,82.3180861 228.976898,85.2610106 C231.280085,88.7496829 231.601021,88.6842703 232.242893,84.6286888 C232.450557,83.146003 235.773188,80.1806316 234.772623,80.3986736 Z" id="Path" fill="#5EBC4A"></path>
                            <path d="M252.550779,67.7534687 C247.451511,63.7703093 240.052936,63.5502452 235.621208,58.9509065 C232.709989,55.9800417 227.759063,55.6059328 224.495531,54.5496253 C221.232,53.4933179 227.147151,56.7502659 227.814692,57.190394 C234.422676,61.4444277 240.707487,66.370296 246.598542,71.9126793 C248.323022,73.4751341 249.083277,75.367685 249.843531,71.0324231 C250.066045,69.8220708 252.736207,67.6874495 252.550779,67.7534687 Z" id="Path" fill="#5EBC4A"></path>
                            <path d="M196.299341,116.917167 C191.125571,103.953053 184.86456,94.3565276 191.4255,106.572289 C193.300054,109.917866 178.64104,128.428596 175.02315,125.787351 C170.749167,122.661877 168.349737,115.662576 170.01809,112.074884 C178.884732,92.9478633 165.031776,116.212835 157.795997,123.278167 C153.74696,127.240036 154.046888,130.717676 152.90341,130.893759 C150.016597,131.333966 151.028856,108.355129 154.215598,103.997074 C161.095212,94.5986418 159.520587,100.519434 152.753446,113.483548 C150.46649,117.687531 147.729641,125.016987 145.386448,125.391164 C143.830568,125.633278 137.138409,111.040396 138.35687,105.251666 C141.46863,90.6367734 138.788017,99.9691746 137.082173,115.200358 C136.088659,124.136572 134.345323,129.947312 132.601988,129.353032 C129.490228,128.296534 122.929288,112.581122 131.083599,112.933288 C133.145609,112.933288 97.5290785,124.906935 99.7972891,121.737441 C104.797914,115.358817 110.233404,109.469849 116.049674,104.129136 C113.406553,101.575932 98.2414091,115.728607 99.0474675,113.241434 C106.264501,90.790846 88.1000708,113.989787 88.9061291,108.839358 C92.3553089,86.7849568 96.1044173,56.1465076 99.6473248,35.4567502 C100.453383,30.6804977 102.028009,21.8103145 106.39572,18.7728821 C109.769918,16.4397818 112.544258,13.556422 116.668277,11.1572905 C119.067707,9.74862619 130.015103,4.18 129.452737,4.18 C162.91353,6.82124562 165.781598,20.2695879 171.967627,43.5125494 C177.197633,63.1898293 186.176748,74.3270816 199.167409,90.152545 C206.703117,99.4849462 212.832909,111.524624 196.299341,116.917167 Z" id="Path" fill="#469136"></path>
                            <path d="M196.69743,116.109581 C211.278721,105.854082 199.60993,99.978078 194.480172,108.340931 C192.262914,111.950162 185.986946,125.682846 178.865413,125.616824 C174.675171,125.616824 173.585332,124.340388 175.257671,120.731157 C184.145494,101.628641 168.023396,117.980219 160.770331,125.132659 C146.358153,139.173448 156.091541,123.922246 160.526057,117.870181 C167.440896,108.450968 162.405089,102.464926 155.696944,115.317311 C152.032831,122.337705 142.750411,132.263091 145.832024,117.760144 C148.913637,103.257197 141.698153,101.804701 140.007024,117.055904 C137.714604,137.434855 126.590733,129.44613 133.99412,114.855153 C134.764523,113.358642 84.5943593,129.18204 104.662425,117.518061 C110.299522,114.282958 125.087507,114.018868 120.220813,109.309261 C117.571377,106.75639 88.7846015,118.816504 102.708231,110.013501 C126.196136,95.1804415 85.9848432,113.314627 89.047666,108.076841 C99.8521021,89.4364821 98.9877472,57.8997244 102.482747,37.2126677 C103.271941,32.4590461 104.850328,23.5900207 109.247264,20.5529847 C112.629522,18.220189 115.41049,15.3372056 119.544361,12.9163798 C121.949523,11.5299068 132.904281,5.96200751 132.359362,5.94 C165.90009,8.60290836 168.775009,22.0274877 174.975816,45.2674153 C180.218316,64.9641342 189.218881,76.0779253 202.221785,91.9233304 C209.869447,101.254513 213.270495,110.717742 196.69743,116.109581 Z" id="Path" fill="#53A841"></path>
                            <path d="M203.28,102.474267 C197.665885,87.9007407 187.785041,82.3947008 180.973248,74.070093 C178.446896,71.0111819 177.230504,66.7942546 175.078427,63.8008916 C173.450333,61.6159552 172.776639,57.9889607 173.955604,63.101712 C177.193077,77.2164015 188.02832,86.4586826 192.070483,99.4153558 C193.736004,104.76845 187.017779,113.814087 191.153511,109.553461 C193.698576,107.062633 200.21095,100.98851 203.28,102.474267 Z" id="Path" fill="#5EBC4A"></path>
                            <path d="M177.537027,110.884842 C178.634458,103.476267 175.38136,97.3282544 174.283929,92.8167635 C171.976913,83.7822054 170.105918,74.6130592 168.679195,65.349745 C167.189825,54.7344722 168.933955,74.6823391 169.03194,77.1150057 C169.482671,86.6687513 170.305744,91.6446604 169.933401,101.441673 C169.933401,103.299345 167.973704,112.941552 168.38524,114.18 C171.618741,113.870388 174.793451,110.110812 177.537027,110.884842 Z" id="Path" fill="#5EBC4A"></path>
                            <path d="M162.698752,107.278213 C163.29166,99.6569775 161.117664,93.4355605 160.398987,88.8139365 C160.075583,86.7475373 160.398987,84.5033833 160.237285,82.3481067 C160.075583,80.1928302 159.967781,78.2375277 159.428774,81.9259392 C158.548395,88.1917948 157.218844,94.5687472 156.410333,100.679067 L154.883145,112.299785 C154.73941,113.410753 159.554542,106.433878 162.698752,107.278213 Z" id="Path" fill="#5EBC4A"></path>
                            <path d="M121.770725,110.66 C123.163527,106.851314 123.354322,103.219776 124.823442,99.3003728 L135.030965,71.9974091 L138.16,63.14 L135.469793,68.8087418 L118.164703,105.079832 C114.768555,112.365051 119.977254,105.168406 121.770725,110.66 Z" id="Path" fill="#5EBC4A"></path>
                            <path d="M110.814974,103.372537 C111.371655,100.501493 111.520104,95.5383685 112.819027,92.7563483 C115.204593,87.4135717 117.072357,81.7607981 118.38584,75.9084339 C120.705345,67.0059691 112.61491,87.6819434 110.629414,90.8868307 C108.217152,94.2632083 105.566148,97.3832578 102.705983,100.212163 C99.1617785,103.928942 99.365895,104.196015 104.672924,102.94967 C106.528528,102.593572 111.44588,104.196015 110.814974,103.372537 Z" id="Path" fill="#5EBC4A"></path>
                            <path d="M133.821984,114.18 C136.858257,107.523184 134.3774,100.511338 138.320852,94.3426888 C140.912792,90.2376523 139.524253,85.4669343 139.727905,81.7834962 C139.931558,78.1000581 137.876519,85.2894192 137.728408,86.0882371 C135.506745,93.610439 130.433948,103.196254 126.41644,110.496562 C125.12047,112.715501 123.065431,114.401894 128.712159,113.159288 C130.449023,113.183534 132.172444,113.527795 133.821984,114.18 L133.821984,114.18 Z" id="Path" fill="#5EBC4A"></path>
                            <path d="M261.799559,12.4922329 C260.53759,16.0004461 258.239675,20.2809075 261.554699,24.473112 C263.028338,26.4473756 264.345941,28.5742696 265.49129,30.8276114 C267.03579,33.7842188 267.129967,34.8874305 265.114583,35.9906422 C264.153979,35.3949079 264.417674,35.0860086 263.231046,34.9977517 C261.611205,34.9977517 252.287701,32.2617867 256.67634,39.6312409 C257.460125,40.5963421 257.869039,41.897659 257.806462,43.227711 C255.489713,46.7579885 257.97598,44.2426658 256.450316,44.2426658 C255.282524,44.2426658 253.625012,43.3821607 252.268866,43.3821607 C250.912719,43.3821607 249.255208,42.6099125 247.691873,42.6761052 C246.448739,44.6177578 243.9248,47.3316586 245.808336,50.5971652 C246.222714,51.3252849 249.255208,52.6050105 248.8785,53.3331303 C248.238098,54.5466631 239.121783,53.8626719 242.09777,56.9516647 C243.981306,58.8933173 246.976129,60.3936852 246.298056,64.0122196 L245.431629,63.7253845 C228.479803,57.9004267 244.866568,74.4044739 236.315314,68.7780941 C233.584186,66.9688269 228.536309,64.5858897 228.931852,69.7930489 C229.798278,80.6927806 231.286272,78.6187426 221.699072,72.9482344 C216.990232,70.1902051 220.681963,81.2223222 217.366939,83.9803515 C212.940629,87.5988859 158.61855,70.2239038 162.8,62.7 C171.65262,46.681366 125.415246,12.2424382 138.6,1.1 C145.531413,-4.70289358 246.881952,18.5819615 253.304811,14.1911789 C254.821022,13.8086032 256.298409,13.2391158 257.712285,12.4922329 C259.038137,11.9692557 260.473708,11.9692557 261.799559,12.4922329 Z" id="Path" fill="#469136"></path>
                            <g id="Path-Copy-33-+-Path-Copy-32-+-Path-Copy-31-+-Path-Copy-30-+-Path-Copy-29-+-Path-Copy-28-Mask" transform="translate(136.217239, 0.165109)">
                                <mask id="mask-2" fill="white">
                                    <use xlink:href="#path-1"></use>
                                </mask>
                                <use id="Mask" fill="#469136" xlink:href="#path-1"></use>
                                <path d="M131.970309,13.2639925 C116.104334,13.0072147 70.6425722,12.2478435 60.3785648,14.6016402 C56.6188551,15.4575663 52.1823976,15.0723996 48.5354792,15.7571405 C45.8848839,16.2706961 42.1815699,15.7571405 47.4827605,16.3348906 C62.1080312,18.0467428 111.461092,19.234077 125.240428,20.0686049 C130.879993,20.4109754 137.309096,27.4723656 134.639703,23.4709111 C133.060624,21.0957162 129.4889,14.9544465 131.970309,13.2639925 Z" id="Path-Copy-33" fill="#45A232" mask="url(#mask-2)"></path>
                                <path d="M130.612437,33.6731327 C123.946154,30.9198255 117.110867,31.37154 112.491414,30.8337846 C103.252509,29.8012944 57.0489693,22.6808449 47.8851774,20.9385177 C37.3693507,19.0241087 56.8048519,23.3476615 59.1521347,23.9499474 C68.3347048,26.2945606 110.106575,33.1138672 119.176476,36.0177459 C120.904076,36.5770114 129.448185,40.3197884 130.706328,40.5348906 C131.495015,38.3408489 128.95995,35.2648885 130.612437,33.6731327 Z" id="Path-Copy-32" fill="#45A232" mask="url(#mask-2)"></path>
                                <path d="M122.601278,42.8328049 C115.612651,40.1966083 72.1494922,34.0356089 67.5029995,33.2402048 C65.4441878,32.8765914 63.4609287,31.9448323 61.3454524,31.4903156 C59.2299761,31.0357989 57.3600461,30.5131048 60.6654779,31.9675581 C66.3319323,34.4446739 108.624024,43.2873216 114.120485,45.6508083 L124.565649,50.1959749 C125.566723,50.5823141 120.693572,44.9463074 122.601278,42.8328049 Z" id="Path-Copy-31" fill="#45A232" mask="url(#mask-2)"></path>
                                <path d="M111.502761,72.2505599 C108.343085,70.1942541 104.956368,69.0444917 101.721012,66.9218535 L42.4103309,46.1941324 L35.1071298,41.5729721 L39.6101398,45.0222592 L104.975288,73.1349925 C110.727032,77.601377 105.694256,71.9188976 111.502761,72.2505599 Z" id="Path-Copy-30" fill="#45A232" mask="url(#mask-2)"></path>
                                <path d="M100.755383,78.0335642 C97.5447132,76.8700983 94.4197785,75.411833 91.4104842,73.6727238 C86.9540551,70.4063086 45.4800968,61.5605329 40.6258224,59.1671665 C32.9422386,55.0897808 86.5209309,72.4734927 88.8618753,74.7629339 C91.1281267,77.2279434 93.1712507,79.9529767 94.959658,82.8959012 C97.2628453,86.3845735 97.5837813,86.3191609 98.2256531,82.2635793 C98.4333176,80.7808936 101.755948,77.8155221 100.755383,78.0335642 Z" id="Path-Copy-29" fill="#45A232" mask="url(#mask-2)"></path>
                                <path d="M118.53354,65.3883593 C113.434271,61.4051998 106.035696,61.1851358 101.603968,56.585797 C98.6927498,53.6149323 56.9461929,47.2389049 53.6826611,46.1825974 C50.4191293,45.1262899 56.3342807,48.383238 57.0018213,48.8233661 C63.6098062,53.0773998 106.690247,64.0051865 112.581303,69.5475699 C114.305783,71.1100247 115.066037,73.0025756 115.826292,68.6673137 C116.048805,67.4569614 118.718968,65.32234 118.53354,65.3883593 Z" id="Path-Copy-28" fill="#45A232" mask="url(#mask-2)"></path>
                                <path d="M129.770309,14.3639925 C113.904334,14.1072147 68.4425722,13.3478435 58.1785648,15.7016402 C54.4188551,16.5575663 49.9823976,16.1723996 46.3354792,16.8571405 C43.6848839,17.3706961 39.9815699,16.8571405 45.2827605,17.4348906 C59.9080312,19.1467428 109.261092,20.334077 123.040428,21.1686049 C128.679993,21.5109754 135.109096,28.5723656 132.439703,24.5709111 C130.860624,22.1957162 127.2889,16.0544465 129.770309,14.3639925 Z" id="Path-Copy-39" fill="#3A832A" mask="url(#mask-2)"></path>
                                <path d="M128.412437,34.7731327 C121.746154,32.0198255 114.910867,32.47154 110.291414,31.9337846 C101.052509,30.9012944 54.8489693,23.7808449 45.6851774,22.0385177 C35.1693507,20.1241087 54.6048519,24.4476615 56.9521347,25.0499474 C66.1347048,27.3945606 107.906575,34.2138672 116.976476,37.1177459 C118.704076,37.6770114 127.248185,41.4197884 128.506328,41.6348906 C129.295015,39.4408489 126.75995,36.3648885 128.412437,34.7731327 Z" id="Path-Copy-38" fill="#3A832A" mask="url(#mask-2)"></path>
                                <path d="M120.401278,43.9328049 C113.412651,41.2966083 69.9494922,35.1356089 65.3029995,34.3402048 C63.2441878,33.9765914 61.2609287,33.0448323 59.1454524,32.5903156 C57.0299761,32.1357989 55.1600461,31.6131048 58.4654779,33.0675581 C64.1319323,35.5446739 106.424024,44.3873216 111.920485,46.7508083 L122.365649,51.2959749 C123.366723,51.6823141 118.493572,46.0463074 120.401278,43.9328049 Z" id="Path-Copy-37" fill="#3A832A" mask="url(#mask-2)"></path>
                                <path d="M109.302761,73.3505599 C106.143085,71.2942541 102.756368,70.1444917 99.5210118,68.0218535 L40.2103309,47.2941324 L32.9071298,42.6729721 L37.4101398,46.1222592 L102.775288,74.2349925 C108.527032,78.701377 103.494256,73.0188976 109.302761,73.3505599 Z" id="Path-Copy-36" fill="#3A832A" mask="url(#mask-2)"></path>
                                <path d="M98.5553834,79.1335642 C95.3447132,77.9700983 92.2197785,76.511833 89.2104842,74.7727238 C84.7540551,71.5063086 43.2800968,62.6605329 38.4258224,60.2671665 C30.7422386,56.1897808 84.3209309,73.5734927 86.6618753,75.8629339 C88.9281267,78.3279434 90.9712507,81.0529767 92.759658,83.9959012 C95.0628453,87.4845735 95.3837813,87.4191609 96.0256531,83.3635793 C96.2333176,81.8808936 99.5559484,78.9155221 98.5553834,79.1335642 Z" id="Path-Copy-35" fill="#3A832A" mask="url(#mask-2)"></path>
                                <path d="M116.33354,66.4883593 C111.234271,62.5051998 103.835696,62.2851358 99.4039685,57.685797 C96.4927498,54.7149323 54.7461929,48.3389049 51.4826611,47.2825974 C48.2191293,46.2262899 54.1342807,49.483238 54.8018213,49.9233661 C61.4098062,54.1773998 104.490247,65.1051865 110.381303,70.6475699 C112.105783,72.2100247 112.866037,74.1025756 113.626292,69.7673137 C113.848805,68.5569614 116.518968,66.42234 116.33354,66.4883593 Z" id="Path-Copy-34" fill="#3A832A" mask="url(#mask-2)"></path>
                            </g>
                            <path d="M93.3126163,92.2774161 C97.357756,93.0718383 101.496533,90.86511 105.03603,92.4760217 C107.077328,93.4028476 109.624267,91.880205 111.646837,91.880205 C115.392337,91.880205 109.867725,100.309907 114.530872,98.5003902 C118.069,96.5746011 121.432198,94.2308253 124.568811,91.5050612 C127.003386,89.2983328 123.744801,89.5190057 126.591381,91.5050612 C127.752486,92.3215507 124.044441,98.4341883 124.044441,100.133369 C124.044441,101.83255 128.482858,97.9266408 128.969773,97.5294297 C130.715568,96.0912516 132.601874,94.9058105 134.588022,93.9986643 C137.284782,93.6897223 136.460772,93.2483766 136.460772,96.2053926 C136.460772,97.0660167 135.000027,101.700146 135.618035,102.406299 C136.236042,103.112452 139.962814,98.9638031 140.356092,98.412121 C141.929202,96.2053926 144.101592,93.3366458 146.142889,95.8081815 C147.54186,98.1560451 148.522914,100.813371 149.026924,103.62 C153.577706,100.640917 157.398115,96.1833254 161.068705,93.9986643 C162.941455,92.8732328 162.435812,95.8743834 162.435812,97.4190933 C162.435812,98.9638031 163.57819,100.883657 163.016365,101.258801 C165.207482,99.5154852 164.889115,100.640917 166.349859,98.2135155 C167.417327,96.5143346 171.462466,89.6514094 173.466309,90.9975137 C175.769791,92.5201563 175.114329,99.184476 176.781076,101.457406 C178.241821,104.458557 182.399325,94.991692 183.316973,93.8000587 C185.43318,90.8430427 188.27976,85.9882402 192.156352,85.9882402 C194.684564,85.9882402 194.310014,87.3564118 196.051672,88.1949686 C205.415421,92.7408291 191.544898,74.0751438 192.5,73.7 C188.473588,62.6663581 176.006847,12.3561969 166.1,7.7 C146.548492,-1.45792278 123.676958,-1.83643079 104.5,8.8 C94.9302484,14.16235 93.1440689,80.6700249 93.3126163,92.2774161 Z" id="Path" fill="#3A832A"></path>
                            <path d="M93.3126163,92.2774161 C97.357756,93.0718383 101.496533,90.86511 105.03603,92.4760217 C107.077328,93.4028476 109.624267,91.880205 111.646837,91.880205 C115.392337,91.880205 109.867725,100.309907 114.530872,98.5003902 C118.069,96.5746011 121.432198,94.2308253 124.568811,91.5050612 C127.003386,89.2983328 123.744801,89.5190057 126.591381,91.5050612 C127.752486,92.3215507 124.044441,98.4341883 124.044441,100.133369 C124.044441,101.83255 128.482858,97.9266408 128.969773,97.5294297 C130.715568,96.0912516 132.601874,94.9058105 134.588022,93.9986643 C137.284782,93.6897223 136.460772,93.2483766 136.460772,96.2053926 C136.460772,97.0660167 135.000027,101.700146 135.618035,102.406299 C136.236042,103.112452 139.962814,98.9638031 140.356092,98.412121 C141.929202,96.2053926 144.101592,93.3366458 146.142889,95.8081815 C147.54186,98.1560451 148.522914,100.813371 149.026924,103.62 C153.577706,100.640917 157.398115,96.1833254 161.068705,93.9986643 C162.941455,92.8732328 162.435812,95.8743834 162.435812,97.4190933 C162.435812,98.9638031 163.57819,100.883657 163.016365,101.258801 C165.207482,99.5154852 164.889115,100.640917 166.349859,98.2135155 C167.417327,96.5143346 171.462466,89.6514094 173.466309,90.9975137 C175.769791,92.5201563 175.114329,99.184476 176.781076,101.457406 C178.241821,104.458557 182.399325,94.991692 183.316973,93.8000587 C185.43318,90.8430427 188.27976,85.9882402 192.156352,85.9882402 C194.684564,85.9882402 194.310014,87.3564118 196.051672,88.1949686 C205.415421,92.7408291 188.448307,75.4621459 189.40341,75.0870021 C185.376998,64.0533602 169.406847,12.3561969 159.5,7.7 C139.948492,-1.45792278 123.676958,-1.83643079 104.5,8.8 C94.9302484,14.16235 93.1440689,80.6700249 93.3126163,92.2774161 Z" id="Path-Copy-4" fill="#469136"></path>
                            <g id="Path-Copy-21-+-Path-Copy-20-+-Path-Copy-19-+-Path-Copy-18-+-Path-Copy-17-+-Path-Copy-3-Mask" transform="translate(85.602144, 0.824650)">
                                <mask id="mask-4" fill="white">
                                    <use xlink:href="#path-3"></use>
                                </mask>
                                <use id="Mask" fill="#469136" xlink:href="#path-3"></use>
                                <path d="M117.677856,101.649617 C112.063741,87.0760904 91.9037029,33.8203055 85.0919095,25.4956976 C82.5655575,22.4367866 81.3491658,18.2198593 79.1970882,15.2264963 C77.5689948,13.0415599 76.8953009,9.41456537 78.0742652,14.5273167 C81.3117384,28.6420061 102.426176,85.6340324 106.468339,98.5907055 C108.13386,103.9438 101.415635,112.989437 105.551367,108.728811 C108.096433,106.237983 114.608807,100.16386 117.677856,101.649617 Z" id="Path-Copy-21" fill="#45A232" mask="url(#mask-4)"></path>
                                <path d="M91.9348835,110.060192 C93.0323141,102.651616 89.7792164,96.5036041 88.6817858,91.9921132 C86.374769,82.9575551 74.2245801,26.0386639 72.7978564,16.7753497 C71.3084863,6.16007689 73.0526171,26.1079437 73.1506019,28.5406104 C73.6013323,38.094356 84.7036,90.8200101 84.3312575,100.617022 C84.3312575,102.474695 82.3715601,112.116901 82.7830966,113.35535 C86.0165973,113.045738 89.1913071,109.286162 91.9348835,110.060192 Z" id="Path-Copy-20" fill="#45A232" mask="url(#mask-4)"></path>
                                <path d="M77.0966083,106.453563 C77.6895164,98.8323272 75.51552,92.6109102 74.7968435,87.9892862 C74.4734391,85.922887 64.5176487,35.928988 64.3559465,33.7737114 C64.1942443,31.6184348 64.0864429,29.6631324 63.5474355,33.3515438 C62.6670568,39.6173995 71.6167001,93.7440969 70.8081891,99.8544171 L69.2810016,111.475135 C69.1372663,112.586102 73.9523987,105.609228 77.0966083,106.453563 Z" id="Path-Copy-19" fill="#45A232" mask="url(#mask-4)"></path>
                                <path d="M36.1685816,109.83535 C37.5613838,106.026664 37.7521786,102.395126 39.2212987,98.4757225 L39.1496266,23.4230138 L42.2786616,14.5656047 L39.5884547,20.2343465 L32.5625596,104.255182 C29.1664118,111.540401 34.3751103,104.343756 36.1685816,109.83535 Z" id="Path-Copy-18" fill="#45A232" mask="url(#mask-4)"></path>
                                <path d="M25.2128305,102.547887 C25.7695118,99.6768423 25.9179601,94.7137183 27.2168832,91.931698 C29.6024494,86.5889214 21.191019,33.1864028 22.5045016,27.3340385 C24.8240071,18.4315738 27.0127667,86.8572931 25.02727,90.0621804 C22.6150083,93.438558 19.9640039,96.5586075 17.1038393,99.3875122 C13.5596349,103.104291 13.7637514,103.371365 19.07078,102.12502 C20.9263843,101.768922 25.843736,103.371365 25.2128305,102.547887 Z" id="Path-Copy-17" fill="#45A232" mask="url(#mask-4)"></path>
                                <path d="M52.7187083,93.5180385 C55.3106486,89.413002 43.6429144,36.892539 43.8465668,33.2091009 C44.0502193,29.5256628 52.2743756,84.4647689 52.1262647,85.2635868 C49.9046016,92.7857887 44.831804,102.371604 40.8142964,109.671912 C39.5183262,111.89085 37.4632878,113.577244 43.110015,112.334638 C44.8468789,112.358883 46.5703001,112.703145 48.2198403,113.35535 C51.2561133,106.698534 48.7752561,99.6866878 52.7187083,93.5180385 Z" id="Path-Copy-3" fill="#45A232" mask="url(#mask-4)"></path>
                                <path d="M117.677856,101.649617 C112.063741,87.0760904 91.9037029,33.8203055 85.0919095,25.4956976 C82.5655575,22.4367866 81.3491658,18.2198593 79.1970882,15.2264963 C77.5689948,13.0415599 76.8953009,9.41456537 78.0742652,14.5273167 C81.3117384,28.6420061 102.426176,85.6340324 106.468339,98.5907055 C108.13386,103.9438 101.415635,112.989437 105.551367,108.728811 C108.096433,106.237983 114.608807,100.16386 117.677856,101.649617 Z" id="Path-Copy-27" fill="#45A232" mask="url(#mask-4)"></path>
                                <path d="M95.2348835,110.060192 C96.3323141,102.651616 93.0792164,96.5036041 91.9817858,91.9921132 C89.674769,82.9575551 77.5245801,26.0386639 76.0978564,16.7753497 C74.6084863,6.16007689 76.3526171,26.1079437 76.4506019,28.5406104 C76.9013323,38.094356 88.0036,90.8200101 87.6312575,100.617022 C87.6312575,102.474695 85.6715601,112.116901 86.0830966,113.35535 C89.3165973,113.045738 92.4913071,109.286162 95.2348835,110.060192 Z" id="Path-Copy-26" fill="#3A832A" mask="url(#mask-4)"></path>
                                <path d="M80.3966083,106.453563 C80.9895164,98.8323272 78.81552,92.6109102 78.0968435,87.9892862 C77.7734391,85.922887 67.8176487,35.928988 67.6559465,33.7737114 C67.4942443,31.6184348 67.3864429,29.6631324 66.8474355,33.3515438 C65.9670568,39.6173995 74.9167001,93.7440969 74.1081891,99.8544171 L72.5810016,111.475135 C72.4372663,112.586102 77.2523987,105.609228 80.3966083,106.453563 Z" id="Path-Copy-25" fill="#3A832A" mask="url(#mask-4)"></path>
                                <path d="M39.4685816,109.83535 C40.8613838,106.026664 41.0521786,102.395126 42.5212987,98.4757225 L42.4496266,23.4230138 L45.5786616,14.5656047 L42.8884547,20.2343465 L35.8625596,104.255182 C32.4664118,111.540401 37.6751103,104.343756 39.4685816,109.83535 Z" id="Path-Copy-24" fill="#3A832A" mask="url(#mask-4)"></path>
                                <path d="M28.5128305,102.547887 C29.0695118,99.6768423 29.2179601,94.7137183 30.5168832,91.931698 C32.9024494,86.5889214 24.491019,33.1864028 25.8045016,27.3340385 C28.1240071,18.4315738 30.3127667,86.8572931 28.32727,90.0621804 C25.9150083,93.438558 23.2640039,96.5586075 20.4038393,99.3875122 C16.8596349,103.104291 17.0637514,103.371365 22.37078,102.12502 C24.2263843,101.768922 29.143736,103.371365 28.5128305,102.547887 Z" id="Path-Copy-23" fill="#3A832A" mask="url(#mask-4)"></path>
                                <path d="M56.0187083,93.5180385 C58.6106486,89.413002 46.9429144,36.892539 47.1465668,33.2091009 C47.3502193,29.5256628 55.5743756,84.4647689 55.4262647,85.2635868 C53.2046016,92.7857887 48.131804,102.371604 44.1142964,109.671912 C42.8183262,111.89085 40.7632878,113.577244 46.410015,112.334638 C48.1468789,112.358883 49.8703001,112.703145 51.5198403,113.35535 C54.5561133,106.698534 52.0752561,99.6866878 56.0187083,93.5180385 Z" id="Path-Copy-22" fill="#3A832A" mask="url(#mask-4)"></path>
                            </g>
                            <path d="M21.9866131,21.2577896 C21.6284107,25.6538213 19.1209938,30.6872776 19.1209938,34.9074681 C19.1209938,37.5011268 24.3620607,35.17123 26.8317721,35.17123 C28.8113117,35.17123 25.9079869,47.1064561 27.925232,46.8866545 C31.3941396,46.4910116 33.78844,47.3482378 34.1089369,51.5024878 C35.2589551,66.2511742 38.6713044,62.9321703 46.042733,64.5367219 C47.9280089,64.9543449 47.6640703,74.1420512 51.1141251,72.6693805 C58.4101427,69.6141385 56.7699527,82.6703527 58.2404678,81.461444 C75.6604168,67.6359242 67.5160251,94.8034002 77.5833981,88.6049955 C83.4466061,85.0002495 91.5966386,85.2455357 96.8,80.3 C102.455828,74.9148611 128.718086,37.2411785 125.4,31.9 C119.140884,21.8330874 106.446072,4.4 95.7,4.4 C90.0441724,4.4 26.6998027,12.729488 18.48,14.0263174 C22.8349872,17.1474999 21.9866131,21.2577896 21.9866131,21.2577896 Z" id="Path" fill="#3A832A"></path>
                            <g id="Path-Copy-10-+-Path-Copy-9-+-Path-Copy-8-+-Path-Copy-7-+-Path-Copy-6-+-Path-Copy-5-Mask" transform="translate(18.260000, 4.400000)">
                                <mask id="mask-6" fill="white">
                                    <use xlink:href="#path-5"></use>
                                </mask>
                                <use id="Mask" fill="#469136" xlink:href="#path-5"></use>
                                <path d="M-5.45459782,13.7633503 C11.5147573,11.1725662 33.4823999,9.14453815 44.7330076,10.2548742 C48.9005915,10.6685288 53.5727708,9.57996405 57.5721563,9.8194483 C60.4502187,9.99361866 64.3561606,8.83974002 58.7495454,10.3201881 C43.2752877,14.369649 17.1774386,17.4426992 2.52548437,20.4035953 C-3.54834868,21.6227878 -9.56611559,30.4837049 -7.15527108,25.6069348 C-5.73492858,22.7113526 -2.61391283,15.3091123 -5.45459782,13.7633503 Z" id="Path-Copy-10" fill="#45A232" mask="url(#mask-6)"></path>
                                <path d="M-1.54,35.2723135 C5.32092888,31.2085602 12.7254833,30.7087403 17.6556043,29.4483249 C27.4596092,26.927494 54.5859607,15.3162325 64.24,12.1 C75.3374587,8.40567888 54.8671463,16.0985593 52.4864415,17.0981992 C42.8886394,21.0532959 20.5049518,31.5997236 11.075861,36.1850281 C9.2012903,37.0542801 0.522027806,42.5740305 -0.827663122,42.9 C-1.95240556,40.5964821 0.409553562,36.7717732 -1.54,35.2723135 Z" id="Path-Copy-9" fill="#45A232" mask="url(#mask-6)"></path>
                                <path d="M7.85282327,44.4198988 C15.115798,40.5400586 53.1783001,25.9685223 58.0959392,24.3722452 C60.2710489,23.6849592 62.3137605,22.3990693 64.5456121,21.5787602 C66.7774638,20.7584511 68.7445194,19.9381421 65.34,22 C59.571231,25.5029414 22.9840207,42.7792807 17.3287356,46.1270285 L6.52884349,52.5343075 C5.50748767,53.1994229 10.1603309,46.4152452 7.85282327,44.4198988 Z" id="Path-Copy-8" fill="#45A232" mask="url(#mask-6)"></path>
                                <path d="M23.1,75.7855302 C26.2455319,73.078087 29.7468085,71.3831835 32.9485106,68.4996463 L78.9753191,27.038927 L86.2587234,20.8976533 L81.84,25.3 L30.1961702,75.7855302 C24.5229787,81.5526044 29.2787234,74.5748848 23.1,75.7855302 Z" id="Path-Copy-7" fill="#45A232" mask="url(#mask-6)"></path>
                                <path d="M35.6087996,80.1398283 C38.1680534,78.3955161 42.9156546,76.2151258 45.0298208,74.0347356 C49.3823159,69.7862497 82.4482985,36.3405919 87.34,33 C95.0177613,27.3745932 50.0741471,72.0069726 47.7930731,74.84148 C45.6720316,77.8997452 43.8087459,81.1930709 42.2294779,84.67504 C40.189493,88.8613892 39.837132,88.8395853 38.7058676,84.457001 C38.3905972,82.7562966 34.5331712,80.0526127 35.6087996,80.1398283 Z" id="Path-Copy-6" fill="#45A232" mask="url(#mask-6)"></path>
                                <path d="M14.3095922,68.4883293 C19.3767111,63.2680419 27.3022047,61.7956531 31.6083277,56.1514963 C34.4295807,52.3812887 39.737991,51.2212249 43.1717529,49.4588202 C46.6055148,47.6964154 40.5546695,52.314362 39.9607215,52.8497761 C33.2582719,58.6405094 26.9971956,65.135639 21.2513595,72.2585368 C19.5623198,74.2663396 18.949811,76.4972317 17.6505497,71.7677406 C17.2236496,70.4068964 14.1054226,68.4437114 14.3095922,68.4883293 Z" id="Path-Copy-5" fill="#45A232" mask="url(#mask-6)"></path>
                                <path d="M-2.15459782,19.2633503 C14.8147573,16.6725662 36.4893923,12.089664 47.74,13.2 C51.9075839,13.6136546 55.8406145,12.9605158 59.84,13.2 C62.7180624,13.3741704 66.6240043,12.2202917 61.0173892,13.7007398 C45.5431314,17.7502007 22.7919542,27.8391039 8.14,30.8 C2.06616694,32.0191925 -6.26611559,35.9837049 -3.85527108,31.1069348 C-2.43492858,28.2113526 0.686087174,20.8091123 -2.15459782,19.2633503 Z" id="Path-Copy-16" fill="#3A832A" mask="url(#mask-6)"></path>
                                <path d="M1.76,40.7723135 C8.62092888,36.7085602 16.8285851,33.5917806 21.34,31.9 C30.14,28.6 55.2208502,15.1996523 64.8748895,11.9834198 C75.9723482,8.28909868 56.7207048,19.9003602 54.34,20.9 C44.7421978,24.8550967 23.8049518,37.0997236 14.375861,41.6850281 C12.5012903,42.5542801 3.82202781,48.0740305 2.47233688,48.4 C1.34759444,46.0964821 3.70955356,42.2717732 1.76,40.7723135 Z" id="Path-Copy-15" fill="#3A832A" mask="url(#mask-6)"></path>
                                <path d="M11.1528233,49.9198988 C18.415798,46.0400586 59.3975442,25.5997781 64.3151833,24.003501 C66.4902929,23.316215 73.0081484,20.6203091 75.24,19.8 C77.4718516,18.9796909 67.6445194,25.4381421 64.24,27.5 C58.471231,31.0029414 24.795285,51.6522522 19.14,55 L9.82884349,58.0343075 C8.80748767,58.6994229 13.4603309,51.9152452 11.1528233,49.9198988 Z" id="Path-Copy-14" fill="#3A832A" mask="url(#mask-6)"></path>
                                <path d="M26.4,81.2855302 C29.5455319,78.578087 33.5382979,72.1835371 36.74,69.3 L80.0987234,27.4976533 L87.7987234,18.6976533 L33.4961702,81.2855302 C27.8229787,87.0526044 32.5787234,80.0748848 26.4,81.2855302 Z" id="Path-Copy-13" fill="#3A832A" mask="url(#mask-6)"></path>
                                <path d="M38.9087996,85.6398283 C41.4680534,83.8955161 45.6258338,78.0803902 47.74,75.9 C52.0924951,71.6515141 85.5680351,35.3092973 90.4597366,31.9687054 C98.1374979,26.3432986 53.3741471,77.5069726 51.0930731,80.34148 C48.9720316,83.3997452 47.1087459,86.6930709 45.5294779,90.17504 C43.489493,94.3613892 43.137132,94.3395853 42.0058676,89.957001 C41.6905972,88.2562966 37.8331712,85.5526127 38.9087996,85.6398283 Z" id="Path-Copy-12" fill="#3A832A" mask="url(#mask-6)"></path>
                                <path d="M17.6095922,73.9883293 C22.6767111,68.7680419 30.233877,63.9441569 34.54,58.3 C37.361253,54.5297925 41.0062381,51.2624047 44.44,49.5 C47.8737619,47.7375953 43.8546695,57.814362 43.2607215,58.3497761 C36.5582719,64.1405094 30.2971956,70.635639 24.5513595,77.7585368 C22.8623198,79.7663396 22.249811,81.9972317 20.9505497,77.2677406 C20.5236496,75.9068964 17.4054226,73.9437114 17.6095922,73.9883293 Z" id="Path-Copy-11" fill="#3A832A" mask="url(#mask-6)"></path>
                            </g>
                        </g>
                    </g>
                    <g id="Group-9" transform="translate(16.720000, 0.000000)">
                        <path d="M107.92,1.53664198 L9.80548975e-13,55.536642 C11.9425835,70.8061264 25.4865185,84.7523565 40.4,97.136642 C58.692295,110.593968 78.4437456,121.945685 99.28,130.976642 C125.698776,125.958434 151.53848,118.265493 176.4,108.016642 C201.706899,95.4642752 225.624869,80.287626 247.76,62.736642 C247.76,62.736642 142.32,-11.503358 107.92,1.53664198 Z" id="Path" fill="#F9D100"></path>
                        <path d="M1.13686838e-13,55.536642 C1.13686838e-13,55.536642 30.32,96.336642 63.2,116.016642 C96.08,135.696642 99.84,137.456642 99.84,137.456642 C125.808668,131.59849 151.467503,124.442852 176.72,116.016642 C204.332945,104.292137 228.684472,86.0353557 247.68,62.816642 C247.68,62.816642 191.68,104.656642 153.44,114.256642 L100.4,127.536642 C100.4,127.536642 68.88,109.856642 40.8,90.096642 C26.32,79.936642 1.13686838e-13,55.536642 1.13686838e-13,55.536642 Z" id="Path" fill="#F7C100"></path>
                    </g>
                </g>
            </g>
        </g>
    </g>
</svg>