<svg width="63" height="62" viewBox="0 0 63 62" fill="none" xmlns="http://www.w3.org/2000/svg">
<g id="banan check">
<path id="Path" fill-rule="evenodd" clip-rule="evenodd" d="M45.3069 14.1742C44.4767 15.116 43.8378 16.2047 43.4195 17.3885C41.3793 23.1602 40.4913 30.5081 34.9994 36C23.1225 47.8769 10.8696 36.7208 7.58976 34.5376C7.0981 34.2103 6.53672 34.0056 5.94893 33.9477L3.04944 33.6623C2.52485 33.6107 2.07059 34.0228 2.07059 34.5498L2.07059 36.5906C2.07059 37.0214 2.37383 37.3893 2.79753 37.4665C4.69057 37.8095 9.74746 38.9658 11.5263 41.7611C15.4331 47.9004 26.5551 62.4443 41.9994 47C48.0761 40.9233 53.114 27.6409 49.7881 14.0802C49.6967 13.7069 49.4985 13.3627 49.2271 13.0912C48.3722 12.2364 46.9741 12.2803 46.1756 13.188C45.9077 13.4927 45.6146 13.8256 45.3069 14.1742Z" fill="#FFDF2F"/>
<path id="Path_2" fill-rule="evenodd" clip-rule="evenodd" d="M47.8555 14.4034C50.3042 27.1446 45.846 36.1533 39.9992 42C26.6774 55.3219 16.7607 46.6634 11.1611 41.2632C11.2938 41.4232 11.4166 41.5887 11.5261 41.7611C15.4329 47.9004 26.555 62.4443 41.9992 47C48.0759 40.9233 53.3251 28.5607 49.9992 15C49.9078 14.6268 48.4234 14.3755 47.8555 14.4034Z" fill="#F6CF00"/>
<path id="Path_3" d="M6.68572 34.1065C6.44686 34.0297 6.20089 33.9724 5.94868 33.9475L3.04949 33.6623C2.5249 33.6107 2.07063 34.0228 2.07033 34.5495L2.07063 36.5906C2.07063 37.0214 2.37387 37.3893 2.79758 37.4665C3.57586 37.6074 4.89 37.889 6.2899 38.3626L6.68572 34.1065Z" fill="#262626"/>
<path id="Path_4" d="M45.7159 13.7102L49.9995 15C49.9337 14.695 49.8642 14.3894 49.7886 14.0799C49.6969 13.7069 49.4987 13.3628 49.2272 13.0913C48.3724 12.2364 46.9742 12.2803 46.1758 13.188C46.0298 13.3541 45.8752 13.5295 45.7159 13.7102Z" fill="#262626"/>
</g>
</svg>
