<?xml version="1.0" encoding="UTF-8"?>
<svg width="34px" height="30px" viewBox="0 0 34 30" version="1.1" xmlns="http://www.w3.org/2000/svg" xmlns:xlink="http://www.w3.org/1999/xlink">
    <title>icon_call</title>
    <g id="English" stroke="none" stroke-width="1" fill="none" fill-rule="evenodd">
        <g id="01-bananza-v3" transform="translate(-1196.000000, -22.000000)" fill="#000000" fill-rule="nonzero">
            <g id="recall" transform="translate(1140.000000, 0.000000)">
                <path d="M74.5042918,30.4984411 C78.132307,31.4937145 80.8254367,33.3960108 83.0476797,36.1327028 L83.3985512,36.5777759 L83.5890226,36.835824 L83.7994529,37.1315636 L84.0256233,37.4578899 L84.7563892,38.5493425 L85.3623959,39.4819317 L86.4787177,41.2508861 L86.4822946,41.2594328 C87.4327656,42.6376667 86.5019763,43.8323737 84.8473318,44.3754197 C83.6231222,44.777199 81.9485536,44.8840604 80.4216983,44.6497224 C76.316276,44.0196323 74.3787338,41.2439982 76.7534788,37.251444 L76.8872999,37.032467 L78.581511,38.0953164 C76.8722602,40.819909 77.8213038,42.227202 80.7251008,42.6728696 C81.9527952,42.8612932 83.3112186,42.7746063 84.223671,42.4751441 C84.4039465,42.4159786 84.5515184,42.3527998 84.6617475,42.2944958 L84.7443607,42.2459703 L83.8586806,40.8435659 L83.0766746,39.6356773 L82.4774189,38.736648 L82.0714401,38.1508364 L81.8375087,37.8293562 C81.8015617,37.7813779 81.7672542,37.7364 81.7347642,37.6947217 C79.7114031,35.0991485 77.3007829,33.3394944 73.9751803,32.4271819 C69.3736234,31.1648367 63.9148471,32.7173901 60.9984609,36.1142227 C59.6534264,37.6808386 58.8937215,39.9362278 58.2727615,43.5262208 L58.1783607,44.0859703 L58.2266085,44.0854068 C58.3304665,44.0813919 58.44359,44.0734406 58.5640059,44.0613078 L58.7498523,44.039942 C59.8059408,43.9039996 61.0142214,43.5225639 61.908972,43.0104725 C63.9366542,41.8499717 63.9719662,40.5560828 60.8976178,38.4392299 L60.6831713,38.2936157 L61.7963008,36.6320072 C66.2816715,39.6368055 66.3059736,42.7983382 62.9024276,44.7462853 C61.7686538,45.3951765 60.3101816,45.8555939 59.0051906,46.0235756 C58.3728459,46.1049726 57.8110943,46.1119805 57.3713332,46.031717 C56.5719353,45.8858141 55.9496485,45.4140003 56.0854624,44.5221219 C56.8052071,39.7956187 57.6508399,36.9430745 59.4810112,34.8114003 C62.9114963,30.815776 69.1712242,29.0354206 74.5042918,30.4984411 Z M77.2932102,24.7205002 L77.5966621,24.8860545 L76.6166629,26.6294998 C72.5517145,24.3445722 67.0420039,24.4701292 63.385489,26.8947768 L63.1334316,27.0676672 L61.9762379,25.4364398 C66.1819683,22.4528919 72.5058845,22.1864156 77.2932102,24.7205002 Z M73.7534493,17.5447116 L74.0194448,17.6878829 L73.0394456,19.4313282 C70.8813659,18.218261 67.9516165,18.26998 65.9981918,19.5192348 L65.7927119,19.6576629 L64.6355182,18.0264355 C67.1493037,16.2431544 70.8881808,16.0691149 73.7534493,17.5447116 Z" id="icon_call" transform="translate(71.465236, 31.319765) rotate(-60.000000) translate(-71.465236, -31.319765) "></path>
            </g>
        </g>
    </g>
</svg>