<?xml version="1.0" encoding="utf-8"?>
<!-- Generator: Adobe Illustrator 24.2.0, SVG Export Plug-In . SVG Version: 6.00 Build 0)  -->
<svg version="1.1" id="Слой_1" xmlns="http://www.w3.org/2000/svg" xmlns:xlink="http://www.w3.org/1999/xlink" x="0px" y="0px"
	 viewBox="0 0 21 21" style="enable-background:new 0 0 21 21;" xml:space="preserve">
<style type="text/css">
	.st0{fill:#FFFFFF;}
</style>
<g id="English">
	<g id="_x30_9-bananza-v3" transform="translate(-1210.000000, -47.000000)">
		<g id="black-close" transform="translate(1140.000000, 0.000000)">
			<g id="icon---Close" transform="translate(71.000000, 48.000000)">
				<g id="Path-31">
					<path class="st0" d="M5.8,10.8c-2.2,0-4.2-0.2-6-0.7C-0.8,10-1.1,9.5-1,8.9c0.1-0.5,0.7-0.9,1.2-0.7C2.8,8.8,5.7,9,8.9,8.7
						c3.4-0.3,6.8-0.5,10.1-0.5c0.6,0,1,0.4,1,1s-0.4,1-1,1c-3.3,0-6.6,0.2-9.9,0.5C8,10.8,6.9,10.8,5.8,10.8z"/>
				</g>
				<g id="Path-31-Copy">
					<path class="st0" d="M9.8,20c-0.6,0-1-0.4-1-1c0-3.3-0.2-6.6-0.5-9.9C8,5.7,8.2,2.5,8.9-0.2C9-0.8,9.5-1.1,10.1-1
						c0.5,0.1,0.9,0.7,0.7,1.2c-0.6,2.5-0.8,5.5-0.5,8.7c0.3,3.4,0.5,6.8,0.5,10.1C10.8,19.6,10.4,20,9.8,20z"/>
				</g>
			</g>
		</g>
	</g>
</g>
</svg>
