<?xml version="1.0" encoding="UTF-8"?>
<svg width="24px" height="14px" viewBox="0 0 24 14" version="1.1" xmlns="http://www.w3.org/2000/svg" xmlns:xlink="http://www.w3.org/1999/xlink">
    <title>icon - arrow</title>
    <g id="English" stroke="none" stroke-width="1" fill="none" fill-rule="evenodd">
        <g id="06-bananza-v3" transform="translate(-1245.000000, -578.000000)" fill="#000000" fill-rule="nonzero">
            <g id="arrow" transform="translate(1214.000000, 542.000000)">
                <path d="M48.1128994,36.2097046 L48.2071068,36.2928932 L54.9142136,43 L48.2071068,49.7071068 C47.8165825,50.0976311 47.1834175,50.0976311 46.7928932,49.7071068 C46.4324093,49.3466228 46.4046797,48.7793918 46.7097046,48.3871006 L46.7928932,48.2928932 L51.0827634,44.002 L50.2624736,44.0077347 C47.7874138,44.0386736 45.3123103,44.1624298 42.8371114,44.3790111 L41.5995037,44.4950372 C38.1567186,44.8393157 35.0419968,44.6662756 32.2574644,43.9701425 C31.7216695,43.8361938 31.3959088,43.2932593 31.5298575,42.7574644 C31.6638062,42.2216695 32.2067407,41.8959088 32.7425356,42.0298575 C35.1320365,42.6272327 37.8172693,42.8054514 40.799986,42.5597556 L41.4004963,42.5049628 C44.6292539,42.1820871 47.8581816,42.0140419 51.0871714,42.0008437 L46.7928932,37.7071068 C46.4324093,37.3466228 46.4046797,36.7793918 46.7097046,36.3871006 L46.7928932,36.2928932 C47.1533772,35.9324093 47.7206082,35.9046797 48.1128994,36.2097046 Z" id="icon---arrow"></path>
            </g>
        </g>
    </g>
</svg>