<?xml version="1.0" encoding="UTF-8"?>
<svg width="31px" height="49px" viewBox="0 0 31 49" version="1.1" xmlns="http://www.w3.org/2000/svg" xmlns:xlink="http://www.w3.org/1999/xlink">
    <title>icon - Content</title>
    <g id="English" stroke="none" stroke-width="1" fill="none" fill-rule="evenodd">
        <g id="03-bananza-v3" transform="translate(-127.000000, -446.000000)" fill="#000000" fill-rule="nonzero">
            <g id="icon---Content" transform="translate(127.000000, 446.000000)">
                <path d="M15.5,0.354166667 C9.42486775,0.354166667 4.5,5.27903442 4.5,11.3541667 C4.5,17.4292989 9.42486775,22.3541667 15.5,22.3541667 C21.5751322,22.3541667 26.5,17.4292989 26.5,11.3541667 C26.5,5.27903442 21.5751322,0.354166667 15.5,0.354166667 Z M15.5,3.35416667 C19.918278,3.35416667 23.5,6.93588867 23.5,11.3541667 C23.5,15.7724447 19.918278,19.3541667 15.5,19.3541667 C11.081722,19.3541667 7.5,15.7724447 7.5,11.3541667 C7.5,6.93588867 11.081722,3.35416667 15.5,3.35416667 Z" id="Oval"></path>
                <path d="M26.1141272,13.1369323 L21.2350423,17.1980018 C17.7734926,20.0791966 12.8300682,20.3431778 9.08136498,17.8470139 L4.87344284,15.0450682 C3.72420083,14.2798178 2.17219813,14.5911046 1.4069478,15.7403466 C0.917139191,16.4759342 0.85208329,17.4154663 1.23583516,18.2115417 L14.34719,45.4104376 C14.9467431,46.6541825 16.4410313,47.1764032 17.6847762,46.5768501 C18.2612123,46.2989764 18.7091481,45.810639 18.9363331,45.2124089 L30.050608,15.9459797 C30.5407928,14.6552109 29.8917912,13.2114627 28.6010224,12.7212779 C27.7577741,12.4010443 26.8074062,12.5598868 26.1141272,13.1369323 Z M26.57,16.66 L16.544,43.059 L4.732,18.556 L7.41863502,20.344078 C12.2721568,23.5759118 18.6725084,23.23413 23.1542468,19.5037889 L26.57,16.66 Z" id="Path-9"></path>
                <path d="M17.5,19.5 C18.2796961,19.5 18.9204487,20.0948881 18.9931334,20.85554 L19,21 L19,26 C19,26.8284271 18.3284271,27.5 17.5,27.5 C16.7203039,27.5 16.0795513,26.9051119 16.0068666,26.14446 L16,26 L16,21 C16,20.1715729 16.6715729,19.5 17.5,19.5 Z" id="Path-10"></path>
                <path d="M17.5,29.5 C18.2796961,29.5 18.9204487,30.0948881 18.9931334,30.85554 L19,31 L19,32 C19,32.8284271 18.3284271,33.5 17.5,33.5 C16.7203039,33.5 16.0795513,32.9051119 16.0068666,32.14446 L16,32 L16,31 C16,30.1715729 16.6715729,29.5 17.5,29.5 Z" id="Path-10-Copy"></path>
                <path d="M5.5,34.5 C6.27969612,34.5 6.92044868,35.0948881 6.99313342,35.85554 L7,36 L7,38 C7,38.8284271 6.32842712,39.5 5.5,39.5 C4.72030388,39.5 4.07955132,38.9051119 4.00686658,38.14446 L4,38 L4,36 C4,35.1715729 4.67157288,34.5 5.5,34.5 Z" id="Path-10-Copy-2"></path>
                <path d="M23.5,43.5 C24.2796961,43.5 24.9204487,44.0948881 24.9931334,44.85554 L25,45 L25,47 C25,47.8284271 24.3284271,48.5 23.5,48.5 C22.7203039,48.5 22.0795513,47.9051119 22.0068666,47.14446 L22,47 L22,45 C22,44.1715729 22.6715729,43.5 23.5,43.5 Z" id="Path-10-Copy-4"></path>
            </g>
        </g>
    </g>
</svg>