<?xml version="1.0" encoding="UTF-8"?>
<svg width="38px" height="38px" viewBox="0 0 38 38" version="1.1" xmlns="http://www.w3.org/2000/svg" xmlns:xlink="http://www.w3.org/1999/xlink">
    <title>icon - Creativity</title>
    <g id="English" stroke="none" stroke-width="1" fill="none" fill-rule="evenodd">
        <g id="03-bananza-v3" transform="translate(-905.000000, -451.000000)" fill="#000000" fill-rule="nonzero">
            <g id="icon---Creativity" transform="translate(905.500000, 451.500000)">
                <path d="M19.5,0 C29.4235481,0 37,8.91675505 37,19.5 C37,29.7172679 29.7172679,37 19.5,37 C8.89243045,37 0.201847391,31.2040922 0.00346532111,22.794416 L0,22.5 L3,22.5 C3,29.1068233 10.2340613,34 19.5,34 C28.0604136,34 34,28.0604136 34,19.5 C34,10.4751026 27.6485016,3 19.5,3 C10.5865211,3 3.18480665,9.19563939 3.00340682,17.1990339 L3,17.5 L0,17.5 C0,7.57645192 8.91675505,0 19.5,0 Z" id="Oval"></path>
                <polygon id="Path-5" points="17.0029211 1.40643257 19.9970789 1.59356743 19.076 16.329 34.843559 20.0398742 34.156441 22.9601258 15.9239403 18.6701256"></polygon>
            </g>
        </g>
    </g>
</svg>