<?xml version="1.0" encoding="UTF-8"?>
<svg width="38px" height="38px" viewBox="0 0 38 38" version="1.1" xmlns="http://www.w3.org/2000/svg" xmlns:xlink="http://www.w3.org/1999/xlink">
    <title>icon - Full-service</title>
    <g id="English" stroke="none" stroke-width="1" fill="none" fill-rule="evenodd">
        <g id="03-bananza-v3" transform="translate(-123.000000, -199.000000)" fill="#000000" fill-rule="nonzero">
            <path d="M143,199.5 C152.923548,199.5 160.5,208.416755 160.5,219 C160.5,229.217268 153.217268,236.5 143,236.5 C132.39243,236.5 123.701847,230.704092 123.503465,222.294416 L123.5,222 L126.5,222 C126.5,228.606823 133.734061,233.5 143,233.5 C151.560414,233.5 157.5,227.560414 157.5,219 C157.5,209.975103 151.148502,202.5 143,202.5 C134.086521,202.5 126.684807,208.695639 126.503407,216.699034 L126.5,217 L123.5,217 C123.5,207.076452 132.416755,199.5 143,199.5 Z M138.962765,209.099267 L150.669239,219.342432 L136.036146,226.658978 L138.962765,209.099267 Z M141.037,214.9 L139.963,221.341 L145.331,218.657 L141.037,214.9 Z" id="icon---Full-service"></path>
        </g>
    </g>
</svg>