<?xml version="1.0" encoding="UTF-8"?>
<svg width="34px" height="47px" viewBox="0 0 34 47" version="1.1" xmlns="http://www.w3.org/2000/svg" xmlns:xlink="http://www.w3.org/1999/xlink">
    <title>icon - Gastro</title>
    <g id="English" stroke="none" stroke-width="1" fill="none" fill-rule="evenodd">
        <g id="03-bananza-v3" transform="translate(-907.000000, -193.000000)" fill="#000000">
            <g id="icon---Gastro" transform="translate(907.000000, 193.000000)">
                <path d="M17.8822342,13.5001122 C26.8475846,13.5001122 33.2048487,19.3904746 33.499268,28.1884513 L33.4410917,28.5688144 L33.4108735,28.7273996 C33.3960352,28.7927924 33.3807378,28.8403947 33.3610871,28.8839719 L33.3148273,28.9698381 L33.2500355,29.0694428 L33.1412736,29.2161971 L33.0619021,29.3047521 L33.0011345,29.3652325 L32.8709094,29.478633 L32.747,29.573 L32.8019929,29.6072568 L32.8852898,29.6695091 L33.0264103,29.7841344 L33.1373948,29.8984958 C33.2646996,30.0348136 33.3166706,30.1235514 33.3816742,30.3696234 L33.4342513,30.5868794 L33.5,30.8823463 C33.5,39.9949437 26.9949096,46.4998878 17.8822342,46.4998878 C8.44710421,46.4998878 0.695961631,41.3367282 0.503657306,33.8161061 L0.5,33.5293854 L3.5,33.5293854 C3.5,39.2434914 9.79264688,43.4998878 17.8822342,43.4998878 C24.8994919,43.4998878 29.8847768,38.9274856 30.4469997,32.1736671 L30.46,31.987 L30.2618109,31.9142535 C30.1316346,31.8626381 30.0087872,31.8066789 29.8914971,31.7441596 L29.7195083,31.6451835 C29.14424,31.2880832 28.7339683,30.7638367 28.7350846,29.997814 C28.7360721,29.320184 29.0383651,28.8266735 29.5296102,28.322928 C29.6719427,28.1769737 29.8297058,28.0338061 30.0058131,27.887574 L30.3142441,27.6409486 L30.456,27.533 L30.4374999,27.3119136 C29.8050044,20.8249606 25.0733042,16.6368108 18.2209369,16.5033967 L17.8822342,16.5001122 C10.1201468,16.5001122 3.68111862,21.8796695 3.50375404,28.823339 L3.5,29.1176537 L0.5,29.1176537 C0.5,20.2572269 8.45247405,13.5001122 17.8822342,13.5001122 Z" id="Oval-Copy-4" fill-rule="nonzero" transform="translate(17.000000, 30.000000) rotate(-270.000000) translate(-17.000000, -30.000000) "></path>
                <path d="M5.71682365,0.954563634 L7.11163015,1.66237589 C12.7867188,4.54227165 15.4632725,8.64177638 14.84704,13.7637001 L14.8061124,14.0722409 L13.226,13.843 L12.1954194,16.3902659 L11.8176003,16.2355936 L11.0865671,15.9263492 L10.3884301,15.6170156 C5.95768628,13.605479 3.61857905,11.5713555 3.5043929,9.18431978 L3.5,9 C3.5,7.01118513 3.95960114,4.95401772 4.86674978,2.83319565 L5.0679846,2.37776118 L5.71682365,0.954563634 Z M7.191,5.14 L7.15992408,5.22934125 C6.71817374,6.54477942 6.5,7.80096376 6.5,9 C6.5,9.59163532 7.22195113,10.4030981 8.70419535,11.3393636 L9.14841506,11.610182 L9.63421,11.8872998 C9.80309293,11.9806676 9.97893819,12.0750032 10.1617789,12.1702246 L10.7313205,12.4584638 C10.9281852,12.5553745 11.1320784,12.6530889 11.3430334,12.7515249 L11.906,13.008 L11.9172589,12.8607708 C12.0927275,9.87849302 10.6934351,7.41819959 7.56389154,5.37569001 L7.191,5.14 Z" id="Path-7" fill-rule="nonzero"></path>
                <path d="M14.7168236,1.95456363 L16.1116301,2.66237589 C21.7867188,5.54227165 24.4632725,9.64177638 23.84704,14.7637001 L23.8061124,15.0722409 L22.226,14.843 L21.1954194,17.3902659 L20.8176003,17.2355936 L20.0865671,16.9263492 L19.3884301,16.6170156 C14.9576863,14.605479 12.618579,12.5713555 12.5043929,10.1843198 L12.5,10 C12.5,8.01118513 12.9596011,5.95401772 13.8667498,3.83319565 L14.0679846,3.37776118 L14.7168236,1.95456363 Z M16.191,6.14 L16.1599241,6.22934125 C15.7181737,7.54477942 15.5,8.80096376 15.5,10 C15.5,10.5916353 16.2219511,11.4030981 17.7041953,12.3393636 L18.1484151,12.610182 L18.63421,12.8872998 C18.8030929,12.9806676 18.9789382,13.0750032 19.1617789,13.1702246 L19.7313205,13.4584638 C19.9281852,13.5553745 20.1320784,13.6530889 20.3430334,13.7515249 L20.906,14.008 L20.9172589,13.8607708 C21.0927275,10.878493 19.6934351,8.41819959 16.5638915,6.37569001 L16.191,6.14 Z" id="Path-7-Copy" fill-rule="nonzero" transform="translate(18.216888, 9.672415) scale(-1, 1) rotate(-15.000000) translate(-18.216888, -9.672415) "></path>
                <circle id="Oval" cx="17.5" cy="22.5" r="1.5"></circle>
                <circle id="Oval-Copy-9" cx="17" cy="29" r="1"></circle>
                <circle id="Oval-Copy-6" cx="21.5" cy="34.5" r="1.5"></circle>
                <circle id="Oval-Copy-7" cx="10.5" cy="32.5" r="1.5"></circle>
                <circle id="Oval-Copy-8" cx="23" cy="24" r="1"></circle>
            </g>
        </g>
    </g>
</svg>