<?xml version="1.0" encoding="UTF-8"?>
<svg width="52px" height="39px" viewBox="0 0 52 39" version="1.1" xmlns="http://www.w3.org/2000/svg" xmlns:xlink="http://www.w3.org/1999/xlink">
    <title>banana check</title>
    <g id="English" stroke="none" stroke-width="1" fill="none" fill-rule="evenodd">
        <g id="09-bananza-v3" transform="translate(-736.000000, -563.000000)">
            <g id="banana-check" transform="translate(736.966252, 563.466252)">
                <path d="M46.6860878,16.4264115 C45.4331124,16.5052995 44.2116082,16.8233689 43.0786431,17.3646745 C37.5548088,20.0032243 31.7311517,24.5710678 23.9644661,24.5710678 C7.16804897,24.5710678 6.39244074,8.01845548 5.61698908,4.1554642 C5.50075528,3.57639315 5.24856567,3.03466797 4.87384799,2.578125 L3.02543635,0.326042148 C2.69100187,-0.0814055859 2.07836148,-0.111198398 1.70574186,0.26142123 L0.26268,1.70448309 C-0.0419616699,2.00912476 -0.0876998633,2.48371127 0.157356289,2.83786776 C1.25339511,4.41898349 4.01153564,8.81237027 3.29273227,12.0467758 C1.71413419,19.150467 -0.705429761,37.2989899 21.136039,37.2989899 C29.729789,37.2989899 42.6842034,31.4692505 49.9213326,19.5286377 C50.1206505,19.2000778 50.2238762,18.8165482 50.2238762,18.4325989 C50.2238762,17.2236832 49.2042076,16.2661179 47.9978097,16.3433274 C47.5928795,16.3693436 47.1501839,16.3974579 46.6860878,16.4264115 Z" id="Path" fill="#FFFFFF"></path>
                <path d="M48.3263168,18.3906898 C41.0484848,29.1316186 31.5259063,32.3492424 23.2573593,32.3492424 C4.41740881,32.3492424 3.52771762,19.2146683 3.38672641,11.4366532 C3.36742398,11.6435242 3.33721158,11.8474578 3.29273227,12.0467758 C1.71413419,19.150467 -0.705429761,37.2989899 21.136039,37.2989899 C29.729789,37.2989899 42.183181,32.2690399 49.4203102,20.3284271 C49.6196281,19.9998672 48.747612,18.7725411 48.3263168,18.3906898 Z" id="Path" fill="#FFE55B"></path>
                <path d="M5.2825546,3.21132657 C5.16799927,2.98809049 5.03456121,2.77366633 4.87384799,2.57770541 L3.02543635,0.326042148 C2.69100187,-0.0814055859 2.07836148,-0.111198398 1.70574186,0.261001641 L0.26268,1.70448309 C-0.0419616699,2.00912476 -0.0876998633,2.48371127 0.157356289,2.83786776 C0.60802457,3.487854 1.33815763,4.61620328 1.99317937,5.94093328 L5.2825546,3.21132657 Z" id="Path" fill="#262626" fill-rule="nonzero"></path>
                <path d="M47.303344,16.3873871 L49.4203102,20.3284271 C49.5894158,20.0661667 49.7564233,19.800969 49.9217522,19.5286377 C50.1206505,19.2000778 50.2238762,18.8165482 50.2238762,18.4325989 C50.2238762,17.2236832 49.2042076,16.2661179 47.9978097,16.3433274 C47.7770912,16.3575944 47.5437843,16.372281 47.303344,16.3873871 Z" id="Path" fill="#262626" fill-rule="nonzero"></path>
            </g>
        </g>
    </g>
</svg>