<?xml version="1.0" encoding="UTF-8"?>
<svg width="188px" height="429px" viewBox="0 0 188 429" version="1.1" xmlns="http://www.w3.org/2000/svg" xmlns:xlink="http://www.w3.org/1999/xlink">
    <title>Group</title>
    <defs>
        <filter id="filter-1">
            <feColorMatrix in="SourceGraphic" type="matrix" values="0 0 0 0 1.000000 0 0 0 0 1.000000 0 0 0 0 1.000000 0 0 0 1.000000 0"></feColorMatrix>
        </filter>
        <filter id="filter-2">
            <feColorMatrix in="SourceGraphic" type="matrix" values="0 0 0 0 1.000000 0 0 0 0 1.000000 0 0 0 0 1.000000 0 0 0 1.000000 0"></feColorMatrix>
        </filter>
        <filter id="filter-3">
            <feColorMatrix in="SourceGraphic" type="matrix" values="0 0 0 0 1.000000 0 0 0 0 1.000000 0 0 0 0 1.000000 0 0 0 1.000000 0"></feColorMatrix>
        </filter>
    </defs>
    <g id="English" stroke="none" stroke-width="1" fill="none" fill-rule="evenodd" opacity="0.1">
        <g id="01-bananza-v3-copy" transform="translate(-684.000000, 49.000000)">
            <g id="Cookies-popup" transform="translate(590.000000, 0.000000)">
                <g id="Group" transform="translate(94.000000, -49.000000)">
                    <g filter="url(#filter-1)" id="cookie-copy">
                        <g transform="translate(65.000000, 85.000000) rotate(-180.000000) translate(-65.000000, -85.000000) translate(0.000000, 56.000000)">
                            <path d="M29.262225,13.07395 L26.4505,15.8855 C25.42535,16.91065 25.42535,18.572625 26.4505,19.597775 C27.4753,20.62275 29.137625,20.6231 30.162775,19.597775 L32.974325,16.786225 C33.999475,15.761075 33.999475,14.0991 32.974325,13.07395 C31.94935,12.048625 30.2872,12.048625 29.262225,13.07395 Z" id="Path" fill="#000000" fill-rule="nonzero"></path>
                            <path d="M79.248775,29.1905 L76.437225,32.002225 C75.412075,33.027375 75.412075,34.68935 76.437225,35.7145 C77.462025,36.7393 79.12435,36.739825 80.1495,35.7145 L82.96105,32.902775 C83.9862,31.877625 83.9862,30.21565 82.96105,29.1905 C81.936075,28.16535 80.273925,28.16535 79.248775,29.1905 Z" id="Path" fill="#000000" fill-rule="nonzero"></path>
                            <path d="M64.37895,49.843 L61.5674,52.654725 C60.54225,53.679875 60.54225,55.34185 61.5674,56.367 C62.5922,57.3918 64.254525,57.392325 65.279675,56.367 L68.091225,53.555275 C69.116375,52.530125 69.116375,50.86815 68.091225,49.843 C67.066075,48.81785 65.403925,48.81785 64.37895,49.843 Z" id="Path" fill="#000000" fill-rule="nonzero"></path>
                            <path d="M53.508775,28.755675 L50.697225,31.567225 C49.672075,32.592375 49.672075,34.25435 50.697225,35.2795 C51.722025,36.304475 53.38435,36.304825 54.4095,35.2795 L57.22105,32.46795 C58.2462,31.4428 58.2462,29.780825 57.22105,28.755675 C56.196075,27.73035 54.533925,27.73035 53.508775,28.755675 Z" id="Path" fill="#000000" fill-rule="nonzero"></path>
                            <path d="M40.4095,48.437225 C39.384525,47.41225 37.722375,47.412075 36.697225,48.437225 C35.672075,49.462375 35.672075,51.12435 36.697225,52.1495 L39.508775,54.961225 C40.533575,55.9862 42.19555,55.98655 43.22105,54.961225 C44.2462,53.936075 44.2462,52.2741 43.22105,51.24895 L40.4095,48.437225 Z" id="Path" fill="#000000" fill-rule="nonzero"></path>
                            <path d="M19.539325,32.56705 C18.51435,31.542075 16.8522,31.5419 15.82705,32.56705 C14.8019,33.5922 14.8019,35.254175 15.82705,36.279325 L18.638775,39.09105 C19.663575,40.11585 21.3259,40.116375 22.35105,39.09105 C23.3762,38.0659 23.3762,36.403925 22.35105,35.378775 L19.539325,32.56705 Z" id="Path" fill="#000000" fill-rule="nonzero"></path>
                            <path d="M5.2795,1.567225 C4.254525,0.542075 2.592375,0.54225 1.567225,1.567225 C0.542075,2.592375 0.542075,4.25435 1.567225,5.2795 L4.378775,8.091225 C5.403575,9.1162 7.06555,9.11655 8.09105,8.091225 C9.1162,7.066075 9.1162,5.4041 8.09105,4.37895 L5.2795,1.567225 Z" id="Path" fill="#000000" fill-rule="nonzero"></path>
                            <path d="M126.032775,21.8855 C125.0078,20.860525 123.34565,20.86035 122.3205,21.8855 C121.29535,22.91065 121.29535,24.572625 122.3205,25.597775 L125.132225,28.4095 C126.157025,29.4343 127.81935,29.434825 128.8445,28.4095 C129.86965,27.38435 129.86965,25.722375 128.8445,24.697225 L126.032775,21.8855 Z" id="Path" fill="#000000" fill-rule="nonzero"></path>
                        </g>
                    </g>
                    <g filter="url(#filter-2)" id="cookie-2">
                        <g transform="translate(108.500000, 315.000000) rotate(-90.000000) translate(-108.500000, -315.000000) translate(35.000000, 241.000000)">
                            <path d="M79.6852,140.12225 C75.39805,138.4888 70.67725,138.48915 66.3915,140.12225 C61.3074,142.0588 55.6577,142.19985 50.484,140.51845 C45.30995,138.8374 40.82225,135.40285 37.8476,130.8476 C35.3395,127.00705 31.5203,124.23225 27.0928,123.03385 C19.85445,121.07455 13.87925,115.743 11.1083,108.77135 L15.98695,106.83235 C18.1503,112.27485 22.8144,116.4367 28.46375,117.96585 C34.1362,119.5013 39.02955,123.0566 42.24255,127.9769 C47.0078,135.2744 56.378,138.31835 64.52215,135.2163 C70.01295,133.1247 76.06165,133.12435 81.55385,135.2163 C89.69765,138.31905 99.06785,135.27475 103.8331,127.97725 C107.0461,123.05695 111.93945,119.50165 117.61225,117.9662 C126.0245,115.6891 131.81525,107.71855 131.3816,99.01405 C131.089,93.14455 132.958,87.39195 136.64455,82.81605 C142.11225,76.02885 142.11225,66.17705 136.64455,59.38985 C135.6481,58.1533 134.7717,56.8093 134.03915,55.3946 C133.8463,55.0222 133.45045,54.82515 133.0511,54.90215 C129.8829,55.5185 126.6272,55.83105 123.37395,55.83105 C109.7621,55.83105 97.0053,50.4897 87.45275,40.79085 C87.0459409,39.6952413 87.0616909,38.9316246 87.5,38.5 C87.8929797,38.1130135 89.1241631,37.6487135 91.19355,37.1071 C99.75105,45.79585 111.17995,50.58105 123.37395,50.58105 C126.29155,50.58105 129.2102,50.30105 132.04905,49.7491 C134.7542,49.22235 137.4282,50.5219 138.7015,52.98065 C139.27305,54.08385 139.9566,55.1321 140.73325,56.09635 C144.14645,60.3331 146.0263,65.66255 146.0263,71.10295 C146.0263,76.54335 144.14645,81.8728 140.7336,86.10955 C137.8559,89.6813 136.39675,94.17145 136.62565,98.7526 C136.8962,104.18635 135.28445,109.6026 132.0865,114.0042 C128.88855,118.4058 124.23565,121.6125 118.9839,123.0335 C114.55675,124.2319 110.7372,127.00705 108.22875,130.84725 C105.25445,135.4025 100.76675,138.83705 95.59235,140.51845 C93.1973,141.29685 90.70075,141.68465 88.20525,141.68465 C85.3097,141.68465 82.4159,141.16245 79.6852,140.12225 Z" id="Path" fill="#000000" fill-rule="nonzero"></path>
                            <path d="M9.60365,102.905 C9.4332,101.5344 9.38175,100.1372 9.45105,98.75225 C9.67925,94.17145 8.2201,89.6813 5.34275,86.10955 C1.9299,81.87315 0.05005,76.54335 0.05005,71.10295 C0.05005,65.66255 1.9299,60.3331 5.34275,56.09635 C8.22045,52.52425 9.6796,48.03445 9.45105,43.4533 C9.1798,38.01955 10.79155,32.6033 13.9895,28.2017 C17.18745,23.8001 21.8407,20.5934 27.0921,19.17205 C31.5196,17.974 35.3388,15.19885 37.84725,11.3583 C40.8219,6.80305 45.3096,3.3685 50.48365,1.68745 C55.657,0.00605 61.30705,0.14675 66.39115,2.08365 C68.3277,2.82145 70.36295,3.2285 72.43915,3.2936 C75.56535,3.39195 78.10215,5.8073 78.34015,8.9118 C79.02475,17.8522 82.3256,26.30505 87.88535,33.3565 C88.0534473,35.1170831 87.9249973,36.1649164 87.5,36.5 C87.0088529,36.8872386 85.7630862,36.9228886 83.7627,36.60695 C77.55545,28.73405 73.86995,19.29595 73.1052,9.3129 C73.073,8.89395 72.7083,8.55445 72.27465,8.5408 C69.6136,8.4575 67.0054,7.93565 64.52215,6.9896 C56.3773,3.88685 47.0078,6.9315 42.24255,14.22865 C39.02955,19.1493 34.1362,22.70425 28.46375,24.2397 C20.05115,26.51645 14.2604,34.487 14.6944,43.1915 C14.987,49.061 13.118,54.8136 9.43145,59.3895 C3.96375,66.1767 3.96375,76.0285 9.43145,82.8157 C13.118,87.3916 14.987,93.1442 14.6944,99.0137 C14.6405,100.09625 14.6804,101.1872 14.8134,102.25715 L9.60365,102.905 Z" id="Path" fill="#000000" fill-rule="nonzero"></path>
                            <path d="M57.93235,52.66075 C51.4983,52.66075 46.26405,47.4265 46.26405,40.99245 C46.26405,34.5584 51.4983,29.32415 57.93235,29.32415 C64.3664,29.32415 69.60065,34.5584 69.60065,40.99245 C69.60065,47.4265 64.3664,52.66075 57.93235,52.66075 Z M57.93235,34.57415 C54.3935,34.57415 51.51405,37.4536 51.51405,40.99245 C51.51405,44.5313 54.3935,47.41075 57.93235,47.41075 C61.4712,47.41075 64.35065,44.5313 64.35065,40.99245 C64.35065,37.4536 61.47155,34.57415 57.93235,34.57415 L57.93235,34.57415 Z" id="Shape" fill="#000000" fill-rule="nonzero"></path>
                            <path d="M130,33 C126.691523,33 124,30.3084768 124,27 C124,23.6915232 126.691523,21 130,21 C133.308477,21 136,23.6915232 136,27 C135.667201,27.7168139 135.331899,28.0752209 134.994095,28.0752209 C134.731983,28.0752209 134.167411,27.7168139 133.300378,27 C133.300378,25.1802748 131.819725,23.6996221 130,23.6996221 C128.180275,23.6996221 126.699622,25.1802748 126.699622,27 C126.699622,28.8197252 128.180275,30.3003779 130,30.3003779 C131.100726,30.3003779 132.125502,29.7541544 132.741016,28.8391625 C133.350985,28.533767 133.759202,28.4505244 133.965668,28.5894346 C134.256932,28.7853975 134.595311,29.3709498 134.980803,30.3460915 C133.862799,32.0077989 132.00078,33 130,33 Z" id="Path" fill="#000000" fill-rule="nonzero"></path>
                            <path d="M48.8894,102.89135 C42.45535,102.89135 37.2211,97.6571 37.2211,91.22305 C37.2211,84.789 42.45535,79.55475 48.8894,79.55475 C55.32345,79.55475 60.5577,84.789 60.5577,91.22305 C60.5577,97.6571 55.3231,102.89135 48.8894,102.89135 Z M48.8894,84.80475 C45.35055,84.80475 42.4711,87.6842 42.4711,91.22305 C42.4711,94.7619 45.35055,97.64135 48.8894,97.64135 C52.42825,97.64135 55.3077,94.7619 55.3077,91.22305 C55.3077,87.6842 52.42825,84.80475 48.8894,84.80475 Z" id="Shape" fill="#000000" fill-rule="nonzero"></path>
                            <polygon id="Path" fill="#000000" fill-rule="nonzero" points="31.19655 59.48505 36.44655 59.48505 36.44655 64.73505 31.19655 64.73505"></polygon>
                            <path d="M86.1413,110.45625 C87.5910475,110.45625 88.7663,111.631503 88.7663,113.08125 C88.7663,114.530997 87.5910475,115.70625 86.1413,115.70625 C84.6915525,115.70625 83.5163,114.530997 83.5163,113.08125 C83.5163,111.631503 84.6915525,110.45625 86.1413,110.45625 Z" id="Path" fill="#000000" fill-rule="nonzero"></path>
                            <path d="M107.1196,21.2283 C108.569347,21.2283 109.7446,22.4035525 109.7446,23.8533 C109.7446,25.3030475 108.569347,26.4783 107.1196,26.4783 C105.669853,26.4783 104.4946,25.3030475 104.4946,23.8533 C104.4946,22.4035525 105.669853,21.2283 107.1196,21.2283 Z" id="Path" fill="#000000" fill-rule="nonzero"></path>
                            <polygon id="Path" fill="#000000" fill-rule="nonzero" points="25.7446 141.95625 30.9946 141.95625 30.9946 147.20625 25.7446 147.20625"></polygon>
                        </g>
                    </g>
                    <g filter="url(#filter-3)" id="cookie-2-copy">
                        <g transform="translate(99.500000, 74.000000) rotate(-180.000000) translate(-99.500000, -74.000000) translate(26.000000, 0.000000)">
                            <path d="M79.6852,140.12225 C75.39805,138.4888 70.67725,138.48915 66.3915,140.12225 C61.3074,142.0588 55.6577,142.19985 50.484,140.51845 C45.30995,138.8374 40.82225,135.40285 37.8476,130.8476 C35.3395,127.00705 31.5203,124.23225 27.0928,123.03385 C19.85445,121.07455 13.87925,115.743 11.1083,108.77135 L15.98695,106.83235 C18.1503,112.27485 22.8144,116.4367 28.46375,117.96585 C34.1362,119.5013 39.02955,123.0566 42.24255,127.9769 C47.0078,135.2744 56.378,138.31835 64.52215,135.2163 C70.01295,133.1247 76.06165,133.12435 81.55385,135.2163 C89.69765,138.31905 99.06785,135.27475 103.8331,127.97725 C107.0461,123.05695 111.93945,119.50165 117.61225,117.9662 C126.0245,115.6891 131.81525,107.71855 131.3816,99.01405 C131.089,93.14455 132.958,87.39195 136.64455,82.81605 C142.11225,76.02885 142.11225,66.17705 136.64455,59.38985 C135.6481,58.1533 134.7717,56.8093 134.03915,55.3946 C133.8463,55.0222 133.45045,54.82515 133.0511,54.90215 C129.8829,55.5185 126.6272,55.83105 123.37395,55.83105 C109.7621,55.83105 97.0053,50.4897 87.45275,40.79085 C87.0459409,39.6952413 87.0616909,38.9316246 87.5,38.5 C87.8929797,38.1130135 89.1241631,37.6487135 91.19355,37.1071 C99.75105,45.79585 111.17995,50.58105 123.37395,50.58105 C126.29155,50.58105 129.2102,50.30105 132.04905,49.7491 C134.7542,49.22235 137.4282,50.5219 138.7015,52.98065 C139.27305,54.08385 139.9566,55.1321 140.73325,56.09635 C144.14645,60.3331 146.0263,65.66255 146.0263,71.10295 C146.0263,76.54335 144.14645,81.8728 140.7336,86.10955 C137.8559,89.6813 136.39675,94.17145 136.62565,98.7526 C136.8962,104.18635 135.28445,109.6026 132.0865,114.0042 C128.88855,118.4058 124.23565,121.6125 118.9839,123.0335 C114.55675,124.2319 110.7372,127.00705 108.22875,130.84725 C105.25445,135.4025 100.76675,138.83705 95.59235,140.51845 C93.1973,141.29685 90.70075,141.68465 88.20525,141.68465 C85.3097,141.68465 82.4159,141.16245 79.6852,140.12225 Z" id="Path" fill="#000000" fill-rule="nonzero"></path>
                            <path d="M9.60365,102.905 C9.4332,101.5344 9.38175,100.1372 9.45105,98.75225 C9.67925,94.17145 8.2201,89.6813 5.34275,86.10955 C1.9299,81.87315 0.05005,76.54335 0.05005,71.10295 C0.05005,65.66255 1.9299,60.3331 5.34275,56.09635 C8.22045,52.52425 9.6796,48.03445 9.45105,43.4533 C9.1798,38.01955 10.79155,32.6033 13.9895,28.2017 C17.18745,23.8001 21.8407,20.5934 27.0921,19.17205 C31.5196,17.974 35.3388,15.19885 37.84725,11.3583 C40.8219,6.80305 45.3096,3.3685 50.48365,1.68745 C55.657,0.00605 61.30705,0.14675 66.39115,2.08365 C68.3277,2.82145 70.36295,3.2285 72.43915,3.2936 C75.56535,3.39195 78.10215,5.8073 78.34015,8.9118 C79.02475,17.8522 82.3256,26.30505 87.88535,33.3565 C88.0534473,35.1170831 87.9249973,36.1649164 87.5,36.5 C87.0088529,36.8872386 85.7630862,36.9228886 83.7627,36.60695 C77.55545,28.73405 73.86995,19.29595 73.1052,9.3129 C73.073,8.89395 72.7083,8.55445 72.27465,8.5408 C69.6136,8.4575 67.0054,7.93565 64.52215,6.9896 C56.3773,3.88685 47.0078,6.9315 42.24255,14.22865 C39.02955,19.1493 34.1362,22.70425 28.46375,24.2397 C20.05115,26.51645 14.2604,34.487 14.6944,43.1915 C14.987,49.061 13.118,54.8136 9.43145,59.3895 C3.96375,66.1767 3.96375,76.0285 9.43145,82.8157 C13.118,87.3916 14.987,93.1442 14.6944,99.0137 C14.6405,100.09625 14.6804,101.1872 14.8134,102.25715 L9.60365,102.905 Z" id="Path" fill="#000000" fill-rule="nonzero"></path>
                            <path d="M48.8894,102.89135 C42.45535,102.89135 37.2211,97.6571 37.2211,91.22305 C37.2211,84.789 42.45535,79.55475 48.8894,79.55475 C55.32345,79.55475 60.5577,84.789 60.5577,91.22305 C60.5577,97.6571 55.3231,102.89135 48.8894,102.89135 Z M48.8894,84.80475 C45.35055,84.80475 42.4711,87.6842 42.4711,91.22305 C42.4711,94.7619 45.35055,97.64135 48.8894,97.64135 C52.42825,97.64135 55.3077,94.7619 55.3077,91.22305 C55.3077,87.6842 52.42825,84.80475 48.8894,84.80475 Z" id="Shape" fill="#000000" fill-rule="nonzero"></path>
                            <polygon id="Path" fill="#000000" fill-rule="nonzero" points="31.19655 59.48505 36.44655 59.48505 36.44655 64.73505 31.19655 64.73505"></polygon>
                            <polygon id="Path" fill="#000000" fill-rule="nonzero" points="83.5163 110.45625 88.7663 110.45625 88.7663 115.70625 83.5163 115.70625"></polygon>
                            <path d="M61.55615,16 C63.0058975,16 64.18115,17.1752525 64.18115,18.625 C64.18115,20.0747475 63.0058975,21.25 61.55615,21.25 C60.1064025,21.25 58.93115,20.0747475 58.93115,18.625 C58.93115,17.1752525 60.1064025,16 61.55615,16 Z" id="Path" fill="#000000" fill-rule="nonzero"></path>
                            <path d="M110.1196,27.2283 C111.569347,27.2283 112.7446,28.4035525 112.7446,29.8533 C112.7446,31.3030475 111.569347,32.4783 110.1196,32.4783 C108.669853,32.4783 107.4946,31.3030475 107.4946,29.8533 C107.4946,28.4035525 108.669853,27.2283 110.1196,27.2283 Z" id="Path" fill="#000000" fill-rule="nonzero"></path>
                            <polygon id="Path" fill="#000000" fill-rule="nonzero" points="25.7446 141.95625 30.9946 141.95625 30.9946 147.20625 25.7446 147.20625"></polygon>
                        </g>
                    </g>
                </g>
            </g>
        </g>
    </g>
</svg>