<?xml version="1.0" encoding="UTF-8"?>
<svg width="194px" height="294px" viewBox="0 0 194 294" version="1.1" xmlns="http://www.w3.org/2000/svg" xmlns:xlink="http://www.w3.org/1999/xlink">
    <title>Mouth</title>
    <defs>
        <linearGradient x1="40.4299184%" y1="35.1308881%" x2="57.6096606%" y2="75.2557053%" id="linearGradient-1">
            <stop stop-color="#930B0B" offset="0%"></stop>
            <stop stop-color="#BD2E2E" offset="100%"></stop>
        </linearGradient>
        <linearGradient x1="76.9614609%" y1="35.8898672%" x2="6.9604912%" y2="57.415896%" id="linearGradient-2">
            <stop stop-color="#4A1818" offset="0%"></stop>
            <stop stop-color="#442626" offset="100%"></stop>
        </linearGradient>
        <linearGradient x1="26.3719483%" y1="-1.22457573%" x2="81.4704169%" y2="100.778356%" id="linearGradient-3">
            <stop stop-color="#F5DABA" offset="0.260417%"></stop>
            <stop stop-color="#FFFFFF" offset="98.96%"></stop>
        </linearGradient>
        <linearGradient x1="48.4188925%" y1="116.458652%" x2="37.320205%" y2="512.18672%" id="linearGradient-4">
            <stop stop-color="#2D1D1D" offset="0%"></stop>
            <stop stop-color="#531B1B" offset="66.5920017%"></stop>
            <stop stop-color="#7B2424" offset="100%"></stop>
        </linearGradient>
        <linearGradient x1="83.8341092%" y1="30.8258199%" x2="19.875804%" y2="81.4261181%" id="linearGradient-5">
            <stop stop-color="#E50B0B" offset="1.61713287%"></stop>
            <stop stop-color="#BD2E2E" offset="100%"></stop>
        </linearGradient>
        <radialGradient cx="-86.2988903%" cy="110.738003%" fx="-86.2988903%" fy="110.738003%" r="236.086177%" gradientTransform="translate(-0.862989,1.107380),scale(0.724484,1.000000),translate(0.862989,-1.107380)" id="radialGradient-6">
            <stop stop-color="#FF4040" offset="0%"></stop>
            <stop stop-color="#FF0000" stop-opacity="0.444001311" offset="11.527535%"></stop>
            <stop stop-color="#FF2C2C" stop-opacity="0.687991696" offset="100%"></stop>
        </radialGradient>
        <linearGradient x1="16.246057%" y1="-19.795667%" x2="71.5827002%" y2="82.407092%" id="linearGradient-7">
            <stop stop-color="#F5DABA" offset="0.260417%"></stop>
            <stop stop-color="#FFFFFF" offset="98.96%"></stop>
        </linearGradient>
        <linearGradient x1="8.81761411%" y1="-33.5994246%" x2="64.1540278%" y2="68.6030338%" id="linearGradient-8">
            <stop stop-color="#F5DABA" offset="0.260417%"></stop>
            <stop stop-color="#FFFFFF" offset="98.96%"></stop>
        </linearGradient>
        <linearGradient x1="85.7088692%" y1="-51.3973776%" x2="61.8845984%" y2="10.9606733%" id="linearGradient-9">
            <stop stop-color="#F5DABA" offset="0.260417%"></stop>
            <stop stop-color="#FFFFFF" offset="98.96%"></stop>
        </linearGradient>
        <linearGradient x1="5.95611439%" y1="-38.4055751%" x2="61.2303357%" y2="63.6093522%" id="linearGradient-10">
            <stop stop-color="#F5DABA" offset="0.260417%"></stop>
            <stop stop-color="#FFFFFF" offset="98.96%"></stop>
        </linearGradient>
        <linearGradient x1="14.5577238%" y1="-22.8797913%" x2="69.6561924%" y2="79.1226186%" id="linearGradient-11">
            <stop stop-color="#F5DABA" offset="0.260417%"></stop>
            <stop stop-color="#FFFFFF" offset="98.96%"></stop>
        </linearGradient>
        <linearGradient x1="69.7261634%" y1="-33.8651705%" x2="53.9908197%" y2="25.7499992%" id="linearGradient-12">
            <stop stop-color="#F5DABA" offset="0.260417%"></stop>
            <stop stop-color="#FFFFFF" offset="98.96%"></stop>
        </linearGradient>
        <linearGradient x1="6.51291276%" y1="-38.9880972%" x2="61.539321%" y2="63.1594409%" id="linearGradient-13">
            <stop stop-color="#F5DABA" offset="0.260417%"></stop>
            <stop stop-color="#FFFFFF" offset="98.96%"></stop>
        </linearGradient>
        <linearGradient x1="80.4412266%" y1="-24.3545831%" x2="58.1374954%" y2="24.7358262%" id="linearGradient-14">
            <stop stop-color="#F5DABA" offset="0.260417%"></stop>
            <stop stop-color="#FFFFFF" offset="98.96%"></stop>
        </linearGradient>
        <linearGradient x1="218.526035%" y1="0.129987078%" x2="-121.399787%" y2="98.2417648%" id="linearGradient-15">
            <stop stop-color="#F5DABA" offset="0.260417%"></stop>
            <stop stop-color="#FFFFFF" offset="98.96%"></stop>
        </linearGradient>
        <linearGradient x1="27.6325342%" y1="36.3227482%" x2="269.602397%" y2="217.518043%" id="linearGradient-16">
            <stop stop-color="#F5DABA" offset="0.260417%"></stop>
            <stop stop-color="#FFFFFF" offset="98.96%"></stop>
        </linearGradient>
        <linearGradient x1="47.5375945%" y1="83.6219052%" x2="52.9269819%" y2="24.6590063%" id="linearGradient-17">
            <stop stop-color="#E62727" offset="0%"></stop>
            <stop stop-color="#E8ACAC" offset="97.9949738%"></stop>
        </linearGradient>
        <linearGradient x1="40.1241766%" y1="-16.6471631%" x2="52.0049706%" y2="77.1996566%" id="linearGradient-18">
            <stop stop-color="#F5DABA" offset="0.260417%"></stop>
            <stop stop-color="#FFFFFF" offset="98.96%"></stop>
        </linearGradient>
        <linearGradient x1="-7.54089492%" y1="-38.7111262%" x2="57.4310178%" y2="69.6188175%" id="linearGradient-19">
            <stop stop-color="#F5DABA" offset="0.260417%"></stop>
            <stop stop-color="#FFFFFF" offset="98.96%"></stop>
        </linearGradient>
        <linearGradient x1="-28.9668298%" y1="-51.496053%" x2="65.4195928%" y2="66.7957827%" id="linearGradient-20">
            <stop stop-color="#F5DABA" offset="0.260417%"></stop>
            <stop stop-color="#FFFFFF" offset="98.96%"></stop>
        </linearGradient>
        <linearGradient x1="19.1175737%" y1="-17.7371763%" x2="54.1668746%" y2="57.4174037%" id="linearGradient-21">
            <stop stop-color="#E62727" offset="0%"></stop>
            <stop stop-color="#E8ACAC" offset="100%"></stop>
        </linearGradient>
        <linearGradient x1="-4.31471137%" y1="4.23312786%" x2="179.241565%" y2="186.847336%" id="linearGradient-22">
            <stop stop-color="#F5DABA" offset="0.260417%"></stop>
            <stop stop-color="#FFFFFF" offset="98.96%"></stop>
        </linearGradient>
        <linearGradient x1="0.985284281%" y1="26.355254%" x2="200.824749%" y2="158.920058%" id="linearGradient-23">
            <stop stop-color="#F5DABA" offset="0.260417%"></stop>
            <stop stop-color="#FFFFFF" offset="98.96%"></stop>
        </linearGradient>
        <linearGradient x1="13.470649%" y1="6.18884654%" x2="130.682486%" y2="138.812792%" id="linearGradient-24">
            <stop stop-color="#F5DABA" offset="0.260417%"></stop>
            <stop stop-color="#FFFFFF" offset="98.96%"></stop>
        </linearGradient>
        <linearGradient x1="49.9459863%" y1="85.8024457%" x2="50.3991882%" y2="-4.66334873%" id="linearGradient-25">
            <stop stop-color="#C72727" offset="0%"></stop>
            <stop stop-color="#E8ACAC" offset="100%"></stop>
        </linearGradient>
        <linearGradient x1="75.1252796%" y1="26.1699664%" x2="15.2176552%" y2="82.6367373%" id="linearGradient-26">
            <stop stop-color="#E62727" offset="0%"></stop>
            <stop stop-color="#E8ACAC" offset="100%"></stop>
        </linearGradient>
        <linearGradient x1="205.381047%" y1="-93.2631583%" x2="-141.491299%" y2="213.215545%" id="linearGradient-27">
            <stop stop-color="#CA0B36" offset="12.24%"></stop>
            <stop stop-color="#9A2E5B" offset="98.96%"></stop>
        </linearGradient>
        <linearGradient x1="-81.8530943%" y1="-64.5690181%" x2="177.216679%" y2="-64.5690181%" id="linearGradient-28">
            <stop stop-color="#FFFFFF" offset="0%"></stop>
            <stop stop-color="#FFFFFF" offset="12.24%"></stop>
            <stop stop-color="#FFFFFF" stop-opacity="0" offset="99.2269449%"></stop>
        </linearGradient>
        <linearGradient x1="-0.278325342%" y1="50.0370494%" x2="99.9233231%" y2="50.0370494%" id="linearGradient-29">
            <stop stop-color="#E6277D" offset="12.24%"></stop>
            <stop stop-color="#E8ACBD" offset="98.96%"></stop>
        </linearGradient>
        <linearGradient x1="112.349174%" y1="12.5547527%" x2="4.62209081%" y2="68.4000433%" id="linearGradient-30">
            <stop stop-color="#E62727" offset="0%"></stop>
            <stop stop-color="#E8ACAC" offset="100%"></stop>
        </linearGradient>
        <linearGradient x1="0.375%" y1="49.6534884%" x2="98.7166667%" y2="49.6534884%" id="linearGradient-31">
            <stop stop-color="#E6277D" offset="12.24%"></stop>
            <stop stop-color="#E8ACBD" offset="98.96%"></stop>
        </linearGradient>
    </defs>
    <g id="English" stroke="none" stroke-width="1" fill="none" fill-rule="evenodd">
        <g id="01-bananza-v3" transform="translate(-648.000000, -347.000000)" fill-rule="nonzero">
            <g id="Illustartion" transform="translate(467.000000, -34.000000)">
                <g id="Mouth" transform="translate(181.000000, 381.000000)">
                    <path d="M167.9,142.9 C167.7,139.2 166.2,136.5 165.8,132.8 C163.4,106.9 164.8,65.7 145.9,39.5 C122.9,7.5 102.6,42.2 71.6,50.3 C40.6,58.5 16.5,57.4 16.9,76.8 C17.1,88.1 28.6,121.8 31.7,159.9 C33.9,187.1 28.8,217.6 26,239.5 C19.2,292.1 160.8,278.3 180.2,244.9 C192,224.7 180,232.8 182.5,227.9 C183.8,225.3 184.4,222.4 184.3,219.5 L167.9,142.9 Z" id="Path" fill="url(#linearGradient-1)"></path>
                    <path d="M121.9,120.3 C100.1,123.4 82.3,121.7 70.8,119.6 C56.3,117.1 43.2,114.6 31.4,104.1 C24.7,98.1 20.8,91.7 18.5,87.1 C20.6,92.7 23.1,101.1 23.6,111.6 C23.9,117.5 23.3,120.1 23.1,124.9 C22.2,145 29.4,151.7 30.6,170.6 C31.5,184.6 27.9,186.4 27.9,197.4 C27.9,210.5 33,229.4 57.4,252.8 C110.3,239.1 143.9,200.4 142.1,163.9 C141.7,157.1 139.6,139.5 121.9,120.3 Z" id="Path" fill="url(#linearGradient-2)"></path>
                    <path d="M53.7,213.6 C53.7,216.2 54.5,218.8 56.1,220.8 C61.2,227.5 68.3,221.2 68.3,214.7 L68.3,209.3 C68.3,206.6 66.1,204.5 63.5,204.5 L58.6,204.5 C55.9,204.5 53.8,206.7 53.8,209.3 L53.8,213.6 L53.7,213.6 Z" id="Path" fill="url(#linearGradient-3)"></path>
                    <path d="M142.1,164 C107,169.7 103.5,115.5 121.9,114.2 C140.3,112.9 141,125.7 153.4,107 C165.8,88.4 167.5,120.7 167.5,120.7 C167.5,120.7 185.8,161.9 166,166.3 C146.2,170.6 142.1,164 142.1,164 Z" id="Path" fill="url(#linearGradient-4)"></path>
                    <path d="M173.8,164 C173.8,164 171.8,197.5 153.4,226.8 C135.1,256.1 55.3,235.6 55.3,235.6 L68.3,209.4 C96.3,178.8 107,169.7 107,169.7 C108.1,169 115.3,164.8 126.9,162.1 C131.7,161 137.2,160.1 143.3,159.9 C147.2,159.8 150.9,159.9 154.4,160.2 C154.4,160.2 154.4,160.2 154.4,160.2 C161.9,160.8 168.5,162.3 173.8,164 Z" id="Path" fill="url(#linearGradient-5)"></path>
                    <path d="M129.3,225.1 C119.7,233.7 110.5,234.8 108.4,235.3 C96.4,238.4 86.2,236.9 80.7,235.6 C82.7,233.4 83.5,232.2 83.3,231.9 C83.1,231.6 81.3,232.7 78.1,235.2 C77.7,233.6 76.8,231.4 74.9,230.6 C71.2,228.9 66.8,233.9 65.3,232.8 C63.7,231.5 64.6,226.9 72.3,212.3 C77,203.4 80,200.8 80.4,200.2 C92.4,184.5 108.4,171.3 129.3,166.2 C129.3,166.2 114.5,187.9 103.9,204.5 L103.9,204.5 C108.8,214.7 114.8,204.4 135.6,186.6 C142.1,181 150.4,177.8 159,177.8 L159.3,177.8 C169,177.8 156.3,201 129.3,225.1 Z" id="Path" fill="url(#radialGradient-6)"></path>
                    <path d="M154.8,213.2 C154.8,217.7 156.2,222.2 158.9,225.8 C167.8,237.4 180.2,226.5 180.2,215.3 L180.2,205.9 C180.2,201.2 176.4,197.5 171.8,197.5 L163.2,197.5 C158.5,197.5 154.8,201.3 154.8,205.9 L154.8,213.2 L154.8,213.2 Z" id="Path" fill="url(#linearGradient-7)"></path>
                    <path d="M142.1,222.7 C142.1,227.2 143.5,231.7 146.2,235.3 C155.1,246.9 167.5,236 167.5,224.8 L167.5,215.4 C167.5,210.7 163.7,207 159.1,207 L150.5,207 C145.8,207 142.1,210.8 142.1,215.4 L142.1,222.7 L142.1,222.7 Z" id="Path" fill="url(#linearGradient-8)"></path>
                    <path d="M101.2,242.9 C101.2,247.9 102.7,252.9 105.8,256.8 C115.7,269.7 129.4,257.5 129.4,245.1 L129.4,234.7 C129.4,229.6 125.2,225.4 120.1,225.4 L110.6,225.4 C105.5,225.4 101.3,229.6 101.3,234.7 L101.3,242.9 L101.2,242.9 Z" id="Path" fill="url(#linearGradient-9)"></path>
                    <path d="M125.3,234.9 C125.3,239.9 126.8,244.9 129.9,248.8 C139.8,261.7 153.5,249.5 153.5,237.1 L153.5,226.7 C153.5,221.6 149.3,217.4 144.2,217.4 L134.7,217.4 C129.6,217.4 125.4,221.6 125.4,226.7 L125.4,234.9 L125.3,234.9 Z" id="Path" fill="url(#linearGradient-10)"></path>
                    <path d="M48,223.1 C48,225.7 48.8,228.3 50.4,230.3 C55.5,237 62.6,230.7 62.6,224.2 L62.6,218.8 C62.6,216.1 60.4,214 57.8,214 L52.9,214 C50.2,214 48.1,216.2 48.1,218.8 L48.1,223.1 L48,223.1 Z" id="Path" fill="url(#linearGradient-11)"></path>
                    <path d="M55.3,242.9 C55.3,247.4 56.7,251.9 59.4,255.5 C68.3,267.1 80.7,256.2 80.7,245 L80.7,235.6 C80.7,230.9 76.9,227.2 72.3,227.2 L63.7,227.2 C59,227.2 55.3,231 55.3,235.6 L55.3,242.9 L55.3,242.9 Z" id="Path" fill="url(#linearGradient-12)"></path>
                    <path d="M44,233.3 C44,236.3 44.9,239.3 46.7,241.7 C52.7,249.5 60.9,242.2 60.9,234.7 L60.9,228.4 C60.9,225.3 58.4,222.8 55.3,222.8 L49.6,222.8 C46.5,222.8 44,225.3 44,228.4 L44,233.3 L44,233.3 Z" id="Path" fill="url(#linearGradient-13)"></path>
                    <path d="M73.8,243.2 C73.8,248.2 75.3,253.2 78.4,257.1 C88.3,270 102,257.8 102,245.4 L102,235 C102,229.9 97.8,225.7 92.7,225.7 L83.2,225.7 C78.1,225.7 73.9,229.9 73.9,235 L73.9,243.2 L73.8,243.2 Z" id="Path" fill="url(#linearGradient-14)"></path>
                    <path d="M42.7,106.7 C37.8,106.3 33.6,100.3 32.7,82.3 C32.6,79.9 32.5,77.2 32.5,74.3 C32.5,70.4 35.7,67.2 39.6,67.2 L54.4,67.2 C56.2,67.2 57.8,67.8 59,68.9 C60.5,70.2 61.4,72.1 61.5,74.1 L61.5,74.2 C61.5,77.1 61.6,79.9 61.7,82.3 C62.4,101.2 63.3,108.2 42.7,106.7 Z" id="Path" fill="url(#linearGradient-15)"></path>
                    <path d="M61.7,82.3 L60.6,84.3 C48.2,76.5 37,80.2 32.7,82.2 C32.6,79.8 32.5,77.1 32.5,74.2 C32.5,70.3 35.7,67.1 39.6,67.1 L54.4,67.1 C56.2,67.1 57.8,67.7 59,68.8 L61.5,74 L61.5,74.1 C61.5,77.1 61.6,79.8 61.7,82.3 Z" id="Path" fill="url(#linearGradient-16)"></path>
                    <path d="M176.7,266.8 C132.2,303.9 81.6,296.7 50.7,282 C40.8,277.3 32.9,271.7 28,266.7 C7.6,245.8 27.8,164 27.8,164 L37.8,164 C37.8,164 37.4,177.9 37.9,192.5 C37.4,194.6 25.9,251.4 87.9,250.6 C139.1,250 154.3,237.3 161.7,218.5 C161.7,218.5 161.7,218.5 161.7,218.4 C162.4,216.8 163,215 163.6,213 C164.3,210.4 164.9,207.5 165.4,204.4 C170,175.9 165.5,130.6 165.5,130.6 L173.7,130.6 C175.6,144.6 214.3,235.5 176.7,266.8 Z" id="Path" fill="url(#linearGradient-17)"></path>
                    <path d="M85.1,111.8 L69.1,114 C64.9,114.6 61,111.6 60.4,107.4 C58.6,95 57.2,87.7 57.4,82.8 C57.7,77.3 60.1,74.6 66.5,70.8 C75.1,65.5 82.6,70.5 87.4,83.6 C89.3,88.8 90.8,95.4 91.8,103.1 C92.2,107.4 89.3,111.2 85.1,111.8 Z" id="Path" fill="url(#linearGradient-18)"></path>
                    <path d="M120.5,103.2 L103.8,108.8 C99.4,110.3 94.7,107.9 93.1,103.5 C90.6,96.3 88.3,90 86.7,84.4 C81.9,68.2 83,59.3 102.2,59.6 C106.1,59.7 110.5,61.5 115.4,68.7 C118.7,73.7 122.2,81.2 125.9,92.5 C127.3,96.9 124.9,101.7 120.5,103.2 Z" id="Path" fill="url(#linearGradient-19)"></path>
                    <path d="M137.7,85.9 C133.2,88.4 125.9,85.3 114.5,68.7 C113.5,67.3 112.6,65.8 111.5,64.2 C109.4,60.9 110.3,56.6 113.6,54.4 L126,46.4 C129.3,44.3 133.6,45.2 135.8,48.4 C136.1,48.9 136.4,49.3 136.7,49.8 C150.1,69.5 157.9,74.9 137.7,85.9 Z" id="Path" fill="url(#linearGradient-20)"></path>
                    <path d="M173.8,130.6 L165.6,130.6 C165.6,130.6 164.9,127.9 163.6,123.4 C161.1,114.8 156.5,99.9 150.7,85.6 C141.4,62.6 129,41.5 117.8,51.8 C72.9,93.1 59.2,66.3 40.7,76 C22.3,85.7 35.8,116.1 37.9,163.9 L27.9,163.9 C19,133.3 -13.6,80.9 8.7,50.8 C13.3,44.6 19.2,41 25.8,39.1 C31.8,37.4 38.3,37.1 44.8,37.7 C63.1,39.4 80.2,29.6 89.4,13.6 C94.9,4.1 106,-2.3 128,2.2 C175.4,12 173.1,73.5 173.2,111.9 C173.1,119.2 173.2,125.6 173.8,130.6 Z" id="Path" fill="url(#linearGradient-21)"></path>
                    <path d="M115,68.4 L115.9,70 C95.7,69 86.6,84.4 86.6,84.4 C81.8,68.2 82.9,59.3 102.1,59.6 C106.1,59.8 110.2,61.3 115,68.4 Z" id="Path" fill="url(#linearGradient-22)"></path>
                    <path d="M87.3,83.6 L86.9,84.4 C72.2,75 59.1,81.9 57.4,82.9 C57.7,77.4 60.1,74.7 66.5,70.9 C75.1,65.6 82.5,70.5 87.3,83.6 Z" id="Path" fill="url(#linearGradient-23)"></path>
                    <path d="M136.8,49.8 C120.1,53 115.9,66.7 115.3,68.7 C114.3,67.3 112.6,65.8 111.6,64.2 C109.5,60.9 110.4,56.6 113.7,54.4 L126.1,46.4 C129.4,44.3 133.7,45.2 135.9,48.4 C136.2,49 136.5,49.4 136.8,49.8 Z" id="Path" fill="url(#linearGradient-24)"></path>
                    <path d="M176.7,266.8 C132.2,303.9 81.6,296.7 50.7,282 L50.7,282 C51.6,282.3 104.5,299.6 153.4,273.1 C202.7,246.4 175.6,187.2 173.8,130.6 C175.6,144.6 214.3,235.5 176.7,266.8 Z" id="Path" fill="url(#linearGradient-25)"></path>
                    <path d="M166,130.6 L165.6,130.6 C165.6,130.6 139.6,31.8 117.7,51.8 C72.8,93.1 59.1,66.3 40.6,76 C22.2,85.7 35.7,116.1 37.8,163.9 L27.8,163.9 C18.9,133.3 -13.7,80.9 8.6,50.8 C13.2,44.6 19.1,41 25.7,39.1 C28.7,57.9 55.3,62.6 73.8,60.7 L73.8,60.7 C88.1,58 97.2,50 106,41.2 C117.8,29.4 144.6,-4.1 160.2,100.6 L166,130.6 Z" id="Path" fill="url(#linearGradient-26)"></path>
                    <path d="M154.3,160.1 C135.6,172.4 110.9,204.5 110.9,204.5 C110.9,204.5 134.3,171.2 139.3,167.7 C144.7,164 150.8,159.8 154.3,160.1 Z" id="Path" fill="url(#linearGradient-27)"></path>
                    <path d="M150.4,247.4 C150.5,249.6 150.2,254.4 147,258.6 C146,259.9 144.7,261.6 142.5,262.3 C139.1,263.4 137.4,260.9 135.4,261.9 C131.8,263.7 134.7,273.4 130.4,276 C128.7,277.1 126.8,277.1 126.8,277.1 C119.1,277.6 121.6,265.8 116.8,270.4 C112,275 108.5,280.9 102.9,277.8 C99,275.6 101.3,272.3 100.5,271.5 C99.8,270.8 97.9,271.7 96.7,272.4 C90.9,275.5 89.2,279 87.7,278.5 C85.4,277.8 87.2,269.6 84.8,268.6 C83.7,268.1 81.8,269.1 78.3,273.3 C67.9,292.1 57.4,253 57.4,253 C60,261 64.3,265.4 66.7,267.5 C70.1,270.4 72.1,270.6 72.9,270.7 C78.6,270.9 82.5,263.6 82.8,263.1 L82.8,263.1 C85.2,259.1 87.2,256.5 88.5,256.9 C88.7,257 89.1,257.1 89.6,258.7 C91.4,264.6 89.4,274.1 94,269.2 C98.6,264.3 101.3,256.6 104.1,266.6 C104.8,269.1 105.7,270.2 106.6,270.4 C108.1,270.7 109.4,266.4 114.2,259.7 C115.4,258.1 116.2,257 117.2,257.1 C118.5,257.2 118.9,259.4 120.6,262.7 C121.5,264.5 124.5,270.3 126.7,270 C127,269.9 127.7,269.7 129.4,264.7 C131.4,258.8 131.2,257.1 132.7,256.4 C134.3,255.6 136.5,255.9 139.5,257.6 C141.7,258.8 142.1,258.4 142.6,258.4 C144.7,258.2 147.3,256.2 150.4,247.4 Z" id="Path" fill="url(#linearGradient-28)" opacity="0.199355015"></path>
                    <path d="M156.27868,32.6071068 C155.37868,33.1071068 152.67868,29.5071068 149.37868,25.9071068 C149.37868,25.9071068 144.67868,18.4071068 134.47868,13.5071068 C114.97868,4.20710678 93.9786797,15.0071068 93.6786797,14.0071068 C93.3786797,13.0071068 114.17868,-0.0928932188 134.47868,7.30710678 C135.67868,7.70710678 150.07868,13.2071068 154.97868,25.6071068 C155.87868,27.8071068 157.17868,32.1071068 156.27868,32.6071068 Z" id="Path" fill="#FFFDFD"></path>
                    <path d="M148.9,76.2 C148.8,76.2 147.4,73.2 144.8,68.7 C136.8,54.7 132.9,51.6 130.3,50 C128.3,48.8 127,48 125,47.7 C116.6,46.6 109.7,56.6 109.4,56.3 C109.1,56 116,44.6 124.4,45.6 C126.5,45.8 127.9,46.8 130.1,48.3 C131.7,49.4 136.1,52.6 143.1,64.7 C146.5,70.8 149,76.2 148.9,76.2 Z" id="Path" fill="url(#linearGradient-29)"></path>
                    <path d="M161.7,218.5 C161.4,218.3 157.2,230.5 150,238.8 C133.6,257.7 101.9,255.4 91.8,254.6 C74.5,253.3 55.6,251.6 44.3,236.6 C30.9,218.8 36.8,196 37.8,192.4 C37.8,192.4 37.8,192.4 37.8,192.4 C37.8,192.4 37.8,192.5 37.8,192.5 C37.8,192.6 34.9,208 39.4,222 C41.1,227.3 44,233.1 44,233.1 L44,233.1 C50.4,241.4 59.2,244 70.1,247.1 C84.7,251.3 96.4,250.2 108.9,248.9 C111.7,248.6 137.6,245.9 145.4,238.2 C146.4,237.2 155.2,228.1 156.5,226.7 C156.9,226.3 157.7,225.5 158.6,224.3 C159.7,223.1 161.9,218.6 161.7,218.5 Z" id="Path" fill="url(#linearGradient-30)"></path>
                    <path d="M166,204.5 C165.3,207.5 164.5,210.3 163.6,213.1 C164.3,210.5 164.9,207.6 165.4,204.5 L166,204.5 Z" id="Path" fill="url(#linearGradient-31)"></path>
                </g>
            </g>
        </g>
    </g>
</svg>