<?xml version="1.0" encoding="UTF-8"?>
<svg width="197px" height="113px" viewBox="0 0 197 113" version="1.1" xmlns="http://www.w3.org/2000/svg" xmlns:xlink="http://www.w3.org/1999/xlink">
    <title>Group 5</title>
    <g id="English" stroke="none" stroke-width="1" fill="none" fill-rule="evenodd">
        <g id="Group-5">
            <path d="M196.08,60.32 C196.08,89.12 152.16,112.48 98.08,112.48 C44,112.48 8.66862138e-13,89.12 8.66862138e-13,60.32 C8.66862138e-13,31.52 43.92,8.16 98.08,8.16 C152.24,8.16 196.08,31.52 196.08,60.32 Z" id="Path" fill="#E30614"></path>
            <path d="M196.08,51.92 C196.08,80.72 152.16,104.08 98.08,104.08 C44,104.08 8.66862138e-13,80.88 8.66862138e-13,51.92 C8.66862138e-13,22.96 43.92,-3.55271368e-14 98.08,-3.55271368e-14 C152.24,-3.55271368e-14 196.08,23.28 196.08,51.92 Z" id="Path" fill="#FF6969" fill-rule="nonzero"></path>
            <path d="M185.68,51.92 C185.68,75.92 146.4,95.84 97.68,95.84 C48.96,95.84 9.68,76.24 9.68,51.92 C9.68,27.6 48.96,8 97.68,8 C146.4,8 185.68,27.92 185.68,51.92 Z" id="Path" fill="#FF4343" fill-rule="nonzero"></path>
            <path d="M39.6,74.4 C31.6,74.4 6.56,46.16 38.88,26.8 C71.2,7.44 114.64,13.76 123.6,15.84 C136.16,18.88 122.88,30.56 108,31.84 C97.0832761,32.6042828 86.3195471,34.8377566 76,38.48 C64.56,43.52 60,51.04 60.56,54.88 C60.88,61.68 46.8,74.24 39.6,74.4 Z" id="Path" fill="#ED2B2B" fill-rule="nonzero"></path>
            <path d="M69.2,62.96 C60.16,67.76 46.32,80.24 61.76,84.72 C91.6947067,93.2357176 123.692996,90.7087897 151.92,77.6 C175.92,66.32 181.44,47.76 167.52,34.72 C157.44,25.28 147.44,24.48 141.76,28.16 C128.56,36.64 140.16,52.16 114.56,56.88 C99.52,59.92 79.52,57.6 69.2,62.96 Z" id="Path" fill="#ED2B2B" fill-rule="nonzero"></path>
            <path d="M105.68,26.8 C105.68,26.8 112.56,17.84 104.24,18.08 C99.12,18.16 105.68,26.8 105.68,26.8 Z" id="Path" fill="#FF6969" fill-rule="nonzero"></path>
            <path d="M96.64,27.92 C96.64,27.92 96.64,16.56 87.84,18 C82.08,18.88 96.64,27.92 96.64,27.92 Z" id="Path" fill="#FF6969" fill-rule="nonzero"></path>
            <path d="M83.68,28.96 C83.68,28.96 77.92,18.72 71.52,20.96 C65.12,23.2 83.68,28.96 83.68,28.96 Z" id="Path" fill="#FF6969" fill-rule="nonzero"></path>
            <path d="M70.4,34 C70.4,34 63.6,21.76 54.8,25.44 C46,29.12 70.4,34 70.4,34 Z" id="Path" fill="#FF6969" fill-rule="nonzero"></path>
            <path d="M60.08,41.2 C60.08,41.2 49.36,28.4 39.52,34.72 C32.96,38.96 60.08,41.2 60.08,41.2 Z" id="Path" fill="#FF6969" fill-rule="nonzero"></path>
            <path d="M54.08,48.64 C54.08,48.64 38.08,43.2 33.04,47.04 C28,50.88 42.88,56.08 54.08,48.64 Z" id="Path" fill="#FF6969" fill-rule="nonzero"></path>
            <path d="M52.88,56.88 C47.3267125,57.0874254 41.8775715,58.4497106 36.88,60.88 C34.24,62.64 36.88,66.96 42.08,65.92 C47.0367404,65.0530408 51.154024,61.6067219 52.88,56.88 L52.88,56.88 Z" id="Path" fill="#FF6969" fill-rule="nonzero"></path>
            <path d="M141.2,37.12 C144.348076,34.4401796 148.345779,32.9658492 152.48,32.96 C158.88,32.96 161.92,37.44 154.4,38 C149.98067,38.3579795 145.532701,38.0614482 141.2,37.12 L141.2,37.12 Z" id="Path" fill="#FF6969" fill-rule="nonzero"></path>
            <path d="M75.68,65.36 C71.9119565,67.4325674 68.5291485,70.1388138 65.68,73.36 C63.6,76.96 71.84,80.72 74.32,74.16 C76.8,67.6 75.68,65.36 75.68,65.36 Z" id="Path" fill="#FF6969" fill-rule="nonzero"></path>
            <path d="M87.36,65.36 C85.3871916,67.9475006 84.3951458,71.1503915 84.56,74.4 C84.56,80 92.08,81.36 91.6,74.4 C91.7210857,70.880477 90.1435961,67.5171502 87.36,65.36 L87.36,65.36 Z" id="Path" fill="#FF6969" fill-rule="nonzero"></path>
            <path d="M99.84,63.92 C99.9574183,67.4642774 100.494498,70.9821476 101.44,74.4 C102.96,78.96 113.44,81.36 109.44,73.36 C107.567761,69.0995135 104.131349,65.720375 99.84,63.92 L99.84,63.92 Z" id="Path" fill="#FF6969" fill-rule="nonzero"></path>
            <path d="M114.88,62.88 C116.953573,67.2212016 119.830998,71.1301559 123.36,74.4 C128.96,79.36 134.8,75.6 129.68,70.08 C125.516747,66.3436438 120.389407,63.849262 114.88,62.88 L114.88,62.88 Z" id="Path" fill="#FF6969" fill-rule="nonzero"></path>
            <path d="M128.08,57.92 C131.559171,62.0816284 135.693366,65.6483852 140.32,68.48 C146.96,72.16 153.6,68.48 145.6,63.92 C140.137703,60.9518636 134.215093,58.9235727 128.08,57.92 L128.08,57.92 Z" id="Path" fill="#FF6969" fill-rule="nonzero"></path>
            <path d="M137.68,50.4 C143.291602,54.2995509 149.50854,57.2458389 156.08,59.12 C163.12,60.24 167.68,52.8 159.68,51.12 C152.373704,50.3486317 145.021097,50.1080009 137.68,50.4 L137.68,50.4 Z" id="Path" fill="#FF6969" fill-rule="nonzero"></path>
            <path d="M142.16,44.32 C147.100821,42.7530135 152.256731,41.970179 157.44,42 C163.12,42.64 168.08,46.48 161.92,46.8 C155.278303,46.4949743 148.671082,45.665728 142.16,44.32 L142.16,44.32 Z" id="Path" fill="#FF6969" fill-rule="nonzero"></path>
        </g>
    </g>
</svg>