<?xml version="1.0" encoding="UTF-8"?>
<svg width="226px" height="159px" viewBox="0 0 226 159" version="1.1" xmlns="http://www.w3.org/2000/svg" xmlns:xlink="http://www.w3.org/1999/xlink">
    <title>Group 13</title>
    <g id="English" stroke="none" stroke-width="1" fill="none" fill-rule="evenodd">
        <g id="02-bananza-v3" transform="translate(-601.000000, -217.000000)">
            <g id="Illustration---burger" transform="translate(575.000000, -100.000000)">
                <g id="Group-13" transform="translate(26.800000, 317.000000)">
                    <g id="Group-8" transform="translate(3.168452, 25.000000)">
                        <ellipse id="Oval" fill="#8E1929" cx="110.591548" cy="74.88" rx="110.24" ry="58.64"></ellipse>
                        <path d="M220.511548,79.2 L0.351547619,74.88 C-1.37034816,60.7246533 3.29062662,46.5365288 13.0715476,36.16 C45.4715476,-1.12 177.071548,1.12 210.511548,40 C223.631548,55.28 220.511548,79.2 220.511548,79.2 Z" id="Path" fill="#8E1929" fill-rule="nonzero"></path>
                        <path d="M110.591548,110.56 C113.843404,110.560175 117.060402,110.480844 120.236065,110.325624 C122.661281,110.207085 125.062389,110.044286 127.436507,109.83876 C130.403605,109.581901 131.154398,111.707337 134.031548,111.32 C136.194658,111.02879 140.504903,108.252519 142.611596,107.890522 C145.822554,107.338777 148.9652,106.706286 152.031063,105.997552 C155.862322,105.111882 159.456636,102.435006 163.031548,101.32 C166.030835,100.38453 169.051122,101.043583 171.848567,99.9580605 C178.159678,97.5090935 183.932285,94.6914785 189.054274,91.5648097 C192.417358,89.5118474 196.261189,88.6225715 199.031548,86.32 C209.363607,77.732555 214.591548,66.2295743 214.591548,55.28 C214.591548,24.749699 168.029162,-1.13686838e-13 110.591548,-1.13686838e-13 C53.1539336,-1.13686838e-13 6.59154762,24.749699 6.59154762,55.28 C6.59154762,64.198777 10.5651432,72.6242422 17.6226528,80.0834956 C18.6671512,81.1874513 19.7791979,82.2702436 20.9559089,83.3303396 C25.4269737,87.3583105 30.8316085,91.05861 37.011606,94.3471447 C38.9862292,95.3978923 41.0400109,96.406602 43.1677901,97.3705307 C44.8278723,98.1225827 46.5329971,98.8473764 48.2807136,99.5436089 C49.6352608,100.083216 51.0153922,100.605666 52.4199667,101.110354 C58.2255258,103.196392 64.4486805,104.978965 71.0088575,106.415245 C73.4376068,106.946994 75.9125509,107.431277 78.429601,107.865922 C79.7222267,108.089133 81.7172663,106.123266 83.0315476,106.32 C85.9353443,106.754667 84.1284849,108.711447 87.0315476,109.32 C89.6974346,109.878835 94.2873299,109.151226 98.0315476,109.32 C102.823555,109.536004 106.871426,110.560088 110.591548,110.56 Z" id="Oval" fill="#A21A26"></path>
                        <g id="Group-3" opacity="0.0828915551" transform="translate(4.008430, 9.715891)" fill-rule="nonzero">
                            <path d="M16.7431178,53.9641089 C16.7431178,53.9641089 9.54311777,65.4041089 17.6231178,65.5641089 C25.7031178,65.7241089 16.7431178,53.9641089 16.7431178,53.9641089 Z" id="Path" fill="#EAEAEA"></path>
                            <path d="M136.823118,48.5241089 C136.823118,48.5241089 147.623118,40.5241089 140.183118,37.4041089 C132.743118,34.2841089 136.823118,48.5241089 136.823118,48.5241089 Z" id="Path" fill="#000000"></path>
                            <path d="M201.611846,82.6041089 C201.611846,82.6041089 188.651846,86.3641089 194.571846,91.8041089 C200.491846,97.2441089 201.611846,82.6041089 201.611846,82.6041089 Z" id="Path" fill="#000000"></path>
                            <path d="M80.8231178,84.3641089 C80.8231178,84.3641089 86.6631178,73.8841089 94.6631178,76.3641089 C102.663118,78.8441089 90.9031178,88.7641089 80.8231178,84.3641089 Z" id="Path" fill="#EAEAEA"></path>
                            <path d="M97.3031178,22.6041089 C97.3031178,22.6041089 103.143118,12.1241089 111.143118,14.6041089 C119.143118,17.0841089 107.383118,27.2441089 97.3031178,22.6041089 Z" id="Path" fill="#000000"></path>
                            <path d="M152.023118,105.983812 C152.023118,105.983812 157.863118,95.5038118 165.863118,97.9838118 C173.863118,100.463812 162.103118,110.383812 152.023118,105.983812 Z" id="Path" fill="#000000"></path>
                            <path d="M142.103118,73.8041089 C142.103118,73.8041089 134.903118,85.2441089 142.983118,85.4041089 C151.063118,85.5641089 142.103118,73.8041089 142.103118,73.8041089 Z" id="Path" fill="#000000"></path>
                            <path d="M37.6231178,38.1241089 C37.6231178,38.1241089 31.7831178,27.6441089 23.8631178,30.1241089 C15.9431178,32.6041089 27.5431178,42.6041089 37.6231178,38.1241089 Z" id="Path" fill="#000000"></path>
                            <polygon id="Path" fill="#EAEAEA" points="161.063118 38.6041089 157.703118 47.7241089 169.223118 44.2041089"></polygon>
                            <polygon id="Path" fill="#EAEAEA" points="188.823118 23.9641089 195.703118 38.6041089 201.783118 31.2441089"></polygon>
                            <polygon id="Path" fill="#EAEAEA" points="113.783118 31.2441089 111.383118 39.8841089 120.183118 36.9241089"></polygon>
                            <polygon id="Path" fill="#EAEAEA" points="56.3431178 31.0841089 68.5831178 38.6041089 69.3831178 29.9641089"></polygon>
                            <path d="M40.0231178,10.6841089 L32.0231178,17.4041089 C32.0231178,17.4041089 42.6631178,20.3641089 42.1031178,19.3241089 C41.5431178,18.2841089 40.0231178,10.6841089 40.0231178,10.6841089 Z" id="Path" fill="#EAEAEA"></path>
                            <polygon id="Path" fill="#EAEAEA" points="79.7831178 6.44410888 85.4631178 15.0841089 90.1031178 7.16410888"></polygon>
                            <polygon id="Path" fill="#EAEAEA" points="120.183118 0.36410888 123.143118 10.6841089 129.463118 4.92410888"></polygon>
                            <path d="M175.623118,29.9641089 C175.623118,29.9641089 170.023118,19.4841089 162.023118,22.6041089 C154.023118,25.7241089 165.543118,34.3641089 175.623118,29.9641089 Z" id="Path" fill="#000000"></path>
                            <path d="M16.4062355,78.9838118 C16.4062355,78.9838118 10.5662355,68.5038118 2.64623553,70.9838118 C-5.27376447,73.4638118 6.32623553,83.3838118 16.4062355,78.9838118 Z" id="Path" fill="#000000"></path>
                            <path d="M54.5031178,50.6841089 C54.5031178,50.6841089 40.6631178,54.7641089 46.5031178,59.7241089 C52.3431178,64.6841089 54.5031178,50.6841089 54.5031178,50.6841089 Z" id="Path" fill="#000000"></path>
                            <path d="M146.023118,10.6841089 C146.023118,10.6841089 140.743118,-2.75589112 136.263118,3.80410888 C131.783118,10.3641089 146.023118,10.6841089 146.023118,10.6841089 Z" id="Path" fill="#000000"></path>
                            <path d="M170.023118,58.3641089 C170.023118,58.3641089 156.183118,62.4441089 162.023118,67.4041089 C167.863118,72.3641089 170.023118,58.3641089 170.023118,58.3641089 Z" id="Path" fill="#000000"></path>
                            <path d="M66.5831178,20.9241089 C66.5831178,20.9241089 62.3431178,7.16410888 57.3831178,13.3241089 C52.4231178,19.4841089 66.5831178,20.9241089 66.5831178,20.9241089 Z" id="Path" fill="#000000"></path>
                            <path d="M36.6631178,93.0841089 C36.6631178,93.0841089 34.3431178,107.324109 41.5431178,103.964109 C48.7431178,100.604109 36.6631178,93.0841089 36.6631178,93.0841089 Z" id="Path" fill="#000000"></path>
                            <path d="M84.5831178,44.2041089 C84.5831178,44.2041089 87.5431178,58.2841089 93.0631178,52.6041089 C98.5831178,46.9241089 84.5831178,44.2041089 84.5831178,44.2041089 Z" id="Path" fill="#000000"></path>
                            <polygon id="Path" fill="#EAEAEA" points="37.6231178 65.9641089 32.4231178 74.6041089 45.2231178 76.1241089"></polygon>
                            <polygon id="Path" fill="#000000" points="87.6231178 60.8441089 74.0231178 67.4041089 85.0631178 71.0041089"></polygon>
                            <path d="M123.383118,68.5241089 C123.383118,68.5241089 115.383118,77.9641089 115.943118,78.2841089 C116.503118,78.6041089 127.063118,80.8441089 127.063118,80.8441089 L123.383118,68.5241089 Z" id="Path" fill="#EAEAEA"></path>
                            <polygon id="Path" fill="#EAEAEA" points="175.623118 71.9641089 167.463118 77.2441089 175.623118 83.0841089"></polygon>
                            <path d="M94.0231178,101.604109 L94.5031178,116.244109 C94.5031178,116.244109 105.943118,102.004109 104.663118,102.964109 C101.068938,103.035195 97.4838628,102.576952 94.0231178,101.604109 Z" id="Path" fill="#000000"></path>
                            <polygon id="Path" fill="#EAEAEA" points="195.303118 55.7241089 187.703118 60.8441089 198.103118 65.1641089"></polygon>
                        </g>
                        <g id="Group-6" transform="translate(22.031548, 91.320000)">
                            <path d="M2,9 C3.1,9 4,6.97752809 4,4.5 C4,2.02247191 3.1,0 2,0 C0.9,0 0,2.02247191 0,4.5 C0,6.97752809 0.9,9 2,9 Z" id="Path" fill="#A21A26"></path>
                            <path d="M2.31525748,6.90531978 C3.55649896,7.24944238 4.84794137,6.63633689 5.53246367,5.37796806 C6.21698598,4.11959923 6.14421844,2.49239427 5.35118716,1.32431932 C4.55815588,0.156244378 3.21906689,-0.296108291 2.01528508,0.197430656 C0.811503266,0.690969604 0.00746466353,2.02198395 0.012285982,3.51321738 C-0.124282261,5.18355413 0.892699082,6.68149054 2.31525748,6.90531978 Z" id="Path" fill="#80232A"></path>
                            <path d="M8.50943396,16 C9.33962264,16 10,14.4225352 10,12.5 C10,10.5774648 9.33962264,9 8.50943396,9 C7.67924528,9 7,10.5774648 7,12.5 C7,14.4225352 7.67924528,16 8.50943396,16 Z" id="Path" fill="#A21A26"></path>
                            <path d="M8,14 C9.1045695,14 10,12.8807119 10,11.5 C10,10.1192881 9.1045695,9 8,9 C6.8954305,9 6,10.1192881 6,11.5 C6,12.8807119 6.8954305,14 8,14 Z" id="Path" fill="#80232A"></path>
                            <path d="M66,29 C67.1,29 68,26.9775281 68,24.5 C68,22.0224719 67.1,20 66,20 C64.9,20 64,22.0224719 64,24.5 C64,26.9775281 64.9,29 66,29 Z" id="Path" fill="#A21A26"></path>
                            <path d="M65.3165694,26.9053198 C66.557369,27.2494424 67.8483516,26.6363369 68.5326301,25.3779681 C69.2169087,24.1195992 69.1441671,22.4923943 68.3514182,21.3243193 C67.5586692,20.1562444 66.220057,19.7038917 65.0167038,20.1974307 C63.8133506,20.6909696 63.0095983,22.0219839 63.0144179,23.5132174 C62.8653966,25.1878481 63.8881026,26.694753 65.3165694,26.9053198 Z" id="Path" fill="#80232A"></path>
                            <path d="M126.509434,39 C127.339623,39 128,37.4416961 128,35.5123675 C128,33.5830389 127.339623,32 126.509434,32 C125.679245,32 125,33.5583039 125,35.5123675 C125,37.4664311 125.679245,39 126.509434,39 Z" id="Path" fill="#A21A26"></path>
                            <path d="M126.605203,36.9494584 C127.428554,37.1597277 128.268877,36.7016456 128.707087,35.8036672 C129.145296,34.9056888 129.087534,33.7601473 128.562606,32.9383482 C128.037679,32.1165491 127.158019,31.7945091 126.362331,32.1328363 C125.566642,32.4711636 125.02535,33.3973936 125.008407,34.449596 C124.914263,35.6862433 125.621229,36.7930335 126.605203,36.9494584 L126.605203,36.9494584 Z" id="Path" fill="#80232A"></path>
                            <path d="M58.490566,30 C59.3207547,30 60,28.4169611 60,26.4876325 C60,24.5583039 59.3207547,23 58.490566,23 C57.6603774,23 57,24.5583039 57,26.4876325 C57,28.4169611 57.6603774,30 58.490566,30 Z" id="Path" fill="#A21A26"></path>
                            <path d="M59,28 C60.1045695,28 61,26.8807119 61,25.5 C61,24.1192881 60.1045695,23 59,23 C57.8954305,23 57,24.1192881 57,25.5 C57,26.8807119 57.8954305,28 59,28 Z" id="Path" fill="#80232A"></path>
                            <path d="M117.490566,28 C118.320755,28 119,26.4225352 119,24.5 C119,22.5774648 118.320755,21 117.490566,21 C116.660377,21 116,22.5774648 116,24.5 C116,26.4225352 116.660377,28 117.490566,28 Z" id="Path" fill="#A21A26"></path>
                            <path d="M117.58543,25.9442461 C118.408444,26.1653814 119.25376,25.7160508 119.698562,24.8210031 C120.143363,23.9259553 120.092029,22.7776048 119.570236,21.95034 C119.048443,21.1230753 118.168364,20.7947389 117.370203,21.1295601 C116.572041,21.4643812 116.027382,22.3903813 116.008657,23.4443881 C115.913751,24.6725227 116.609533,25.7756334 117.58543,25.9442461 Z" id="Path" fill="#80232A"></path>
                            <path d="M50,25 C51.6642336,25 53,22.3196721 53,19 C53,15.6803279 51.6642336,13 50,13 C48.3357664,13 47,15.704918 47,19 C47,22.295082 48.3357664,25 50,25 Z" id="Path" fill="#A21A26"></path>
                            <path d="M50.0732972,21.8740948 C51.7261995,22.3239885 53.4503573,21.5433535 54.3684029,19.9294295 C55.2864485,18.3155055 55.1966937,16.2228604 54.1448117,14.716373 C53.0929298,13.2098856 51.3100118,12.6205206 49.7033267,13.2481868 C48.0966415,13.8758529 47.0191667,15.5826563 47.019194,17.5000603 C46.8213924,19.6492842 48.1741383,21.5866639 50.0732972,21.8740948 L50.0732972,21.8740948 Z" id="Path" fill="#80232A"></path>
                            <path d="M37.5,26 C38.325,26 39,24.4169611 39,22.4876325 C39,20.5583039 38.325,19 37.5,19 C36.675,19 36,20.5583039 36,22.4876325 C36,24.4169611 36.675,26 37.5,26 Z" id="Path" fill="#A21A26"></path>
                            <path d="M37.6052031,23.9494584 C38.4285539,24.1597277 39.2688775,23.7016456 39.7070868,22.8036672 C40.1452962,21.9056888 40.0875336,20.7601473 39.5626065,19.9383482 C39.0376794,19.1165491 38.1580191,18.7945091 37.3623306,19.1328363 C36.5666422,19.4711636 36.0253497,20.3973936 36.0084072,21.449596 C35.9142628,22.6862433 36.6212289,23.7930335 37.6052031,23.9494584 Z" id="Path" fill="#80232A"></path>
                            <path d="M107,26 C108.1,26 109,23.9775281 109,21.5 C109,19.0224719 108.1,17 107,17 C105.9,17 105,19.0224719 105,21.5 C105,23.9775281 105.9,26 107,26 Z" id="Path" fill="#A21A26"></path>
                            <path d="M106.31667,23.9053221 C107.55538,24.2488735 108.844361,23.6383889 109.529551,22.3836445 C110.214742,21.1289001 110.146147,19.5045689 109.358574,18.3348797 C108.571001,17.1651905 107.236856,16.7061971 106.03312,17.190805 C104.829383,17.6754128 104.019561,18.9975376 104.01458,20.486298 C103.864849,22.1665404 104.884837,23.6814087 106.31667,23.9053221 L106.31667,23.9053221 Z" id="Path" fill="#80232A"></path>
                            <path d="M91,39 C92.1,39 93,36.9775281 93,34.5 C93,32.0224719 92.1,30 91,30 C89.9,30 89,32.0224719 89,34.5 C89,36.9775281 89.9,39 91,39 Z" id="Path" fill="#A21A26"></path>
                            <path d="M162,16 C163.1,16 164,13.9775281 164,11.5 C164,9.02247191 163.1,7 162,7 C160.9,7 160,9.02247191 160,11.5 C160,13.9775281 160.9,16 162,16 Z" id="Path-Copy" fill="#A21A26"></path>
                            <path d="M91.3152575,36.9053198 C92.556499,37.2494424 93.8479414,36.6363369 94.5324637,35.3779681 C95.216986,34.1195992 95.1442184,32.4923943 94.3511872,31.3243193 C93.5581559,30.1562444 92.2190669,29.7038917 91.0152851,30.1974307 C89.8115033,30.6909696 89.0074647,32.0219839 89.012286,33.5132174 C88.8757177,35.1835541 89.8926991,36.6814905 91.3152575,36.9053198 L91.3152575,36.9053198 Z" id="Path" fill="#80232A"></path>
                            <path d="M162.315257,13.9053198 C163.556499,14.2494424 164.847941,13.6363369 165.532464,12.3779681 C166.216986,11.1195992 166.144218,9.49239427 165.351187,8.32431932 C164.558156,7.15624438 163.219067,6.70389171 162.015285,7.19743066 C160.811503,7.6909696 160.007465,9.02198395 160.012286,10.5132174 C159.875718,12.1835541 160.892699,13.6814905 162.315257,13.9053198 L162.315257,13.9053198 Z" id="Path-Copy-2" fill="#80232A"></path>
                        </g>
                    </g>
                    <g id="Group-11" transform="translate(49.200000, 16.000000)" fill-rule="nonzero">
                        <path d="M172.4,53.12 C172.4,78.4 133.84,98.96 86.24,98.96 C38.64,98.96 7.38964445e-13,78.4 7.38964445e-13,53.12 C7.38964445e-13,27.84 38.56,7.2 86.24,7.2 C133.92,7.2 172.4,28 172.4,53.12 Z" id="Path" fill="#5E8E11"></path>
                        <ellipse id="Oval" fill="#BED134" cx="86.24" cy="45.84" rx="86.24" ry="45.84"></ellipse>
                        <path d="M163.44,45.84 C163.44,67.2 128.88,84.56 86.24,84.56 C43.6,84.56 8.96,67.2 8.96,45.84 C8.96,24.48 43.52,7.2 86.24,7.2 C128.96,7.2 163.44,24.56 163.44,45.84 Z" id="Path" fill="#71AA21"></path>
                        <path d="M81.92,42.48 C81.92,42.48 65.92,20.56 44.08,22.24 C15.44,24.48 19.28,34.72 26.88,42.48 C34.48,50.24 59.2,48.72 81.92,42.48 Z" id="Path" fill="#5E8E11"></path>
                        <path d="M88.72,42.08 C100.317038,32.1673205 114.721492,26.1258407 129.92,24.8 C152.08,24.8 153.36,34.56 145.92,42.48 C136.64,52 111.76,48.32 88.72,42.08 Z" id="Path" fill="#5E8E11"></path>
                        <path d="M81.92,45.84 C81.92,45.84 50.4,53.28 40.96,56.8 C31.52,60.32 39.76,73.44 59.6,73.6 C85.84,73.84 81.92,45.84 81.92,45.84 Z" id="Path" fill="#5E8E11"></path>
                        <path d="M88.08,45.84 C101.939926,48.6722009 115.617755,52.3320887 129.04,56.8 C140.48,61.92 124.56,73.44 104.64,73.6 C78.8,73.84 88.08,45.84 88.08,45.84 Z" id="Path" fill="#5E8E11"></path>
                    </g>
                    <g id="Group-7" fill-rule="nonzero">
                        <path d="M172.48,53.04 C172.48,78.4 133.92,98.96 86.24,98.96 C38.56,98.96 0.08,78.24 0.08,53.04 C0.08,27.84 38.64,7.2 86.24,7.2 C133.84,7.2 172.48,27.76 172.48,53.04 Z" id="Path" fill="#5E8E11"></path>
                        <ellipse id="Oval" fill="#BED134" cx="86.24" cy="45.84" rx="86.24" ry="45.84"></ellipse>
                        <ellipse id="Oval" fill="#71AA21" cx="86.24" cy="45.84" rx="77.2" ry="38.64"></ellipse>
                        <path d="M82.24,42.48 C82.24,42.48 66.24,20.56 44.48,22.24 C15.84,24.48 19.68,34.72 27.28,42.48 C34.88,50.24 59.28,48.72 82.24,42.48 Z" id="Path" fill="#5E8E11"></path>
                        <path d="M89.2,42.08 C100.775304,32.1825979 115.149468,26.1420932 130.32,24.8 C152.48,24.8 153.76,34.56 146.32,42.48 C136.64,52.32 111.76,48.32 89.2,42.08 Z" id="Path" fill="#5E8E11"></path>
                        <path d="M82.24,46.24 C82.24,46.24 50.8,53.28 41.2,56.72 C31.6,60.16 40,73.36 59.92,73.6 C85.92,73.84 82.24,46.24 82.24,46.24 Z" id="Path" fill="#5E8E11"></path>
                        <path d="M88.16,46.24 C102.030252,48.9407639 115.733043,52.4399172 129.2,56.72 C140.64,61.84 124.72,73.44 105.2,73.6 C78.88,73.84 88.16,46.24 88.16,46.24 Z" id="Path" fill="#5E8E11"></path>
                        <path d="M86.24,38.24 C80.5153348,33.3129076 75.1670924,27.9646652 70.24,22.24 C67.36,17.68 73.76,11.44 88.8,11.36 C109.52,11.36 111.2,17.36 104.32,24.88 C98.9774932,30.1916583 92.88626,34.6927023 86.24,38.24 L86.24,38.24 Z" id="Path" fill="#5E8E11"></path>
                    </g>
                </g>
            </g>
        </g>
    </g>
</svg>