<?xml version="1.0" encoding="UTF-8"?>
<svg width="224px" height="161px" viewBox="0 0 224 161" version="1.1" xmlns="http://www.w3.org/2000/svg" xmlns:xlink="http://www.w3.org/1999/xlink">
    <title>Group 4</title>
    <defs>
        <linearGradient x1="63.3678977%" y1="32.528229%" x2="50%" y2="69.408365%" id="linearGradient-1">
            <stop stop-color="#F8B500" offset="0%"></stop>
            <stop stop-color="#FF9602" offset="100%"></stop>
        </linearGradient>
        <linearGradient x1="63.3678977%" y1="37.3052587%" x2="50%" y2="64.1018431%" id="linearGradient-2">
            <stop stop-color="#FF9900" offset="0%"></stop>
            <stop stop-color="#EE8300" offset="98.361014%"></stop>
        </linearGradient>
    </defs>
    <g id="English" stroke="none" stroke-width="1" fill="none" fill-rule="evenodd">
        <g id="Group-4">
            <path d="M130.0296,123.107421 C186.20005,114.919309 206.342077,82.4182059 203.64,43.6065537 C181.056014,16.1989943 149.656167,0.234085127 114.144663,0.613261521 C58.2198558,0.613261521 12.2026648,37.7054101 1.64,86.8340837 C21.4552317,131.131771 83.6848849,129.821673 130.0296,123.107421 Z" id="Path" fill="url(#linearGradient-1)"></path>
            <path d="M0,100.886554 C0.00775849987,101.019774 0.00775849987,101.153333 0,101.286554 C0,101.286554 0,101.286554 0,101.846554 L0,101.846554 C1.04,134.326554 50.8,160.566554 112,160.566554 C173.2,160.566554 223.2,134.326554 224,101.846554 L224,101.846554 L224,100.886554 C223.949578,99.3338563 223.816054,97.7849725 223.6,96.2465537 C222.02887,76.2823559 214.504548,57.2486096 202,41.6065537 C204.64,79.2865537 182.64,111.606554 127.76,119.526554 C82.48,126.086554 21.68,127.526554 2.32,84.0865537 C1.42183468,88.0376611 0.80693782,92.0478581 0.48,96.0865537 C0.18896335,97.6707292 0.02842456,99.2761171 0,100.886554 Z" id="Path" fill="url(#linearGradient-2)"></path>
            <path d="M83.44,29.6065537 C82.9846313,32.7891214 80.0724464,35.0265317 76.88,34.6465537 C73.6875536,35.0265317 70.7753687,32.7891214 70.32,29.6065537 C70.32,26.8865537 73.28,24.6465537 76.88,24.6465537 C80.48,24.6465537 83.44,26.8865537 83.44,29.6065537 Z" id="Path" fill="#F4B12C" fill-rule="nonzero"></path>
            <path d="M127.44,87.8465537 C125.435278,90.1547032 122.147926,90.8631095 119.37049,89.5854889 C116.593054,88.3078683 114.991853,85.3507279 115.44,82.3265537 C117.444722,80.0184043 120.732074,79.3099979 123.50951,80.5876185 C126.286946,81.8652391 127.888147,84.8223795 127.44,87.8465537 Z" id="Path" fill="#F4B12C" fill-rule="nonzero"></path>
            <path d="M51.36,42.4065537 C52.1883631,45.4927703 50.4179984,48.6794268 47.36,49.6065537 C44.6320248,51.2418327 41.0994216,50.4293339 39.36,47.7665537 C38.5192415,44.6831599 40.2429877,41.481917 43.28,40.4865537 C46.0589743,38.9008314 49.5914145,39.7402231 51.36,42.4065537 L51.36,42.4065537 Z" id="Path" fill="#F4B12C" fill-rule="nonzero"></path>
            <path d="M121.2,17.6065537 C121.2,20.3265537 118.24,22.5665537 114.56,22.5665537 C110.88,22.5665537 108,20.3265537 108,17.6065537 C108,14.8865537 110.96,12.6465537 114.56,12.6465537 C118.16,12.6465537 121.2,14.8065537 121.2,17.6065537 Z" id="Path" fill="#F4B12C" fill-rule="nonzero"></path>
            <path d="M136.4,47.3665537 C134.929103,50.0258756 131.887683,51.4051346 128.918042,50.7595605 C125.948401,50.1139864 123.754094,47.596526 123.52,44.5665537 C124.645297,41.5791597 127.936575,40.0219958 130.96,41.0465537 C134.56,41.6065537 136.96,44.6465537 136.4,47.3665537 Z" id="Path" fill="#F4B12C" fill-rule="nonzero"></path>
            <path d="M167.28,72.0065537 C165.282574,74.3534459 161.84513,74.834688 159.28,73.1265537 C156.281658,71.9675458 154.729435,68.651433 155.76,65.6065537 C157.738345,63.2251749 161.203747,62.7400188 163.76,64.4865537 C166.728723,65.6770973 168.267376,68.9642189 167.28,72.0065537 L167.28,72.0065537 Z" id="Path" fill="#F4B12C" fill-rule="nonzero"></path>
            <path d="M83.44,68.0865537 C83.44,70.8065537 81.04,73.3665537 77.44,73.7665537 C74.2981755,74.4331543 71.1797828,72.5410958 70.32,69.4465537 C70.4915208,66.2714577 73.1406308,63.798955 76.32,63.8465537 C79.4517954,63.0862756 82.6163957,64.9708129 83.44,68.0865537 L83.44,68.0865537 Z" id="Path" fill="#F4B12C" fill-rule="nonzero"></path>
            <path d="M47.68,70.0065537 C49.1467748,72.9254758 48.0088672,76.481437 45.12,78.0065537 C42.8567429,80.0809295 39.3832571,80.0809295 37.12,78.0065537 C36.3706887,76.6113927 36.2201034,74.971742 36.7027609,73.4634372 C37.1854185,71.9551324 38.2599303,70.7075127 39.68,70.0065537 C41.9576052,67.9694016 45.4023948,67.9694016 47.68,70.0065537 Z" id="Path" fill="#F4B12C" fill-rule="nonzero"></path>
            <path d="M185.84,49.6065537 C183.264049,51.3346161 179.795573,50.8143446 177.84,48.4065537 C175.484804,46.4056597 175.034673,42.9431158 176.8,40.4065537 C179.386778,38.6559685 182.888564,39.2162542 184.8,41.6865537 C187.143891,43.6596814 187.595017,47.0951856 185.84,49.6065537 L185.84,49.6065537 Z" id="Path" fill="#F4B12C" fill-rule="nonzero"></path>
            <g id="Group-2" transform="translate(37.640000, 8.606554)">
                <path d="M32.9076398,70 C35.9635744,70 38.5,71.5649038 38.5,73.5 C38.5,75.4350962 35.9941337,77 32.9076398,77 C29.821146,77 27.3,75.4350962 27.3,73.5 C27.3,71.5649038 29.8058663,70 32.9076398,70 Z" id="Path" fill="#EE7E00"></path>
                <path d="M34.3,68.6 C37.3517711,68.6 39.9,70.1649038 39.9,72.1 C39.9,74.0350962 37.3822888,75.6 34.3,75.6 C31.2177112,75.6 28.7,74.0350962 28.7,72.1 C28.7,70.1649038 31.2024523,68.6 34.3,68.6 Z" id="Path" fill="#FBE1BB"></path>
                <path d="M65.9394015,51.8928674 C68.7655762,53.2557205 70.4733716,55.8752302 69.8839555,57.7513655 C69.2945394,59.6275008 66.3927985,60.0699856 63.5515106,58.7071326 C60.7102227,57.3442795 59.0175405,54.7247698 59.6220699,52.8486345 C60.2265992,50.9724992 63.0830004,50.5300144 65.9394015,51.8928674 Z" id="Path" fill="#EE7E00"></path>
                <path d="M68.038974,50.4994862 C70.8800733,51.8455229 72.572643,54.4844633 71.9832661,56.3618303 C71.3938891,58.2391973 68.4923409,58.6642615 65.6512416,57.3005138 C62.8101423,55.9367661 61.1175726,53.3155367 61.7220618,51.4381697 C62.326551,49.5608027 65.2129869,49.1357385 68.038974,50.4994862 Z" id="Path" fill="#FBE1BB"></path>
                <path d="M96.4918039,72.8638415 C99.3149346,71.5270352 102.123049,71.9904614 102.768765,73.8976384 C103.414481,75.8048155 101.612483,78.4249559 98.7893518,79.7439382 C95.9662211,81.0629204 93.158107,80.6173183 92.5274075,78.7101413 C91.8967081,76.8029642 93.6686732,74.2006479 96.4918039,72.8638415 Z" id="Path" fill="#EE7E00"></path>
                <path d="M97.208295,70.7497929 C100.032465,69.4314613 102.841614,69.8946589 103.472546,71.8008952 C104.103477,73.7071315 102.33086,76.3259795 99.5066891,77.6443111 C96.6825185,78.9626428 93.858348,78.5172604 93.2274163,76.6110242 C92.5964846,74.7047879 94.3691023,72.1215704 97.208295,70.7497929 Z" id="Path" fill="#FBE1BB"></path>
                <path d="M122.334814,42.1469652 C125.390894,42.7061574 127.652393,44.8346957 127.377346,46.8910801 C127.102299,48.9474645 124.321266,50.1199644 121.265186,49.5607722 C118.209106,49.0015799 115.947607,46.8550032 116.222654,44.7986188 C116.497701,42.7422344 119.278734,41.5697345 122.334814,42.1469652 Z" id="Path" fill="#EE7E00"></path>
                <path d="M123.729006,40.0392768 C126.78859,40.6167105 129.052683,42.7459975 128.77732,44.7850605 C128.501957,46.8241234 125.717736,48.0331254 122.658152,47.4556916 C119.598567,46.8782579 117.334475,44.7670157 117.625136,42.7099079 C117.915796,40.6528002 120.669422,39.4798878 123.729006,40.0392768 Z" id="Path" fill="#FBE1BB"></path>
                <path d="M34.6258685,24.8394543 C37.4083379,23.3159095 40.2984167,23.4851923 41.0978002,25.2288046 C41.8971837,26.9724168 40.2522985,29.6132277 37.469829,31.1537007 C34.6873595,32.6941736 31.7819079,32.5079626 30.9978972,30.7643503 C30.2138865,29.0207381 31.8280262,26.3799272 34.6258685,24.8394543 Z" id="Path" fill="#EE7E00"></path>
                <path d="M34.6274368,22.7394543 C37.4110469,21.2159095 40.3176895,21.3851923 41.1020217,23.1288046 C41.8863538,24.8724168 40.2715524,27.5132277 37.4725632,29.0537007 C34.673574,30.5941736 31.7823105,30.4079626 30.9979783,28.6643503 C30.2136462,26.9207381 31.8284476,24.2799272 34.6274368,22.7394543 Z" id="Path" fill="#FBE1BB"></path>
                <path d="M93.769969,37.1242986 C96.3444041,39.9160361 97.344756,43.5801916 96.0060497,45.3075792 C94.6673435,47.0349668 91.5044661,46.1799972 88.930031,43.3882597 C86.3555959,40.5965221 85.355244,36.9149183 86.6939503,35.1875307 C88.0326565,33.4601431 91.1955339,34.332561 93.769969,37.1242986 Z" id="Path" fill="#EE7E00"></path>
                <path d="M95.8759985,37.1402399 C98.4386657,39.9270738 99.4401679,43.5847933 98.1146503,45.3091467 C96.7891328,47.0335002 93.5931628,46.1800323 91.0304956,43.3931984 C88.4678284,40.6063646 87.4515983,36.9312274 88.7918438,35.2068739 C90.1320893,33.4825204 93.2396915,34.2663175 95.8759985,37.1402399 Z" id="Path" fill="#FBE1BB"></path>
                <path d="M140.979112,24.6670372 C143.783551,26.0025025 145.460117,28.456871 144.728525,30.0810855 C143.996932,31.7053 141.116286,31.9940492 138.311847,30.6405371 C135.507409,29.2870251 133.830842,26.8507033 134.577677,25.2264889 C135.324511,23.6022744 138.174674,23.2954783 140.979112,24.6670372 Z" id="Path" fill="#EE7E00"></path>
                <path d="M142.380576,23.9544167 C145.183968,25.3119318 146.859908,27.7554589 146.128589,29.384477 C145.397269,31.0134951 142.517699,31.2849982 139.714307,29.9455833 C136.910916,28.6061684 135.250211,26.1445411 135.966295,24.515523 C136.682379,22.8865049 139.577185,22.6150018 142.380576,23.9544167 Z" id="Path" fill="#FBE1BB"></path>
                <path d="M6.57643528,40.0678976 C9.38278867,41.4233987 11.0604999,43.8633006 10.3284077,45.4899019 C9.59631556,47.1165032 6.71370257,47.3876034 3.9226011,46.0321024 C1.13149963,44.6766013 -0.561463553,42.2366994 0.170628635,40.6100981 C0.902720823,38.9834968 3.83108958,38.7123966 6.57643528,40.0678976 Z" id="Path" fill="#EE7E00"></path>
                <path d="M7.97643528,39.3596711 C10.7827887,40.6954598 12.4604999,43.1323717 11.7284077,44.7750308 C10.9963156,46.41769 8.11370257,46.6884579 5.3226011,45.334618 C2.53149963,43.9807781 0.838536447,41.5438662 1.57062863,39.9192582 C2.30272082,38.2946503 5.15482997,38.0058311 7.97643528,39.3596711 Z" id="Path" fill="#FBE1BB"></path>
                <path d="M60.6316346,6.03134786 C62.530481,3.23612006 65.0475564,2.01768742 66.4312119,3.32571069 C67.8148673,4.63373396 67.2555173,7.96650557 65.3566709,10.7617334 C63.4578245,13.5569612 60.9407491,14.7753938 59.5570936,13.4852887 C58.1734381,12.1951835 58.7769475,8.82657567 60.6316346,6.03134786 Z" id="Path" fill="#EE7E00"></path>
                <path d="M59.9155084,3.93542382 C61.8190167,1.12127344 64.3422718,-0.0796697217 65.7293244,1.22882059 C67.1163769,2.53731089 66.5556536,5.8712725 64.6521453,8.66749836 C62.748637,11.4637242 60.1516024,12.6825919 58.8383293,11.3741016 C57.5250561,10.0656113 58.0120001,6.73164969 59.9155084,3.93542382 Z" id="Path" fill="#FBE1BB"></path>
                <path d="M104.815652,2.96865239 C107.892493,3.54432222 110.153971,5.66710472 109.877056,7.69993881 C109.60014,9.7327729 106.800215,10.9200919 103.723374,10.3624118 C100.646533,9.80473163 98.4465913,7.73591818 98.723507,5.63112536 C99.0004227,3.52633254 101.723427,2.33901352 104.815652,2.96865239 Z" id="Path" fill="#EE7E00"></path>
                <path d="M106.512557,1.54183891 C109.401061,2.11955827 111.538554,4.24989841 111.278588,6.28996989 C111.018623,8.33004138 108.390084,9.52158756 105.50158,8.96192193 C102.613077,8.4022563 100.562239,6.21775497 100.822204,4.21379095 C101.082169,2.20982692 103.624053,0.964119551 106.512557,1.54183891 Z" id="Path" fill="#FBE1BB"></path>
                <path d="M60.7662387,32.345854 C63.4276782,31.0159962 65.9575081,31.2853345 66.4254535,32.9350314 C66.8933989,34.5847284 65.109357,37.0256065 62.4479175,38.3554643 C59.7864779,39.685322 57.2420248,39.4159838 56.7740793,37.7494532 C56.3061339,36.0829226 58.1047991,33.6420444 60.7662387,32.345854 Z" id="Path" fill="#EE7E00"></path>
                <path d="M61.4673069,30.2453113 C64.1282506,28.9142322 66.6576092,29.1838179 67.1254674,30.851879 C67.5933256,32.5199402 65.8096161,34.946211 63.1486724,36.260441 C60.4877287,37.574671 57.9437496,37.3219344 57.4758913,35.6707224 C57.0080331,34.0195103 58.7478809,31.5763904 61.4673069,30.2453113 Z" id="Path" fill="#FBE1BB"></path>
                <path d="M108.024489,22.5141115 C110.977441,22.0264569 113.339802,23.1462563 113.398861,25.0246294 C113.45792,26.9030024 111.213677,28.7994368 108.260725,29.2870914 C105.307773,29.7747459 102.960177,28.6368853 102.901118,26.7585122 C102.842059,24.8801391 105.130596,22.9837047 108.024489,22.5141115 Z" id="Path" fill="#EE7E00"></path>
                <path d="M108.754298,20.4067389 C111.698982,19.9378726 114.040005,21.0559383 114.098899,22.9314033 C114.157793,24.8068683 111.846216,26.7003666 108.945702,27.1872662 C106.045189,27.6741657 103.659995,26.5380667 103.601101,24.6626018 C103.542207,22.7871368 105.853784,20.8936384 108.754298,20.4067389 Z" id="Path" fill="#FBE1BB"></path>
                <path d="M143.56682,45.6216192 C145.542704,48.0844583 146.191717,50.9950863 145.009071,52.0801133 C143.826425,53.1651404 141.273641,52.0801133 139.240068,49.6000516 C137.206494,47.1199898 136.629594,44.2265845 137.797817,43.1243348 C138.96604,42.0220851 141.590937,43.1415575 143.56682,45.6216192 Z" id="Path" fill="#EE7E00"></path>
                <path d="M145.66682,45.6143963 C147.642704,48.0883267 148.291717,50.9745789 147.109071,52.0741036 C145.926425,53.1736282 143.373641,52.0741036 141.340068,49.5829931 C139.306494,47.0918825 138.729594,44.2228104 139.897817,43.1232858 C141.06604,42.0237611 143.690937,43.1404658 145.66682,45.6143963 Z" id="Path" fill="#FBE1BB"></path>
                <path d="M34.391147,2.76819633 C37.2505201,1.62804987 39.9901288,1.98434564 40.5140977,3.55204703 C41.0380666,5.11974841 39.106867,7.3109674 36.3073761,8.43329908 C33.5078851,9.55563075 30.6934237,9.23496456 30.1844253,7.66726317 C29.675427,6.09956178 31.5168034,3.9083428 34.391147,2.76819633 Z" id="Path" fill="#EE7E00"></path>
                <path d="M35.1266057,0.666358117 C37.9861493,-0.470651792 40.7116518,-0.115336195 41.2180293,1.44805243 C41.7244068,3.01144105 39.8329378,5.19663197 36.9733943,6.33364188 C34.1138507,7.47065179 31.3883482,7.1153362 30.8819707,5.55194757 C30.3755932,3.98855895 32.2670622,1.80336803 35.1266057,0.666358117 Z" id="Path" fill="#FBE1BB"></path>
                <path d="M13.1825197,16.1524106 C16.6557051,15.8374015 19.540215,16.9749343 19.5990825,18.6899838 C19.6579501,20.4050334 16.8764584,22.0325803 13.4327068,22.3475894 C9.98895515,22.6625985 7.07501148,21.5250657 7.00142704,19.8100162 C6.92784261,18.0949666 9.7093343,16.4499191 13.1825197,16.1524106 Z" id="Path" fill="#EE7E00"></path>
                <path d="M14.5673056,14.7528721 C18.0552012,14.4387959 20.9249887,15.5555114 20.998573,17.265482 C21.0721573,18.9754526 18.2906709,20.6330772 14.8174922,20.9471534 C11.3443135,21.2612296 8.45980918,20.1445141 8.40094174,18.4170948 C8.34207431,16.6896756 11.0499763,15.0494997 14.5673056,14.7528721 Z" id="Path" fill="#FBE1BB"></path>
            </g>
        </g>
    </g>
</svg>